<svg xmlns="http://www.w3.org/2000/svg" width="12" height="12" viewBox="0 0 12 12">
    <g fill="none" fill-rule="evenodd">
        <g fill="#3362FA" fill-rule="nonzero">
            <g>
                <g>
                    <g>
                        <path d="M104 1c-3.314 0-6 2.686-6 6s2.686 6 6 6 6-2.686 6-6-2.686-6-6-6zm-.5 3c0-.133.053-.26.146-.354.094-.093.221-.146.354-.146.133 0 .26.053.354.146.093.094.146.221.146.354v3.5c0 .133-.053.26-.146.354-.094.093-.221.146-.354.146-.133 0-.26-.053-.354-.146-.093-.094-.146-.221-.146-.354V4zm.5 6.5c-.414 0-.75-.336-.75-.75s.336-.75.75-.75.75.336.75.75-.336.75-.75.75z" transform="translate(-1228 -351) translate(257) translate(641 295) translate(232 55)"/>
                    </g>
                </g>
            </g>
        </g>
    </g>
</svg>
