<svg xmlns="http://www.w3.org/2000/svg" width="11" height="11" viewBox="0 0 11 11">
    <g fill="none" fill-rule="evenodd">
        <g fill="#333" fill-rule="nonzero">
            <g>
                <g>
                    <g>
                        <path d="M9.39 4.611C7.815 3.038 5.45 2.568 3.394 3.42 1.34 4.27 0 6.276 0 8.5c0 2.225 1.34 4.23 3.395 5.082 2.056.851 4.421.38 5.994-1.193 2.148-2.148 2.148-5.63 0-7.778zM8.14 6.965L5.11 10.5 2.933 8.867c-.131-.098-.2-.26-.18-.422.019-.163.124-.303.275-.367.15-.064.325-.043.455.056l1.49 1.117 2.47-2.882c.107-.125.272-.183.433-.153.161.03.294.144.348.299.055.154.022.326-.084.45z" transform="translate(-525 -916) translate(257) translate(20 807) translate(248 106)"/>
                    </g>
                </g>
            </g>
        </g>
    </g>
</svg>
