<svg xmlns="http://www.w3.org/2000/svg" width="11" height="10" viewBox="0 0 11 10">
    <g fill="none" fill-rule="evenodd">
        <g fill="#127413" fill-rule="nonzero">
            <g>
                <g>
                    <path d="M33.067 99.465c-1.43-1.43-3.58-1.858-5.45-1.084-1.868.774-3.086 2.597-3.086 4.62 0 2.022 1.218 3.845 3.087 4.619 1.868.774 4.019.346 5.449-1.084 1.952-1.953 1.952-5.119 0-7.071zm-1.136 2.14l-2.754 3.213-1.98-1.485c-.119-.089-.181-.235-.164-.383.018-.148.114-.275.25-.334.138-.058.296-.039.415.051l1.354 1.016 2.246-2.62c.097-.114.247-.166.393-.139.147.027.267.13.317.271.05.14.02.297-.077.41z" transform="translate(-922 -393) translate(257) translate(641 295)"/>
                </g>
            </g>
        </g>
    </g>
</svg>
