<svg xmlns="http://www.w3.org/2000/svg" width="14" height="13" viewBox="0 0 14 13">
    <g fill="none" fill-rule="evenodd">
        <g fill="#3362FA" fill-rule="nonzero">
            <g>
                <g>
                    <path d="M0 11.958c0 .484.392.875.875.875s.875-.391.875-.875v-.291h10.5v.291c0 .484.392.875.875.875s.875-.391.875-.875V9.917H0v2.041zM1.75 3.5c.002-.644.523-1.165 1.167-1.167H5.25c.644.002 1.165.523 1.167 1.167v.583h1.166V3.5c.002-.644.523-1.165 1.167-1.167h2.333c.644.002 1.165.523 1.167 1.167v.583h1.167V1.167C13.417.522 12.894 0 12.25 0H1.75C1.106 0 .583.522.583 1.167v2.916H1.75V3.5zm11.083 1.75H1.167C.522 5.25 0 5.772 0 6.417V8.75h14V6.417c0-.645-.522-1.167-1.167-1.167z" transform="translate(-20 -274) translate(20 250) translate(0 24)"/>
                </g>
            </g>
        </g>
    </g>
</svg>
