<svg xmlns="http://www.w3.org/2000/svg" width="20" height="20" viewBox="0 0 20 20">
    <g fill="none" fill-rule="evenodd">
        <g fill="#FFF">
            <g transform="translate(-651 -21) translate(651 21)">
                <circle cx="10" cy="10" r="10" fill-opacity=".29" opacity=".3"/>
                <path fill-rule="nonzero" d="M13.77 11.95l-.962-.412-2.583.924-.225.08-.224-.08-2.583-.924-.962.413c-.144.062-.236.205-.23.362.004.157.104.295.252.348L10 14l3.748-1.34c.147-.053.248-.19.253-.348.004-.157-.087-.3-.231-.362zM6.253 8.328L10 9.667l3.748-1.34c.147-.053.248-.19.253-.347.004-.157-.087-.301-.231-.363L10 6 6.231 7.617c-.144.062-.236.206-.23.363.004.157.104.294.252.347zm7.517 1.457l-.962-.413-2.583.924-.225.08-.224-.08-2.583-.924-.962.413c-.144.062-.236.206-.23.362.004.157.104.295.252.348L10 11.834l3.748-1.34c.147-.053.248-.19.253-.348.004-.156-.087-.3-.231-.362z" opacity=".5"/>
            </g>
        </g>
    </g>
</svg>
