<svg xmlns="http://www.w3.org/2000/svg" xmlns:xlink="http://www.w3.org/1999/xlink" width="147" height="98" viewBox="0 0 147 98">
    <defs>
        <path id="kc51z9xqma" d="M6.911 0h122.62c2.404 0 3.275.25 4.154.72.878.47 1.568 1.16 2.038 2.038.47.879.72 1.75.72 4.153v70.366c0 2.403-.25 3.274-.72 4.153-.47.879-1.16 1.568-2.038 2.038-.879.47-1.75.72-4.154.72H6.911c-2.403 0-3.274-.25-4.153-.72-.878-.47-1.568-1.16-2.038-2.038-.47-.879-.72-1.75-.72-4.153V6.91c0-2.403.25-3.274.72-4.153C1.19 1.88 1.88 1.19 2.758.72 3.637.25 4.508 0 6.911 0z"/>
        <path id="y9avi2yhic" d="M6.911 0h14.793c2.404 0 3.275.25 4.154.72.878.47 1.568 1.16 2.038 2.038.47.879.72 1.75.72 4.153v12.305c0 2.403-.25 3.275-.72 4.153-.47.879-1.16 1.568-2.038 2.038-.879.47-1.75.72-4.154.72H6.911c-2.403 0-3.274-.25-4.153-.72-.878-.47-1.568-1.16-2.038-2.038-.47-.878-.72-1.75-.72-4.153V6.91c0-2.403.25-3.274.72-4.153C1.19 1.88 1.88 1.19 2.758.72 3.637.25 4.508 0 6.911 0z"/>
    </defs>
    <g fill="none" fill-rule="evenodd">
        <g>
            <g>
                <g>
                    <g transform="translate(-1032 -555) translate(981 449) translate(51 106) translate(0 13.519)">
                        <mask id="v082lgo6mb" fill="#fff">
                            <use xlink:href="#kc51z9xqma"/>
                        </mask>
                        <use fill="#FFF" opacity=".053" xlink:href="#kc51z9xqma"/>
                        <path fill="#FFF" fill-opacity=".401" d="M16.046 10.783h15.6c1.11 0 1.512.115 1.918.332.405.217.723.535.94.94.217.406.332.808.332 1.918v15.6c0 1.11-.115 1.511-.332 1.917-.217.405-.535.724-.94.94-.406.217-.808.333-1.917.333h-15.6c-1.11 0-1.512-.116-1.918-.332-.405-.217-.723-.536-.94-.941-.217-.406-.333-.808-.333-1.917v-15.6c0-1.11.116-1.512.333-1.917.217-.406.535-.724.94-.94.406-.218.808-.333 1.917-.333z" mask="url(#v082lgo6mb)" opacity=".3"/>
                        <path fill="#333" d="M16.046 42.301h15.6c1.11 0 1.512.116 1.918.333.405.217.723.535.94.94.217.406.332.808.332 1.917v15.6c0 1.11-.115 1.512-.332 1.918-.217.405-.535.723-.94.94-.406.217-.808.333-1.917.333h-15.6c-1.11 0-1.512-.116-1.918-.333-.405-.217-.723-.535-.94-.94-.217-.406-.333-.808-.333-1.917v-15.6c0-1.11.116-1.512.333-1.918.217-.405.535-.723.94-.94.406-.217.808-.333 1.917-.333z" mask="url(#v082lgo6mb)"/>
                        <path fill="#FFF" fill-opacity=".401" d="M14.983 73.405H32.71c.74 0 1.007.077 1.278.222.27.145.482.357.627.627.144.27.221.539.221 1.278v17.727c0 .74-.077 1.008-.221 1.278-.145.27-.357.482-.627.627-.27.145-.539.222-1.278.222H14.983c-.74 0-1.008-.077-1.278-.222-.27-.145-.483-.357-.627-.627-.145-.27-.222-.539-.222-1.278V75.532c0-.74.077-1.008.222-1.278.144-.27.357-.482.627-.627.27-.145.538-.222 1.278-.222zM41.142 16.589h46.279c.462 0 .63.048.799.138.169.09.301.223.392.392.09.17.138.337.138.799v.66c0 .462-.048.63-.138.798-.09.17-.223.302-.392.392-.17.09-.337.139-.799.139H41.142c-.462 0-.63-.049-.798-.139-.17-.09-.302-.223-.392-.392-.09-.169-.139-.336-.139-.799v-.66c0-.461.048-.629.139-.798.09-.169.223-.301.392-.392.168-.09.336-.138.798-.138zM41.142 48.108h25.543c.462 0 .63.048.799.138.169.09.301.223.392.392.09.169.138.336.138.799v.66c0 .461-.048.629-.138.798-.09.169-.223.301-.392.392-.17.09-.337.138-.799.138H41.142c-.462 0-.63-.048-.798-.138-.17-.09-.302-.223-.392-.392-.09-.17-.139-.337-.139-.799v-.66c0-.462.048-.63.139-.798.09-.169.223-.302.392-.392.168-.09.336-.138.798-.138zM41.142 79.212h17.249c.462 0 .63.048.798.138.17.09.302.223.392.392.09.169.139.336.139.799v.66c0 .461-.048.629-.139.798-.09.169-.223.301-.392.392-.169.09-.336.138-.798.138H41.142c-.462 0-.63-.048-.798-.138-.17-.09-.302-.223-.392-.392-.09-.17-.139-.337-.139-.799v-.66c0-.462.048-.63.139-.798.09-.169.223-.302.392-.392.168-.09.336-.138.798-.138zM41.142 24.883H73.32c.463 0 .63.048.8.139.168.09.3.223.391.392.09.169.139.336.139.798v.66c0 .462-.049.63-.139.799-.09.169-.223.301-.392.391-.169.09-.336.139-.799.139H41.142c-.462 0-.63-.048-.798-.139-.17-.09-.302-.222-.392-.391-.09-.17-.139-.337-.139-.8v-.659c0-.462.048-.63.139-.798.09-.17.223-.302.392-.392.168-.09.336-.139.798-.139zM41.142 56.402H90.74c.462 0 .63.048.798.138.17.09.302.223.392.392.09.17.139.337.139.799v.66c0 .462-.048.63-.139.798-.09.17-.223.302-.392.392-.169.09-.336.139-.798.139H41.142c-.462 0-.63-.048-.798-.139-.17-.09-.302-.223-.392-.392-.09-.169-.139-.336-.139-.798v-.66c0-.462.048-.63.139-.799.09-.169.223-.301.392-.392.168-.09.336-.138.798-.138z" mask="url(#v082lgo6mb)" opacity=".3"/>
                    </g>
                    <g transform="translate(-1032 -555) translate(981 449) translate(51 106) translate(118.074)">
                        <mask id="10zhw8bp5d" fill="#fff">
                            <use xlink:href="#y9avi2yhic"/>
                        </mask>
                        <use fill="#4F4F4F" xlink:href="#y9avi2yhic"/>
                        <circle cx="14.406" cy="12.96" r="5.76" stroke="#FFF" stroke-width=".72" mask="url(#10zhw8bp5d)" opacity=".5"/>
                        <path stroke="#FFF" stroke-linecap="round" stroke-width="1.44" d="M9.712 9.62c-.671.942-1.066 2.095-1.066 3.34 0 3.181 2.579 5.76 5.76 5.76 3.18 0 5.76-2.579 5.76-5.76 0-.46-.054-.908-.156-1.337" mask="url(#10zhw8bp5d)"/>
                    </g>
                </g>
            </g>
        </g>
    </g>
</svg>
