<svg xmlns="http://www.w3.org/2000/svg" width="14" height="14" fill="none" viewBox="0 0 14 14">
    <path fill="#00C24C" fill-rule="evenodd" d="M4.321.533C6.937-.55 9.947.048 11.95 2.05c2.734 2.734 2.734 7.166 0 9.9-2.002 2.002-5.012 2.6-7.628 1.517C1.705 12.383 0 9.831 0 7 0 4.169 1.705 1.616 4.321.533zm2.183 9.012l3.855-4.499c.136-.158.177-.376.108-.573-.07-.197-.238-.341-.443-.38-.205-.038-.415.036-.55.194L6.328 7.955 4.433 6.533c-.166-.125-.387-.152-.58-.07-.191.081-.325.26-.35.467-.025.207.063.412.23.537l2.77 2.078z" clip-rule="evenodd"/>
</svg>
