<svg xmlns="http://www.w3.org/2000/svg" width="18" height="18" viewBox="0 0 18 18">
    <g fill="none" fill-rule="evenodd">
        <g fill="#3362FA" fill-rule="nonzero">
            <g>
                <g>
                    <path d="M9 6.5c-.414 0-.75.336-.75.75V11H6c-.414 0-.75.336-.75.75s.336.75.75.75h3.75V7.25c0-.414-.336-.75-.75-.75zM9 2c-4.97 0-9 4.03-9 9s4.03 9 9 9 9-4.03 9-9-4.03-9-9-9zm0 15.75c-3.728 0-6.75-3.022-6.75-6.75S5.272 4.25 9 4.25s6.75 3.022 6.75 6.75-3.022 6.75-6.75 6.75z" transform="translate(-277 -749) translate(257) translate(20 747)"/>
                </g>
            </g>
        </g>
    </g>
</svg>
