<?xml version="1.0" encoding="UTF-8"?>
<svg width="13px" height="13px" viewBox="0 0 13 13" version="1.1" xmlns="http://www.w3.org/2000/svg" xmlns:xlink="http://www.w3.org/1999/xlink">
    <title>E4046A83-1B17-4F45-A076-00710A2B125B</title>
    <g id="Page-1" stroke="none" stroke-width="1" fill="none" fill-rule="evenodd">
        <g id="23-Added" transform="translate(-1033.000000, -257.000000)" fill="#333333" fill-rule="nonzero">
            <g id="Group-5-Copy-4" transform="translate(1018.000000, 149.000000)">
                <g id="Group-11-Copy" transform="translate(15.000000, 107.000000)">
                    <path d="M6.5,4.25 C6.20085196,4.25 5.95834829,4.49251862 5.95833333,4.79166667 L5.95833333,7.5 L4.33333333,7.5 C4.03417909,7.5 3.79166667,7.74251243 3.79166667,8.04166667 C3.79166667,8.34082091 4.03417909,8.58333333 4.33333333,8.58333333 L7.04166667,8.58333333 L7.04166667,4.79166667 C7.04166667,4.49251986 6.79914681,4.25 6.5,4.25 Z M6.5,1 C2.91014913,1 0,3.91014913 0,7.5 C0,11.0898509 2.91014913,14 6.5,14 C10.0898509,14 13,11.0898509 13,7.5 C13,3.91014913 10.0898509,1 6.5,1 Z M6.5,12.375 C3.80761184,12.375 1.625,10.1923882 1.625,7.5 C1.625,4.80761184 3.80761184,2.625 6.5,2.625 C9.19238816,2.625 11.375,4.80761184 11.375,7.5 C11.375,10.192372 9.19237205,12.375 6.5,12.375 Z" id="clock"></path>
                </g>
            </g>
        </g>
    </g>
</svg>