<?xml version="1.0" encoding="UTF-8"?>
<svg width="13px" height="13px" viewBox="0 0 13 13" version="1.1" xmlns="http://www.w3.org/2000/svg" xmlns:xlink="http://www.w3.org/1999/xlink">
    <title>E1663B5E-6CEC-41BD-9EA9-D47FB24354BE</title>
    <g id="Page-1" stroke="none" stroke-width="1" fill="none" fill-rule="evenodd">
        <g id="23-Added" transform="translate(-1033.000000, -206.000000)" fill="#333333" fill-rule="nonzero">
            <g id="Group-5-Copy-4" transform="translate(1018.000000, 149.000000)">
                <g id="Group-11" transform="translate(15.000000, 56.000000)">
                    <path d="M7.53105459,9.14698564 C7.28350788,7.87588468 6.17006067,6.95836252 4.8750792,6.95836252 C3.58009772,6.95836252 2.46665052,7.87588468 2.2191038,9.14698564 C0.92142593,9.26063575 -0.0560800784,10.376891 0.00250053974,11.6782182 C0.0610811579,12.9795454 1.13492903,14.0034569 2.43756966,14.0000594 L7.31258874,14.0000594 C8.61522936,14.0034569 9.68907723,12.9795454 9.74765785,11.6782182 C9.80623847,10.376891 8.82873246,9.26063575 7.53105459,9.14698564 L7.53105459,9.14698564 Z M13.000111,4.172917 L10.7431776,3.256863 L9.84042155,1 L7.58342313,1.90269103 L5.32648971,1 L4.42373368,3.256863 L2.16673526,4.172917 L3.04602079,6.35823639 C3.60459095,6.04398865 4.23418504,5.87765674 4.8750792,5.87501908 C4.89346343,5.87501908 4.910916,5.8788541 4.92930024,5.87911951 C5.16576688,4.69089318 6.16288445,3.8044324 7.37062543,3.70872446 C8.57836642,3.61301652 9.70265779,4.33136537 10.1233207,5.4675172 C10.5439837,6.60366903 10.1585909,7.88098206 9.17973188,8.59486806 C9.77072534,8.96135683 10.2379791,9.49695121 10.5209038,10.1321999 L10.7432047,9.57637732 L13.000111,8.66032873 L12.0973495,6.41668787 L13.000111,4.172917 Z" id="cloud-day"></path>
                </g>
            </g>
        </g>
    </g>
</svg>