<svg xmlns="http://www.w3.org/2000/svg" width="16" height="13" viewBox="0 0 16 13">
    <g fill="none" fill-rule="evenodd">
        <g fill="#3362FA" fill-rule="nonzero">
            <g>
                <g>
                    <path d="M14.025 8.925c0-3.274-2.48-6.015-5.737-6.343V1.275h.637c.352 0 .638-.285.638-.637C9.563.285 9.277 0 8.925 0h-2.55c-.352 0-.637.285-.637.638 0 .352.285.637.637.637h.638v1.307c-3.258.328-5.738 3.07-5.738 6.343V10.2h12.75V8.925zm.638 2.55H.638c-.353 0-.638.285-.638.638 0 .352.285.637.638.637h14.025c.352 0 .637-.285.637-.637 0-.353-.285-.638-.637-.638z" transform="translate(-227 -277) translate(20 250) translate(207 27)"/>
                </g>
            </g>
        </g>
    </g>
</svg>
