<svg xmlns="http://www.w3.org/2000/svg" xmlns:xlink="http://www.w3.org/1999/xlink" width="183" height="129" viewBox="0 0 183 129">
    <defs>
        <filter id="vykae4h12b" width="122.4%" height="136.3%" x="-11.2%" y="-13.9%" filterUnits="objectBoundingBox">
            <feOffset dy="4" in="SourceAlpha" result="shadowOffsetOuter1"/>
            <feGaussianBlur in="shadowOffsetOuter1" result="shadowBlurOuter1" stdDeviation="5"/>
            <feColorMatrix in="shadowBlurOuter1" values="0 0 0 0 0.0502641016 0 0 0 0 0.0746531372 0 0 0 0 0.0982223732 0 0 0 0.0481315559 0"/>
        </filter>
        <filter id="exlhcdz37e" width="206.9%" height="217.1%" x="-53.5%" y="-44.8%" filterUnits="objectBoundingBox">
            <feOffset dy="4" in="SourceAlpha" result="shadowOffsetOuter1"/>
            <feGaussianBlur in="shadowOffsetOuter1" result="shadowBlurOuter1" stdDeviation="5"/>
            <feColorMatrix in="shadowBlurOuter1" values="0 0 0 0 0.0502641016 0 0 0 0 0.0746531372 0 0 0 0 0.0982223732 0 0 0 0.0481315559 0"/>
        </filter>
        <path id="2s8e0dzlha" d="M7.68 0h136.244c2.67 0 3.638.278 4.615.8.976.522 1.742 1.288 2.264 2.265.522.976.8 1.944.8 4.614v78.184c0 2.67-.278 3.639-.8 4.615-.522.976-1.288 1.742-2.264 2.264-.977.522-1.945.8-4.615.8H7.679c-2.67 0-3.638-.278-4.614-.8-.977-.522-1.743-1.288-2.265-2.264-.522-.976-.8-1.945-.8-4.615V7.679c0-2.67.278-3.638.8-4.614C1.322 2.088 2.088 1.322 3.065.8 4.04.278 5.009 0 7.679 0z"/>
        <path id="hmf8rtiy7d" d="M7.68 0h16.436c2.67 0 3.638.278 4.615.8.976.522 1.742 1.288 2.264 2.265.522.976.8 1.944.8 4.614v13.672c0 2.67-.278 3.639-.8 4.615-.522.976-1.288 1.742-2.264 2.264-.977.522-1.945.8-4.615.8H7.679c-2.67 0-3.638-.278-4.614-.8-.977-.522-1.743-1.288-2.265-2.264C.278 24.99 0 24.02 0 21.35V7.68c0-2.67.278-3.638.8-4.614C1.322 2.088 2.088 1.322 3.065.8 4.04.278 5.009 0 7.679 0z"/>
    </defs>
    <g fill="none" fill-rule="evenodd">
        <g>
            <g>
                <g transform="translate(-650 -371) translate(660 377) translate(0 15.02)">
                    <mask id="j9kawamn9c" fill="#fff">
                        <use xlink:href="#2s8e0dzlha"/>
                    </mask>
                    <g>
                        <use fill="#000" filter="url(#vykae4h12b)" xlink:href="#2s8e0dzlha"/>
                        <use fill="#FFF" xlink:href="#2s8e0dzlha"/>
                    </g>
                    <path fill="#8795A2" fill-opacity=".401" d="M17.83 11.98h17.333c1.232 0 1.68.13 2.13.37.45.241.804.595 1.045 1.045.24.45.37.898.37 2.13V32.86c0 1.232-.13 1.68-.37 2.13-.241.45-.595.804-1.045 1.045-.45.24-.898.37-2.13.37H17.829c-1.232 0-1.68-.13-2.13-.37-.45-.241-.804-.595-1.045-1.045-.24-.45-.37-.898-.37-2.13V15.525c0-1.232.13-1.68.37-2.13.241-.45.595-.804 1.045-1.045.45-.24.898-.37 2.13-.37z" mask="url(#j9kawamn9c)" opacity=".3"/>
                    <path fill="#333" d="M17.83 47.002h17.333c1.232 0 1.68.128 2.13.369.45.24.804.594 1.045 1.045.24.45.37.897.37 2.13V67.88c0 1.232-.13 1.679-.37 2.13-.241.45-.595.804-1.045 1.045-.45.24-.898.369-2.13.369H17.829c-1.232 0-1.68-.128-2.13-.37-.45-.24-.804-.594-1.045-1.044-.24-.451-.37-.898-.37-2.13V50.546c0-1.233.13-1.68.37-2.13.241-.45.595-.804 1.045-1.045.45-.241.898-.37 2.13-.37z" mask="url(#j9kawamn9c)"/>
                    <path fill="#8795A2" fill-opacity=".401" d="M16.648 81.562h19.696c.822 0 1.12.085 1.42.246.3.16.536.396.697.697.16.3.246.598.246 1.42v19.696c0 .822-.085 1.12-.246 1.42-.16.3-.396.536-.697.697-.3.16-.598.246-1.42.246H16.648c-.822 0-1.12-.086-1.42-.246-.3-.16-.536-.397-.697-.697-.16-.3-.246-.598-.246-1.42V83.924c0-.821.085-1.12.246-1.42.16-.3.396-.536.697-.696.3-.16.598-.246 1.42-.246zM45.714 18.432h51.42c.514 0 .7.053.888.154.188.1.335.248.435.435.1.188.154.374.154.888v.733c0 .513-.053.7-.154.887-.1.188-.247.335-.435.436-.188.1-.374.153-.888.153h-51.42c-.514 0-.7-.053-.888-.153-.188-.1-.335-.248-.435-.436-.1-.188-.154-.374-.154-.887v-.733c0-.514.053-.7.154-.888.1-.187.247-.335.435-.435.188-.1.374-.154.888-.154zM45.714 53.453h28.38c.514 0 .7.053.888.154.188.1.335.247.435.435.1.188.154.374.154.888v.732c0 .514-.053.7-.154.888-.1.188-.247.335-.435.435-.188.1-.374.154-.888.154h-28.38c-.514 0-.7-.053-.888-.154-.188-.1-.335-.247-.435-.435-.1-.188-.154-.374-.154-.888v-.732c0-.514.053-.7.154-.888.1-.188.247-.335.435-.435.188-.1.374-.154.888-.154zM45.714 88.013h19.164c.514 0 .7.053.888.154.188.1.335.247.435.435.1.188.154.374.154.888v.732c0 .514-.053.7-.154.888-.1.188-.247.335-.435.435-.188.1-.374.154-.888.154H45.714c-.514 0-.7-.053-.888-.154-.188-.1-.335-.247-.435-.435-.1-.188-.154-.374-.154-.888v-.732c0-.514.053-.7.154-.888.1-.188.247-.335.435-.435.188-.1.374-.154.888-.154zM45.714 27.648h35.753c.514 0 .7.053.888.154.187.1.335.248.435.435.1.188.154.374.154.888v.733c0 .513-.053.7-.154.887-.1.188-.248.335-.435.436-.188.1-.374.153-.888.153H45.714c-.514 0-.7-.053-.888-.153-.188-.1-.335-.248-.435-.436-.1-.188-.154-.374-.154-.887v-.733c0-.514.053-.7.154-.888.1-.187.247-.335.435-.435.188-.1.374-.154.888-.154zM45.714 62.669h55.107c.513 0 .7.053.887.154.188.1.335.247.436.435.1.188.154.374.154.888v.732c0 .514-.054.7-.154.888-.1.188-.248.335-.436.435-.187.1-.374.154-.887.154H45.714c-.514 0-.7-.053-.888-.154-.188-.1-.335-.247-.435-.435-.1-.188-.154-.374-.154-.888v-.732c0-.514.053-.7.154-.888.1-.188.247-.335.435-.435.188-.1.374-.154.888-.154z" mask="url(#j9kawamn9c)" opacity=".3"/>
                    <path fill="#8795A2" fill-opacity=".401" d="M45.714 97.229h35.753c.514 0 .7.053.888.154.187.1.335.247.435.435.1.188.154.374.154.888v.732c0 .514-.053.7-.154.888-.1.188-.248.335-.435.435-.188.1-.374.154-.888.154H45.714c-.514 0-.7-.053-.888-.154-.188-.1-.335-.247-.435-.435-.1-.188-.154-.374-.154-.888v-.732c0-.514.053-.7.154-.888.1-.188.247-.335.435-.435.188-.1.374-.154.888-.154z" mask="url(#j9kawamn9c)" opacity=".4"/>
                </g>
                <g transform="translate(-650 -371) translate(660 377) translate(131.194)">
                    <mask id="krclq5vx1f" fill="#fff">
                        <use xlink:href="#hmf8rtiy7d"/>
                    </mask>
                    <g>
                        <use fill="#000" filter="url(#exlhcdz37e)" xlink:href="#hmf8rtiy7d"/>
                        <use fill="#3362FA" xlink:href="#hmf8rtiy7d"/>
                    </g>
                    <circle cx="16.006" cy="14.4" r="6.4" stroke="#FFF" stroke-width=".8" mask="url(#krclq5vx1f)" opacity=".5"/>
                    <path stroke="#FFF" stroke-linecap="round" stroke-width="1.6" d="M10.791 10.69c-.746 1.046-1.185 2.327-1.185 3.71 0 3.535 2.866 6.4 6.4 6.4 3.535 0 6.4-2.865 6.4-6.4 0-.511-.06-1.009-.173-1.485" mask="url(#krclq5vx1f)"/>
                </g>
            </g>
        </g>
    </g>
</svg>
