<svg xmlns="http://www.w3.org/2000/svg" xmlns:xlink="http://www.w3.org/1999/xlink" width="91" height="87" viewBox="0 0 91 87">
    <defs>
        <path id="e4krphtf8a" d="M5.128 0h80.744c1.783 0 2.43.186 3.082.534.652.349 1.163.86 1.512 1.512.348.652.534 1.299.534 3.082v76.744c0 1.783-.186 2.43-.534 3.082-.349.652-.86 1.163-1.512 1.512-.652.348-1.299.534-3.082.534H5.128c-1.783 0-2.43-.186-3.082-.534-.652-.349-1.163-.86-1.512-1.512C.186 84.302 0 83.655 0 81.872V5.128c0-1.783.186-2.43.534-3.082.349-.652.86-1.163 1.512-1.512C2.698.186 3.345 0 5.128 0z"/>
    </defs>
    <g fill="none" fill-rule="evenodd">
        <g>
            <g>
                <g transform="translate(-320 -241) translate(310 231) translate(10 10)">
                    <mask id="g1d1m7a45b" fill="#fff">
                        <use xlink:href="#e4krphtf8a"/>
                    </mask>
                    <use fill="#F7F8FC" xlink:href="#e4krphtf8a"/>
                    <path fill="#D2D8EE" fill-rule="nonzero" d="M55.14 48.524V60.08h4.26v-4.988c-.191-2.778-1.802-5.26-4.26-6.568zM45.2 26c-4.705 0-8.52 3.815-8.52 8.52s3.815 8.52 8.52 8.52 8.52-3.815 8.52-8.52c-.005-4.703-3.817-8.515-8.52-8.52zM31 55.092v4.988h4.26V48.524c-2.458 1.308-4.069 3.79-4.26 6.568zm7.1-7.966V60.08h14.2V47.126c-4.587-1.661-9.613-1.661-14.2 0zm11.36 2.295v4.278c.039.243-.072.486-.28.618-.208.131-.475.126-.678-.013L45.2 52.98l-3.302 1.324c-.203.139-.47.144-.678.013-.208-.132-.318-.375-.28-.618v-4.278c-.038-.243.072-.486.28-.618.208-.131.475-.126.678.013L45.2 50.14l3.302-1.324c.203-.14.47-.144.678-.013.208.132.318.375.28.618z" mask="url(#g1d1m7a45b)"/>
                </g>
            </g>
        </g>
    </g>
</svg>
