<svg xmlns="http://www.w3.org/2000/svg" width="13" height="13" viewBox="0 0 13 13">
    <g fill="none" fill-rule="evenodd">
        <g fill="#333" fill-rule="nonzero">
            <g>
                <path d="M27.531 153.147c-.247-1.271-1.36-2.189-2.656-2.189-1.295 0-2.408.918-2.656 2.189-1.298.114-2.275 1.23-2.216 2.531.058 1.302 1.132 2.325 2.435 2.322h4.875c1.302.003 2.376-1.02 2.435-2.322.058-1.301-.92-2.417-2.217-2.531zm5.47-4.974l-2.258-.916L29.84 145l-2.257.903-2.257-.903-.902 2.257-2.257.916.879 2.185c.559-.314 1.188-.48 1.83-.483.017 0 .035.004.053.004.237-1.188 1.234-2.075 2.442-2.17 1.207-.096 2.332.622 2.752 1.759.421 1.136.036 2.413-.943 3.127.59.366 1.058.902 1.34 1.537l.223-.556L33 152.66l-.903-2.243.903-2.244z" transform="translate(-382 -273) translate(362 128)"/>
            </g>
        </g>
    </g>
</svg>
