<svg xmlns="http://www.w3.org/2000/svg" width="14" height="14" viewBox="0 0 14 14">
    <g fill="none" fill-rule="evenodd">
        <g>
            <g transform="translate(-1137 -86) translate(1137 86)">
                <circle cx="7" cy="7" r="7" fill="#E34949"/>
                <path fill="#FFF" fill-rule="nonzero" d="M10.182 7.733c0 .108-.066.206-.166.247-.1.042-.215.019-.292-.058l-.677-.676-1.88 1.611-1.512-1.513-1.238.928c-.166.124-.4.09-.524-.075-.124-.165-.09-.4.075-.523l1.757-1.318 1.482 1.482 1.31-1.123-.53-.53c-.077-.077-.1-.192-.059-.292.042-.1.14-.166.248-.166h2.006v2.006z"/>
            </g>
        </g>
    </g>
</svg>
