<svg xmlns="http://www.w3.org/2000/svg" width="12" height="15" viewBox="0 0 12 15">
    <g fill="none" fill-rule="evenodd">
        <g fill="#3362FA" fill-rule="nonzero">
            <g>
                <g>
                    <path d="M6 7.2c1.988 0 3.6-1.612 3.6-3.6S7.988 0 6 0 2.4 1.612 2.4 3.6C2.402 5.587 4.013 7.198 6 7.2zM3 8.927c-1.79.674-3 1.928-3 3.365V14.4h5.4l-2.4-3V8.927zm4.395.114L6 9.6l-1.395-.56c-.086-.058-.199-.06-.287-.005-.088.056-.134.158-.118.261v1.808c-.016.103.03.205.118.26.088.056.201.054.287-.005L6 10.8l1.395.56c.086.058.199.06.287.005.088-.056.134-.158.118-.261V9.296c.016-.103-.03-.205-.118-.26-.088-.056-.201-.054-.287.005zM6 11.994c-.331 0-.6.27-.6.6 0 .332.269.6.6.6.331 0 .6-.268.6-.6 0-.159-.063-.311-.176-.424-.112-.112-.265-.176-.424-.176zm3-3.067V11.4l-2.4 3H12v-2.108c0-1.437-1.21-2.691-3-3.365z" transform="translate(-81 -275) translate(20 250) translate(61 25)"/>
                </g>
            </g>
        </g>
    </g>
</svg>
