<svg xmlns="http://www.w3.org/2000/svg" width="20" height="20" viewBox="0 0 20 20">
    <g fill="none" fill-rule="evenodd">
        <g fill="#FFF">
            <g transform="translate(-521 -21) translate(521 21)">
                <circle cx="10" cy="10" r="10" fill-opacity=".29" opacity=".3"/>
                <path fill-rule="nonzero" d="M8.909 10.364H6.727c-.193 0-.378.076-.514.213-.136.136-.213.321-.213.514v2.182c0 .193.077.378.213.514s.321.213.514.213H8.91c.193 0 .378-.077.514-.213.137-.136.213-.321.213-.514V11.09c0-.193-.076-.378-.213-.514-.136-.137-.321-.213-.514-.213zm0-4.364H6.727c-.193 0-.378.077-.514.213S6 6.534 6 6.727V8.91c0 .193.077.378.213.514.136.137.321.213.514.213H8.91c.193 0 .378-.076.514-.213.137-.136.213-.321.213-.514V6.727c0-.193-.076-.378-.213-.514C9.287 6.077 9.102 6 8.91 6zm4.364 4.364H11.09c-.193 0-.378.076-.514.213-.137.136-.213.321-.213.514v2.182c0 .193.076.378.213.514.136.136.321.213.514.213h2.182c.193 0 .378-.077.514-.213s.213-.321.213-.514V11.09c0-.193-.077-.378-.213-.514-.136-.137-.321-.213-.514-.213zm0-4.364H11.09c-.193 0-.378.077-.514.213-.137.136-.213.321-.213.514V8.91c0 .193.076.378.213.514.136.137.321.213.514.213h2.182c.193 0 .378-.076.514-.213.136-.136.213-.321.213-.514V6.727c0-.193-.077-.378-.213-.514S13.466 6 13.273 6z" opacity=".5"/>
            </g>
        </g>
    </g>
</svg>
