<svg xmlns="http://www.w3.org/2000/svg" xmlns:xlink="http://www.w3.org/1999/xlink" width="36" height="36" viewBox="0 0 36 36">
    <defs>
        <filter id="753w8kjiib" width="214%" height="200%" x="-57%" y="-50%" filterUnits="objectBoundingBox">
            <feOffset in="SourceAlpha" result="shadowOffsetOuter1"/>
            <feGaussianBlur in="shadowOffsetOuter1" result="shadowBlurOuter1" stdDeviation="3.5"/>
            <feColorMatrix in="shadowBlurOuter1" result="shadowMatrixOuter1" values="0 0 0 0 0 0 0 0 0 0 0 0 0 0 0 0 0 0 0.0552995588 0"/>
            <feMerge>
                <feMergeNode in="shadowMatrixOuter1"/>
                <feMergeNode in="SourceGraphic"/>
            </feMerge>
        </filter>
        <circle id="f3t4syu0ia" cx="18" cy="18" r="18"/>
    </defs>
    <g fill="none" fill-rule="evenodd">
        <g>
            <g>
                <g>
                    <g>
                        <g>
                            <g transform="translate(-382 -373) translate(362 83) translate(20 180) translate(0 86) translate(0 24)">
                                <mask id="y47889r07c" fill="#fff">
                                    <use xlink:href="#f3t4syu0ia"/>
                                </mask>
                                <use fill="#3362FA" fill-opacity=".084" xlink:href="#f3t4syu0ia"/>
                                <g filter="url(#753w8kjiib)" mask="url(#y47889r07c)">
                                    <g transform="translate(6.158 11.842)">
                                        <rect width="23.684" height="27" fill="#FFF" rx="2"/>
                                        <rect width="2.842" height="1" x="1.895" y="1.895" fill="#333" opacity=".3" rx=".5"/>
                                        <rect width="2.842" height="1" x="1.895" y="7.579" fill="#333" opacity=".3" rx=".5"/>
                                        <rect width="17.526" height="1" x="1.895" y="3.789" fill="#333" opacity=".098" rx=".5"/>
                                        <rect width="17.526" height="1" x="1.895" y="9.474" fill="#333" opacity=".098" rx=".5"/>
                                        <rect width="2.842" height="1" x="1.895" y="13.263" fill="#333" opacity=".3" rx=".5"/>
                                        <rect width="17.526" height="1" x="1.895" y="15.158" fill="#333" opacity=".098" rx=".5"/>
                                        <rect width="2.842" height="1" x="1.895" y="18.947" fill="#333" opacity=".3" rx=".5"/>
                                        <rect width="17.526" height="1" x="1.895" y="20.842" fill="#333" opacity=".098" rx=".5"/>
                                    </g>
                                </g>
                            </g>
                            <g transform="translate(-382 -373) translate(362 83) translate(20 180) translate(0 86) translate(0 24) translate(6.158 1.421)">
                                <rect width="23.684" height="9" fill="#3362FA" rx="2"/>
                                <rect width="2.842" height="1" x="1.895" y="2.842" fill="#FFF" rx=".5"/>
                                <rect width="17.526" height="1" x="1.895" y="4.737" fill="#FFF" rx=".5"/>
                            </g>
                        </g>
                    </g>
                </g>
            </g>
        </g>
    </g>
</svg>
