<svg xmlns="http://www.w3.org/2000/svg" xmlns:xlink="http://www.w3.org/1999/xlink" width="112" height="117" viewBox="0 0 112 117">
    <defs>
        <filter id="tmpdgb8cab" width="118.8%" height="112.1%" x="-9.4%" y="-6.1%" filterUnits="objectBoundingBox">
            <feOffset dy="1" in="SourceAlpha" result="shadowOffsetOuter1"/>
            <feGaussianBlur in="shadowOffsetOuter1" result="shadowBlurOuter1" stdDeviation="1"/>
            <feColorMatrix in="shadowBlurOuter1" result="shadowMatrixOuter1" values="0 0 0 0 0 0 0 0 0 0 0 0 0 0 0 0 0 0 0.0286822552 0"/>
            <feMerge>
                <feMergeNode in="shadowMatrixOuter1"/>
                <feMergeNode in="SourceGraphic"/>
            </feMerge>
        </filter>
        <circle id="qsdtmgag0a" cx="56" cy="55.5" r="55.5"/>
    </defs>
    <g fill="none" fill-rule="evenodd">
        <g>
            <g>
                <g>
                    <g transform="translate(-750 -506) translate(650 449) translate(100 57) translate(0 5.613)">
                        <mask id="ocj1srm2gc" fill="#fff">
                            <use xlink:href="#qsdtmgag0a"/>
                        </mask>
                        <use fill="#F7F8FC" xlink:href="#qsdtmgag0a"/>
                        <g filter="url(#tmpdgb8cab)" mask="url(#ocj1srm2gc)">
                            <g>
                                <path fill="#FFF" d="M4.168.194h60.309c1.337 0 1.822.139 2.31.4.49.262.873.645 1.135 1.134.261.49.4.974.4 2.311v98.309c0 1.337-.139 1.822-.4 2.31-.262.49-.645.873-1.134 1.135-.489.261-.974.4-2.311.4H4.168c-1.337 0-1.822-.139-2.31-.4-.49-.262-.873-.645-1.135-1.134-.261-.49-.4-.974-.4-2.311V4.039c0-1.337.139-1.822.4-2.31.262-.49.645-.873 1.134-1.135.49-.261.974-.4 2.311-.4z" transform="translate(21.677 16.194)"/>
                                <path fill="#EDEFF3" d="M49.605 7.194H60.04c.445 0 .607.046.77.133.163.087.29.215.378.378.087.163.134.325.134.77v1.437c0 .445-.047.607-.134.77-.087.163-.215.29-.378.378-.163.087-.325.134-.77.134H49.605c-.446 0-.608-.047-.77-.134-.164-.087-.292-.215-.379-.378-.087-.163-.133-.325-.133-.77V8.475c0-.445.046-.607.133-.77.087-.163.215-.29.378-.378.163-.087.325-.133.77-.133zM49.605 18.194H60.04c.445 0 .607.046.77.133.163.087.29.215.378.378.087.163.134.325.134.77v1.437c0 .445-.047.607-.134.77-.087.163-.215.29-.378.378-.163.087-.325.134-.77.134H49.605c-.446 0-.608-.047-.77-.134-.164-.087-.292-.215-.379-.378-.087-.163-.133-.325-.133-.77v-1.437c0-.445.046-.607.133-.77.087-.163.215-.29.378-.378.163-.087.325-.133.77-.133zM9.605 7.194H34.04c.445 0 .607.046.77.133.163.087.29.215.378.378.087.163.134.325.134.77v1.437c0 .445-.047.607-.134.77-.087.163-.215.29-.378.378-.163.087-.325.134-.77.134H9.605c-.446 0-.608-.047-.77-.134-.164-.087-.292-.215-.379-.378-.087-.163-.133-.325-.133-.77V8.475c0-.445.046-.607.133-.77.087-.163.215-.29.378-.378.163-.087.325-.133.77-.133zM9.605 18.194H34.04c.445 0 .607.046.77.133.163.087.29.215.378.378.087.163.134.325.134.77v1.437c0 .445-.047.607-.134.77-.087.163-.215.29-.378.378-.163.087-.325.134-.77.134H9.605c-.446 0-.608-.047-.77-.134-.164-.087-.292-.215-.379-.378-.087-.163-.133-.325-.133-.77v-1.437c0-.445.046-.607.133-.77.087-.163.215-.29.378-.378.163-.087.325-.133.77-.133zM49.605 29.194H60.04c.445 0 .607.046.77.133.163.087.29.215.378.378.087.163.134.325.134.77v1.437c0 .445-.047.607-.134.77-.087.163-.215.29-.378.378-.163.087-.325.134-.77.134H49.605c-.446 0-.608-.047-.77-.134-.164-.087-.292-.215-.379-.378-.087-.163-.133-.325-.133-.77v-1.437c0-.445.046-.607.133-.77.087-.163.215-.29.378-.378.163-.087.325-.133.77-.133zM9.605 29.194H34.04c.445 0 .607.046.77.133.163.087.29.215.378.378.087.163.134.325.134.77v1.437c0 .445-.047.607-.134.77-.087.163-.215.29-.378.378-.163.087-.325.134-.77.134H9.605c-.446 0-.608-.047-.77-.134-.164-.087-.292-.215-.379-.378-.087-.163-.133-.325-.133-.77v-1.437c0-.445.046-.607.133-.77.087-.163.215-.29.378-.378.163-.087.325-.133.77-.133zM49.605 40.194H60.04c.445 0 .607.046.77.133.163.087.29.215.378.378.087.163.134.325.134.77v1.437c0 .445-.047.607-.134.77-.087.163-.215.29-.378.378-.163.087-.325.134-.77.134H49.605c-.446 0-.608-.047-.77-.134-.164-.087-.292-.215-.379-.378-.087-.163-.133-.325-.133-.77v-1.437c0-.445.046-.607.133-.77.087-.163.215-.29.378-.378.163-.087.325-.133.77-.133zM9.605 40.194H34.04c.445 0 .607.046.77.133.163.087.29.215.378.378.087.163.134.325.134.77v1.437c0 .445-.047.607-.134.77-.087.163-.215.29-.378.378-.163.087-.325.134-.77.134H9.605c-.446 0-.608-.047-.77-.134-.164-.087-.292-.215-.379-.378-.087-.163-.133-.325-.133-.77v-1.437c0-.445.046-.607.133-.77.087-.163.215-.29.378-.378.163-.087.325-.133.77-.133zM49.605 51.194H60.04c.445 0 .607.046.77.133.163.087.29.215.378.378.087.163.134.325.134.77v1.437c0 .445-.047.607-.134.77-.087.163-.215.29-.378.378-.163.087-.325.134-.77.134H49.605c-.446 0-.608-.047-.77-.134-.164-.087-.292-.215-.379-.378-.087-.163-.133-.325-.133-.77v-1.437c0-.445.046-.607.133-.77.087-.163.215-.29.378-.378.163-.087.325-.133.77-.133zM9.605 51.194H34.04c.445 0 .607.046.77.133.163.087.29.215.378.378.087.163.134.325.134.77v1.437c0 .445-.047.607-.134.77-.087.163-.215.29-.378.378-.163.087-.325.134-.77.134H9.605c-.446 0-.608-.047-.77-.134-.164-.087-.292-.215-.379-.378-.087-.163-.133-.325-.133-.77v-1.437c0-.445.046-.607.133-.77.087-.163.215-.29.378-.378.163-.087.325-.133.77-.133z" transform="translate(21.677 16.194)"/>
                                <path fill="#333" d="M49.605 62.194H60.04c.445 0 .607.046.77.133.163.087.29.215.378.378.087.163.134.325.134.77v1.437c0 .445-.047.607-.134.77-.087.163-.215.29-.378.378-.163.087-.325.134-.77.134H49.605c-.446 0-.608-.047-.77-.134-.164-.087-.292-.215-.379-.378-.087-.163-.133-.325-.133-.77v-1.437c0-.445.046-.607.133-.77.087-.163.215-.29.378-.378.163-.087.325-.133.77-.133zM9.605 62.194H34.04c.445 0 .607.046.77.133.163.087.29.215.378.378.087.163.134.325.134.77v1.437c0 .445-.047.607-.134.77-.087.163-.215.29-.378.378-.163.087-.325.134-.77.134H9.605c-.446 0-.608-.047-.77-.134-.164-.087-.292-.215-.379-.378-.087-.163-.133-.325-.133-.77v-1.437c0-.445.046-.607.133-.77.087-.163.215-.29.378-.378.163-.087.325-.133.77-.133z" transform="translate(21.677 16.194)"/>
                            </g>
                        </g>
                    </g>
                    <g>
                        <path fill="#3362FA" d="M3.846 0h60.308c1.337 0 1.822.14 2.311.4.49.262.873.646 1.134 1.135.262.489.401.974.401 2.31v10.31c0 1.336-.14 1.821-.4 2.31-.262.49-.646.873-1.135 1.134-.489.262-.974.401-2.31.401H3.844c-1.336 0-1.821-.14-2.31-.4-.49-.262-.873-.646-1.134-1.135-.262-.489-.401-.974-.401-2.31V3.844c0-1.336.14-1.821.4-2.31.262-.49.646-.873 1.135-1.134C2.024.139 2.509 0 3.845 0z" transform="translate(-750 -506) translate(650 449) translate(100 57) translate(22)"/>
                        <path fill="#FFF" d="M49.282 7h10.436c.446 0 .607.046.77.134.163.087.291.215.378.378.088.163.134.324.134.77v1.436c0 .446-.046.607-.134.77-.087.163-.215.291-.378.378-.163.088-.324.134-.77.134H49.282c-.446 0-.607-.046-.77-.134-.163-.087-.291-.215-.378-.378-.088-.163-.134-.324-.134-.77V8.282c0-.446.046-.607.134-.77.087-.163.215-.291.378-.378.163-.088.324-.134.77-.134zM9.282 7h24.436c.446 0 .607.046.77.134.163.087.291.215.378.378.088.163.134.324.134.77v1.436c0 .446-.046.607-.134.77-.087.163-.215.291-.378.378-.163.088-.324.134-.77.134H9.282c-.446 0-.607-.046-.77-.134-.163-.087-.291-.215-.378-.378-.088-.163-.134-.324-.134-.77V8.282c0-.446.046-.607.134-.77.087-.163.215-.291.378-.378.163-.088.324-.134.77-.134z" transform="translate(-750 -506) translate(650 449) translate(100 57) translate(22)"/>
                    </g>
                </g>
            </g>
        </g>
    </g>
</svg>
