<svg xmlns="http://www.w3.org/2000/svg" width="215" height="146" fill="none" viewBox="0 0 215 146">
    <g filter="url(#filter0_d)">
        <rect width="187.81" height="33.264" x="12.949" y="18.838" fill="#fff" rx="4.066" transform="rotate(-3 12.949 18.838)"/>
    </g>
    <rect width="72.442" height="3.696" x="43.813" y="28.693" fill="#8795A2" fill-opacity=".401" opacity=".5" rx="1.109" transform="rotate(-3 43.813 28.693)"/>
    <rect width="57.658" height="3.696" x="44.162" y="35.337" fill="#8795A2" fill-opacity=".401" opacity=".3" rx="1.109" transform="rotate(-3 44.162 35.337)"/>
    <rect width="16.632" height="17.741" x="21.106" y="26.182" fill="#8795A2" fill-opacity=".401" opacity=".5" rx="1.478" transform="rotate(-3 21.106 26.182)"/>
    <rect width="32.472" height="12.461" x="161.194" y="22.7" fill="#2DEA00" fill-opacity=".098" rx="1.478" transform="rotate(-3 161.194 22.7)"/>
    <path fill="#0D1319" d="M171.734 30.327l.329-1.106 1.551-.082.442 1.066.487-.025-1.609-3.761-.479.025-1.207 3.908.486-.025zm.454-1.526l.523-1.762.03-.002.705 1.698-1.258.066zm3.902 1.358c.636-.034 1.035-.445 1.084-.958l-.442.023c-.066.319-.319.52-.663.538-.524.027-.884-.39-.919-1.056-.034-.652.288-1.097.805-1.124.389-.02.634.207.715.466l.442-.023c-.103-.536-.579-.871-1.186-.84-.779.041-1.263.683-1.217 1.559.045.861.572 1.457 1.381 1.415zm2.711-3.086l-.614.032-.036-.69-.442.024.036.689-.434.023.02.374.434-.023.094 1.798c.026.502.443.72.818.7.165-.008.268-.044.327-.07l-.111-.392c-.037.01-.096.028-.194.033-.194.01-.385-.04-.404-.414l-.088-1.678.614-.032-.02-.374zm.654 2.85l.441-.024-.15-2.876-.442.023.151 2.876zm.048-3.368c.173-.009.308-.151.299-.316-.008-.165-.158-.292-.33-.283-.172.009-.308.151-.299.316.009.165.158.292.33.283zm3.242.31l-.48.026-.674 2.333-.029.002-.915-2.25-.479.025 1.214 2.82.45-.023.913-2.932zm1.677 2.857c.585-.03.996-.345 1.108-.787l-.433-.097c-.097.305-.349.469-.695.487-.519.027-.894-.29-.947-.904l2.088-.11-.01-.187c-.056-1.07-.712-1.405-1.311-1.373-.779.04-1.264.682-1.218 1.566.047.884.587 1.448 1.418 1.405zm-.987-1.683c.006-.45.302-.865.807-.891.48-.025.806.318.831.805l-1.638.086z" opacity=".5"/>
    <g filter="url(#filter1_d)">
        <rect width="187.81" height="33.264" x="13.69" y="57.192" fill="#fff" rx="4.066"/>
    </g>
    <rect width="32.472" height="12.461" x="161.531" y="67.224" fill="#0077EA" fill-opacity=".098" rx="1.478"/>
    <path fill="#0D1319" d="M167.212 71.552h-.465v3.84h.465v-3.84zm1.153 2.107c0-.502.311-.787.735-.787.41 0 .66.268.66.72v1.8h.442v-1.83c0-.735-.392-1.088-.975-1.088-.435 0-.705.195-.84.488h-.037v-.45h-.428v2.88h.443v-1.733zm3.866 1.733h.465v-1.5h.84c.034 0 .065 0 .097-.002l.81 1.502h.54l-.868-1.586c.49-.167.718-.567.718-1.077 0-.678-.405-1.177-1.305-1.177h-1.297v3.84zm.465-1.92v-1.508h.817c.623 0 .863.304.863.765 0 .462-.24.743-.855.743h-.825zm3.866 1.98c.585 0 1.013-.293 1.148-.728l-.428-.12c-.112.3-.373.45-.72.45-.519 0-.877-.335-.898-.952h2.091v-.188c0-1.072-.638-1.44-1.238-1.44-.78 0-1.297.615-1.297 1.5s.51 1.478 1.342 1.478zm-.898-1.733c.03-.448.347-.847.853-.847.48 0 .788.36.788.847h-1.641zm4.869-1.207h-.48l-.795 2.295h-.03l-.795-2.295h-.48l1.065 2.88h.45l1.065-2.88zm.421 2.88h.443v-2.88h-.443v2.88zm.225-3.36c.173 0 .315-.135.315-.3 0-.165-.142-.3-.315-.3-.172 0-.315.135-.315.3 0 .165.143.3.315.3zm2.073 3.42c.585 0 1.013-.293 1.148-.728l-.428-.12c-.112.3-.373.45-.72.45-.519 0-.877-.335-.898-.952h2.091v-.188c0-1.072-.638-1.44-1.238-1.44-.78 0-1.297.615-1.297 1.5s.51 1.478 1.342 1.478zm-.898-1.733c.03-.448.347-.847.853-.847.48 0 .788.36.788.847h-1.641zm3.254 1.673h.435l.63-2.213h.045l.63 2.213h.435l.878-2.88h-.465l-.623 2.197h-.03l-.607-2.197h-.473l-.615 2.205h-.03l-.622-2.205h-.465l.877 2.88z" opacity=".5"/>
    <rect width="72.442" height="3.696" x="43.997" y="68.65" fill="#8795A2" fill-opacity=".401" opacity=".5" rx="1.109"/>
    <rect width="57.658" height="3.696" x="43.997" y="75.302" fill="#8795A2" fill-opacity=".401" opacity=".3" rx="1.109"/>
    <rect width="16.632" height="17.741" x="21.452" y="64.954" fill="#8795A2" fill-opacity=".401" opacity=".5" rx="1.478"/>
    <g filter="url(#filter2_d)">
        <rect width="187.81" height="33.264" x="13.69" y="95.736" fill="#fff" rx="4.066"/>
    </g>
    <rect width="32.472" height="12.461" x="161.531" y="105.768" fill="#EA0000" fill-opacity=".098" rx="1.478"/>
    <path fill="#0D1319" d="M169.852 110.096h-.465v3.84h.465v-3.84zm1.153 2.108c0-.503.311-.788.735-.788.41 0 .66.268.66.72v1.8h.442v-1.83c0-.735-.392-1.087-.975-1.087-.435 0-.705.195-.84.487h-.037v-.45h-.428v2.88h.443v-1.732zm3.331 1.8c.502 0 .765-.27.855-.458h.022v.39h.443v-1.897c0-.915-.698-1.02-1.065-1.02-.435 0-.93.15-1.155.675l.42.15c.097-.21.328-.435.75-.435.407 0 .607.215.607.585v.015c0 .213-.217.195-.742.262-.534.069-1.118.188-1.118.848 0 .562.435.885.983.885zm.067-.398c-.352 0-.607-.157-.607-.465 0-.337.307-.442.652-.487.188-.023.69-.075.765-.165v.405c0 .36-.285.712-.81.712zm3.068.39c.638 0 1.058-.39 1.133-.9h-.443c-.082.315-.345.503-.69.503-.525 0-.862-.435-.862-1.103 0-.652.345-1.08.862-1.08.39 0 .623.24.69.503h.443c-.075-.54-.533-.9-1.14-.9-.78 0-1.298.615-1.298 1.492 0 .863.495 1.485 1.305 1.485zm2.869-2.94h-.615v-.69h-.442v.69h-.435v.375h.435v1.8c0 .503.405.743.78.743.165 0 .27-.03.33-.053l-.09-.397c-.038.007-.098.022-.195.022-.195 0-.383-.06-.383-.435v-1.68h.615v-.375zm.504 2.88h.442v-2.88h-.442v2.88zm.225-3.36c.172 0 .315-.135.315-.3 0-.165-.143-.3-.315-.3-.173 0-.315.135-.315.3 0 .165.142.3.315.3zm3.22.48h-.48l-.795 2.295h-.03l-.795-2.295h-.48l1.065 2.88h.45l1.065-2.88zm1.526 2.94c.585 0 1.013-.292 1.148-.727l-.428-.12c-.112.3-.373.45-.72.45-.519 0-.877-.336-.898-.953h2.091v-.187c0-1.073-.638-1.44-1.238-1.44-.78 0-1.297.615-1.297 1.5s.51 1.477 1.342 1.477zm-.898-1.732c.03-.449.347-.848.853-.848.48 0 .788.36.788.848h-1.641z" opacity=".5"/>
    <rect width="72.442" height="3.696" x="43.997" y="107.194" fill="#8795A2" fill-opacity=".401" opacity=".5" rx="1.109"/>
    <rect width="57.658" height="3.696" x="43.997" y="113.846" fill="#8795A2" fill-opacity=".401" opacity=".3" rx="1.109"/>
    <rect width="16.632" height="17.741" x="21.452" y="103.498" fill="#8795A2" fill-opacity=".401" opacity=".5" rx="1.478"/>
    <path fill="#00C24C" fill-rule="evenodd" d="M198.321 2.533c2.616-1.083 5.626-.485 7.628 1.517 2.734 2.734 2.734 7.166 0 9.9-2.002 2.002-5.012 2.6-7.628 1.517C195.705 14.383 194 11.831 194 9c0-2.831 1.705-5.384 4.321-6.467zm2.183 9.012l3.855-4.499c.136-.158.177-.376.108-.573-.07-.197-.238-.341-.443-.38-.205-.038-.415.036-.551.194l-3.144 3.668-1.896-1.422c-.166-.125-.387-.152-.579-.07-.192.081-.326.26-.351.467-.025.207.063.412.23.537l2.771 2.078z" clip-rule="evenodd"/>
    <defs>
        <filter id="filter0_d" width="214.135" height="67.889" x=".528" y=".812" color-interpolation-filters="sRGB" filterUnits="userSpaceOnUse">
            <feFlood flood-opacity="0" result="BackgroundImageFix"/>
            <feColorMatrix in="SourceAlpha" values="0 0 0 0 0 0 0 0 0 0 0 0 0 0 0 0 0 0 127 0"/>
            <feOffset dy="4.224"/>
            <feGaussianBlur stdDeviation="6.336"/>
            <feColorMatrix values="0 0 0 0 0.0502641 0 0 0 0 0.0746531 0 0 0 0 0.0982224 0 0 0 0.0481316 0"/>
            <feBlend in2="BackgroundImageFix" result="effect1_dropShadow"/>
            <feBlend in="SourceGraphic" in2="effect1_dropShadow" result="shape"/>
        </filter>
        <filter id="filter1_d" width="213.154" height="58.608" x="1.018" y="48.744" color-interpolation-filters="sRGB" filterUnits="userSpaceOnUse">
            <feFlood flood-opacity="0" result="BackgroundImageFix"/>
            <feColorMatrix in="SourceAlpha" values="0 0 0 0 0 0 0 0 0 0 0 0 0 0 0 0 0 0 127 0"/>
            <feOffset dy="4.224"/>
            <feGaussianBlur stdDeviation="6.336"/>
            <feColorMatrix values="0 0 0 0 0.0502641 0 0 0 0 0.0746531 0 0 0 0 0.0982224 0 0 0 0.0481316 0"/>
            <feBlend in2="BackgroundImageFix" result="effect1_dropShadow"/>
            <feBlend in="SourceGraphic" in2="effect1_dropShadow" result="shape"/>
        </filter>
        <filter id="filter2_d" width="213.154" height="58.608" x="1.018" y="87.288" color-interpolation-filters="sRGB" filterUnits="userSpaceOnUse">
            <feFlood flood-opacity="0" result="BackgroundImageFix"/>
            <feColorMatrix in="SourceAlpha" values="0 0 0 0 0 0 0 0 0 0 0 0 0 0 0 0 0 0 127 0"/>
            <feOffset dy="4.224"/>
            <feGaussianBlur stdDeviation="6.336"/>
            <feColorMatrix values="0 0 0 0 0.0502641 0 0 0 0 0.0746531 0 0 0 0 0.0982224 0 0 0 0.0481316 0"/>
            <feBlend in2="BackgroundImageFix" result="effect1_dropShadow"/>
            <feBlend in="SourceGraphic" in2="effect1_dropShadow" result="shape"/>
        </filter>
    </defs>
</svg>
