<svg xmlns="http://www.w3.org/2000/svg" width="14" height="14" viewBox="0 0 14 14">
    <g fill="none" fill-rule="evenodd">
        <g fill="#FFF" fill-rule="nonzero">
            <g>
                <path d="M42.833 152.667h-2.916V151.5h1.75c.643-.002 1.164-.523 1.166-1.167v-1.166c-.002-.644-.523-1.165-1.166-1.167H37c-.644.002-1.165.523-1.167 1.167v1.166c.002.644.523 1.165 1.167 1.167h1.75v1.167h-7.583L30 158.5h14l-1.167-5.833zm-9.333 4.666c-.322 0-.583-.26-.583-.583 0-.322.26-.583.583-.583.322 0 .583.26.583.583 0 .322-.26.583-.583.583zm0-2.333c-.322 0-.583-.261-.583-.583 0-.323.26-.584.583-.584.322 0 .583.261.583.584 0 .322-.26.583-.583.583zm2.333 2.333c-.322 0-.583-.261-.583-.583 0-.322.261-.583.583-.583.322 0 .584.26.584.583 0 .322-.262.583-.584.583zm0-2.333c-.322 0-.583-.261-.583-.583 0-.323.261-.584.583-.584.322 0 .584.261.584.584 0 .322-.262.583-.584.583zm2.334 2.333c-.322 0-.584-.26-.584-.583 0-.322.262-.583.584-.583.322 0 .583.26.583.583 0 .322-.261.583-.583.583zm0-2.333c-.322 0-.584-.261-.584-.583 0-.323.262-.584.584-.584.322 0 .583.261.583.584 0 .322-.261.583-.583.583zM37 150.333v-1.166h4.667v1.166H37zm3.5 7c-.322 0-.583-.261-.583-.583 0-.322.26-.583.583-.583.322 0 .583.26.583.583 0 .322-.26.583-.583.583zm0-2.333c-.322 0-.583-.261-.583-.583 0-.323.26-.584.583-.584.322 0 .583.261.583.584 0 .322-.26.583-.583.583zM30 160.833c0 .645.522 1.167 1.167 1.167h11.666c.645 0 1.167-.522 1.167-1.167v-1.166H30v1.166z" transform="translate(-753 -148) translate(723)"/>
            </g>
        </g>
    </g>
</svg>
