<svg xmlns="http://www.w3.org/2000/svg" width="15" height="18" viewBox="0 0 15 18">
    <g fill="none" fill-rule="evenodd">
        <g fill="#01EA00" fill-rule="nonzero">
            <g>
                <g>
                    <path d="M6.75 2c-.199 0-.39.079-.53.22-.141.14-.22.331-.22.53V6.5H4.5V2.75c0-.414-.336-.75-.75-.75S3 2.336 3 2.75V6.5H1.5V2.75c0-.414-.336-.75-.75-.75S0 2.336 0 2.75v6C.001 9.992 1.008 10.999 2.25 11v7.5c0 .828.672 1.5 1.5 1.5s1.5-.672 1.5-1.5V11c1.242-.001 2.249-1.008 2.25-2.25v-6c0-.199-.079-.39-.22-.53C7.14 2.079 6.95 2 6.75 2zM9 8v6h3v4.5c0 .828.672 1.5 1.5 1.5s1.5-.672 1.5-1.5V2c-3.314 0-6 2.686-6 6z" transform="translate(-577 -749) translate(257) translate(320 747)"/>
                </g>
            </g>
        </g>
    </g>
</svg>
