<svg xmlns="http://www.w3.org/2000/svg" width="17" height="16" viewBox="0 0 17 16">
    <g fill="none" fill-rule="evenodd">
        <g fill="#3362FA" fill-rule="nonzero">
            <g>
                <g>
                    <path d="M0 17.52c0 .588.476 1.063 1.063 1.063.586 0 1.062-.475 1.062-1.062v-.354h12.75v.354c0 .587.476 1.062 1.063 1.062.586 0 1.062-.475 1.062-1.062v-2.48H0v2.48zM2.125 7.25c.002-.781.635-1.414 1.417-1.417h2.833c.781.003 1.414.636 1.417 1.417v.708h1.416V7.25c.003-.781.636-1.414 1.417-1.417h2.833c.782.003 1.415.636 1.417 1.417v.708h1.417V4.417c0-.783-.635-1.417-1.417-1.417H2.125C1.343 3 .708 3.634.708 4.417v3.541h1.417V7.25zm13.458 2.125H1.417C.634 9.375 0 10.009 0 10.792v2.833h17v-2.833c0-.783-.634-1.417-1.417-1.417z" transform="translate(-800 -750) translate(257) translate(543 747)"/>
                </g>
            </g>
        </g>
    </g>
</svg>
