<svg xmlns="http://www.w3.org/2000/svg" width="14" height="14" viewBox="0 0 14 14">
    <g fill="none" fill-rule="evenodd">
        <g fill="#3362FA" fill-rule="nonzero">
            <g>
                <g>
                    <g>
                        <path d="M3.448 3.493c-.164-.01-.324.053-.44.17L.17 6.5c.048.485.102.97.17 1.453l.302 2.165.009-.026c.046 1.158.96 2.093 2.115 2.166.602.045 1.195-.158 1.642-.563.447-.404.71-.974.724-1.577v-2.14c.003-.75.174-1.487.5-2.16L3.87 3.702c-.104-.127-.258-.203-.421-.21zm-.9-3.416C1.344.301.381 1.205.08 2.392c-.053.224-.08.454-.08.684 0 .63.022 1.26.056 1.89l2.128-2.128c.347-.348.825-.533 1.316-.51.492.022.95.25 1.265.627l1.393 1.672c.168-.5.255-1.024.258-1.55-.03-.947-.48-1.831-1.228-2.411C4.44.086 3.472-.13 2.548.077zm9.84 2.381c-.809-.492-1.795-.598-2.69-.287-.894.31-1.604 1.003-1.934 1.89-.166.5-.252 1.024-.253 1.551l1.855-1.137c.419-.257.927-.326 1.4-.19.472.136.865.465 1.083.906l1.334 2.697c.234-.585.456-1.175.658-1.772.073-.219.122-.445.143-.674.096-1.22-.528-2.386-1.596-2.984zm-1.946 2.948c-.157-.046-.327-.023-.466.063l-2.35 1.44c.094.743.02 1.497-.217 2.207l-.686 2.027c-.178.576-.113 1.2.181 1.727.294.526.791.909 1.375 1.059 1.119.3 2.284-.293 2.698-1.374v.027l.98-1.954c.22-.436.426-.878.626-1.322l-1.78-3.598c-.071-.148-.203-.258-.361-.302z" transform="translate(-299 -277) translate(20 250) translate(279 27)"/>
                    </g>
                </g>
            </g>
        </g>
    </g>
</svg>
