<svg xmlns="http://www.w3.org/2000/svg" width="10" height="10" viewBox="0 0 10 10">
    <g fill="none" fill-rule="evenodd">
        <g fill="#23A621" fill-rule="nonzero">
            <g>
                <g>
                    <g>
                        <path d="M251.09 21h-3.184c-.24 0-.469.094-.64.262l-5 4.926c-.355.355-.355.931 0 1.286l3.26 3.26c.355.355.93.355 1.286 0l4.926-5c.168-.171.262-.4.262-.64V21.91c0-.24-.096-.472-.266-.643-.17-.17-.402-.266-.643-.266zm-3.152 6.371l-.804.013-.013.804c-.002.144-.1.27-.24.307-.14.038-.287-.022-.362-.146l-.413-.69-.702.39c-.127.071-.284.05-.386-.053-.103-.102-.125-.26-.054-.386l.39-.703-.69-.413c-.123-.074-.183-.222-.146-.362.038-.14.163-.237.308-.24l.803-.013.013-.803c.003-.145.1-.27.24-.308.14-.037.288.023.362.147l.413.689.703-.39c.126-.07.284-.049.386.054.102.102.124.26.054.386l-.39.702.689.413c.124.075.184.222.146.362-.037.14-.163.238-.307.24zm1.562-3.038c-.46 0-.833-.373-.833-.833 0-.46.373-.833.833-.833.46 0 .833.373.833.833 0 .46-.373.833-.833.833z" transform="translate(-765 -178) translate(257) translate(266 22) translate(0 135)"/>
                    </g>
                </g>
            </g>
        </g>
    </g>
</svg>
