<svg xmlns="http://www.w3.org/2000/svg" width="14" height="14" viewBox="0 0 14 14">
    <g fill="none" fill-rule="evenodd">
        <g fill="#3362FA" fill-rule="nonzero">
            <g>
                <g>
                    <path d="M12.833 6.157V5.25c0-1.709-1.236-3.167-2.922-3.448.001-.018.006-.034.006-.052C9.914.785 9.132.003 8.167 0H5.833c-.965.003-1.747.785-1.75 1.75 0 .018.005.034.006.052-1.686.281-2.921 1.74-2.922 3.448v.907C.447 6.57.002 7.337 0 8.167v4.666C0 13.478.522 14 1.167 14c.644 0 1.166-.522 1.166-1.167v-1.166h9.334v1.166c0 .645.522 1.167 1.166 1.167.645 0 1.167-.522 1.167-1.167V8.167c-.002-.83-.447-1.597-1.167-2.01zm-7-4.99h2.334c.322 0 .583.26.583.583 0 .322-.261.583-.583.583H5.833c-.322 0-.583-.26-.583-.583 0-.322.261-.583.583-.583zM2.917 5.25c0-.966.784-1.749 1.75-1.75h4.666c.966.001 1.75.784 1.75 1.75v.583H2.917V5.25zm0 4.667c-.645 0-1.167-.523-1.167-1.167s.522-1.167 1.167-1.167c.644 0 1.166.523 1.166 1.167s-.522 1.167-1.166 1.167zm8.166 0c-.644 0-1.166-.523-1.166-1.167s.522-1.167 1.166-1.167c.645 0 1.167.523 1.167 1.167s-.522 1.167-1.167 1.167z" transform="translate(-162 -276) translate(20 250) translate(142 26)"/>
                </g>
            </g>
        </g>
    </g>
</svg>
