<svg xmlns="http://www.w3.org/2000/svg" xmlns:xlink="http://www.w3.org/1999/xlink" width="28" height="20" viewBox="0 0 28 20">
    <defs>
        <rect id="c5brsrl9ha" width="28" height="20" x="0" y="0" rx="2"/>
        <path id="xkgdjrw0rb" d="M0 1.99C0 .892.903 0 1.994 0c.371 0 .924.168 1.223.367l14.337 9.558c.615.41.509.742-.217.742H8l9.663 8.455c.554.485.404.878-.339.878H1.998C.894 20 0 19.102 0 18.01V1.99z"/>
    </defs>
    <g fill="none" fill-rule="evenodd">
        <use fill="#F5F7FD" xlink:href="#c5brsrl9ha"/>
        <mask id="rlr2aj49lc" fill="#fff">
            <use xlink:href="#xkgdjrw0rb"/>
        </mask>
        <use fill="#FFF" xlink:href="#xkgdjrw0rb"/>
        <path fill="#EE1B44" stroke="#0543A8" stroke-width="1.333" d="M1.994.667c.259 0 .645.116.854.255h0L15.579 9.41l-9.21.715 9.614 8.413-15.316.761V.667z" mask="url(#rlr2aj49lc)"/>
        <path fill="#FFF" d="M6.354 12.203l-.078 1.52 1.521-.077-1.13 1.02 1.13 1.021-1.52-.078.077 1.521L5.334 16l-1.021 1.13.078-1.52-1.521.077L4 14.667l-1.13-1.02 1.52.077-.077-1.521 1.02 1.13 1.02-1.13zm-.255-6.717l-.059 1.14 1.141-.058-.848.765.518.468c.384-.106.738-.25 1.051-.425-.31 1.129-1.344 1.957-2.57 1.957-1.228 0-2.261-.828-2.572-1.956.315.176.67.32 1.055.425l.518-.469-.847-.765 1.14.058-.058-1.14.765.847.766-.847z" mask="url(#rlr2aj49lc)"/>
    </g>
</svg>
