<?xml version="1.0" encoding="UTF-8"?>
<svg width="20px" height="20px" viewBox="0 0 20 20" version="1.1" xmlns="http://www.w3.org/2000/svg" xmlns:xlink="http://www.w3.org/1999/xlink">
    <title>Dashboard Icon- Unselected</title>
    <g id="Activities" stroke="none" stroke-width="1" fill="none" fill-rule="evenodd">
        <g id="Dashboard-Icon--Unselected" fill="#FFFFFF">
            <circle id="Oval" fill-opacity="0.29" cx="10" cy="10" r="10"></circle>
            <path d="M12.5454545,6 L7.45454545,6 C7.06877395,6 6.69880069,6.15323739 6.42601904,6.42601904 C6.15323739,6.69880069 6,7.06877395 6,7.45454545 L6,12.5454545 C6,12.9312261 6.15323739,13.3011993 6.42601904,13.573981 C6.69880069,13.8467626 7.06877395,14 7.45454545,14 L12.5454545,14 C12.9312264,14 13.3012002,13.8467639 13.573982,13.573982 C13.8467639,13.3012002 14,12.9312264 14,12.5454545 L14,7.45454545 C14,7.06877365 13.8467639,6.69879984 13.573982,6.42601798 C13.3012002,6.15323612 12.9312264,6 12.5454545,6 L12.5454545,6 Z M8.54545455,12.4220509 C8.54543647,12.6902917 8.32798991,12.90776 8.05974909,12.90776 L7.57666182,12.90776 C7.30841169,12.90776 7.09094925,12.690301 7.09090909,12.4220509 L7.09090909,10.4856873 C7.09095929,10.2174448 7.30841938,10 7.57666182,10 L8.05974909,10 C8.32798932,10 8.54543647,10.2174652 8.54545455,10.4857055 L8.54545455,12.4220509 Z M10.7272727,12.4220509 C10.7272547,12.6902917 10.5098081,12.90776 10.2415673,12.90776 L9.75848,12.90776 C9.49022987,12.90776 9.27276743,12.690301 9.27272727,12.4220509 L9.27272727,7.57527273 C9.27272727,7.44644892 9.32391252,7.32290347 9.41500915,7.23181572 C9.50610577,7.14072796 9.62965619,7.08956727 9.75848,7.08956727 L10.2415673,7.08956727 C10.3703861,7.08956727 10.4939306,7.14073202 10.5850193,7.23182072 C10.676108,7.32290941 10.7272727,7.44645386 10.7272727,7.57527273 L10.7272727,12.4220509 Z M12.9090909,12.4220509 C12.9090728,12.6902917 12.6916263,12.90776 12.4233855,12.90776 L11.9402982,12.90776 C11.6720481,12.90776 11.4545856,12.690301 11.4545455,12.4220509 L11.4545455,9.02981818 C11.4545455,8.90099437 11.5057307,8.77744893 11.5968273,8.68636117 C11.6879239,8.59527342 11.8114744,8.54411273 11.9402982,8.54411273 L12.4233855,8.54411273 C12.5522043,8.54411273 12.6757488,8.59527747 12.7668375,8.68636617 C12.8579262,8.77745487 12.9090909,8.90099931 12.9090909,9.02981818 L12.9090909,12.4220509 Z" id="poll" fill-rule="nonzero" opacity="0.5"></path>
        </g>
    </g>
</svg>