<?xml version="1.0" encoding="UTF-8"?>
<svg width="20px" height="20px" viewBox="0 0 20 20" version="1.1" xmlns="http://www.w3.org/2000/svg" xmlns:xlink="http://www.w3.org/1999/xlink">
    <title>Master Data Icon Unselected</title>
    <g id="Activities" stroke="none" stroke-width="1" fill="none" fill-rule="evenodd">
        <g id="Master-Data-Icon-Unselected" fill="#FFFFFF">
            <circle id="Oval" fill-opacity="0.29" cx="10" cy="10" r="10"></circle>
            <path d="M13.7696016,11.9506896 L12.8078703,11.5380619 L10.2248535,12.4615473 L10.0003918,12.5417927 L9.77593004,12.4615473 L7.1929099,11.5380619 L6.23117865,11.9506896 C6.08696806,12.012583 5.99533681,12.1564359 6.0002088,12.3132917 C6.0050808,12.4701475 6.10546304,12.6080364 6.25323679,12.6608607 L10.0003951,14.0005506 L13.7476468,12.6608607 C13.8954107,12.6080138 13.995771,12.4701113 14.0006201,12.3132564 C14.0054693,12.1564015 13.913819,12.0125631 13.7696016,11.9506896 Z M6.25323013,8.3272363 L10.0003885,9.66692627 L13.7476401,8.3272363 C13.8954057,8.27439307 13.9957694,8.1364928 14.0006223,7.97963774 C14.0054751,7.82278267 13.9138279,7.67894191 13.7696116,7.61706527 L10.0003885,6 L6.23117198,7.61705193 C6.08695229,7.67894096 5.99531307,7.82279861 6.00018518,7.97966107 C6.00505729,8.13652353 6.10544762,8.27441679 6.25323013,8.3272363 Z M13.7696016,9.78387746 L12.8078703,9.37124974 L10.2248535,10.2947351 L10.0003918,10.3749805 L9.77593004,10.2947351 L7.1929099,9.37124974 L6.23117865,9.78387746 C6.08696806,9.84577082 5.99533681,9.98962373 6.0002088,10.1464795 C6.0050808,10.3033353 6.10546304,10.4412242 6.25323679,10.4940485 L10.0003951,11.8337385 L13.7476468,10.4940485 C13.8954107,10.4412016 13.995771,10.3032992 14.0006201,10.1464442 C14.0054693,9.98958931 13.913819,9.84575088 13.7696016,9.78387746 Z" id="stack-copy" fill-rule="nonzero" opacity="0.5"></path>
        </g>
    </g>
</svg>