<?xml version="1.0" encoding="UTF-8"?>
<svg width="20px" height="20px" viewBox="0 0 20 20" version="1.1" xmlns="http://www.w3.org/2000/svg" xmlns:xlink="http://www.w3.org/1999/xlink">
    <title>Proposal Icon</title>
    <defs>
        <linearGradient x1="50%" y1="0%" x2="50%" y2="620.84732%" id="linearGradient-1">
            <stop stop-color="#0077EA" offset="0%"></stop>
            <stop stop-color="#0D1319" offset="100%"></stop>
        </linearGradient>
    </defs>
    <g id="Activities" stroke="none" stroke-width="1" fill="none" fill-rule="evenodd">
        <g id="Proposal-Icon">
            <circle id="Oval" fill="#FFFFFF" cx="10" cy="10" r="10"></circle>
            <path d="M13,7.33333333 L11.6666667,7.33333333 C11.6666667,6.59695367 11.069713,6 10.3333333,6 C9.59695367,6 9,6.59695367 9,7.33333333 L7.66666667,7.33333333 C7.29892287,7.33440794 7.0010746,7.6322562 7,8 L7,13.3333333 C7.00108189,13.7010741 7.2989259,13.9989181 7.66666667,14 L13,14 C13.3677408,13.9989181 13.6655848,13.7010741 13.6666667,13.3333333 L13.6666667,8 C13.6655921,7.6322562 13.3677438,7.33440794 13,7.33333333 L13,7.33333333 Z M10.3333333,6.66666667 C10.7015232,6.66666667 11,6.9651435 11,7.33333333 C11,7.70152317 10.7015232,8 10.3333333,8 C9.9651435,8 9.66666667,7.70152317 9.66666667,7.33333333 C9.66666667,6.9651435 9.9651435,6.66666667 10.3333333,6.66666667 Z M12,12.3333333 L8.66666667,12.3333333 C8.48257175,12.3333333 8.33333333,12.1840949 8.33333333,12 C8.33333333,11.8159051 8.48257175,11.6666667 8.66666667,11.6666667 L12,11.6666667 C12.1840949,11.6666667 12.3333333,11.8159051 12.3333333,12 C12.3333333,12.1840949 12.1840949,12.3333333 12,12.3333333 Z M12,10.3333333 L8.66666667,10.3333333 C8.48257175,10.3333333 8.33333333,10.1840949 8.33333333,10 C8.33333333,9.81590508 8.48257175,9.66666667 8.66666667,9.66666667 L12,9.66666667 C12.1840949,9.66666667 12.3333333,9.81590508 12.3333333,10 C12.3333333,10.1840949 12.1840949,10.3333333 12,10.3333333 Z" id="clipboard-content" fill="url(#linearGradient-1)" fill-rule="nonzero"></path>
        </g>
    </g>
</svg>