<?xml version="1.0" encoding="UTF-8"?>
<svg width="20px" height="20px" viewBox="0 0 20 20" version="1.1" xmlns="http://www.w3.org/2000/svg" xmlns:xlink="http://www.w3.org/1999/xlink">
    <title>Resources Icon</title>
    <defs>
        <linearGradient x1="50%" y1="0%" x2="50%" y2="620.84732%" id="linearGradient-1">
            <stop stop-color="#0077EA" offset="0%"></stop>
            <stop stop-color="#0D1319" offset="100%"></stop>
        </linearGradient>
    </defs>
    <g id="Activities" stroke="none" stroke-width="1" fill="none" fill-rule="evenodd">
        <g id="Resources-Icon">
            <circle id="Oval" fill="#FFFFFF" cx="10" cy="10" r="10"></circle>
            <path d="M8.909,10.3636364 L6.72736,10.3636364 C6.53445095,10.3636364 6.34944185,10.4402636 6.21303455,10.5766709 C6.07662725,10.7130782 6,10.8980873 6,11.0909964 L6,13.27264 C6,13.465549 6.07662725,13.6505582 6.21303455,13.7869654 C6.34944185,13.9233727 6.53445095,14 6.72736,14 L8.909,14 C9.10190938,14 9.28691886,13.9233729 9.42332673,13.7869657 C9.55973461,13.6505585 9.63636364,13.4655494 9.63636364,13.27264 L9.63636364,11.0909964 C9.63636364,10.898087 9.55973461,10.7130779 9.42332673,10.5766707 C9.28691886,10.4402635 9.10190938,10.3636364 8.909,10.3636364 Z M8.909,6 L6.72736,6 C6.53445095,6 6.34944185,6.07662725 6.21303455,6.21303455 C6.07662725,6.34944185 6,6.53445095 6,6.72736 L6,8.90900364 C6,9.10191269 6.07662725,9.28692179 6.21303455,9.42332909 C6.34944185,9.55973638 6.53445095,9.63636364 6.72736,9.63636364 L8.909,9.63636364 C9.10190938,9.63636364 9.28691886,9.5597365 9.42332673,9.42332931 C9.55973461,9.28692211 9.63636364,9.10191302 9.63636364,8.90900364 L9.63636364,6.72736 C9.63636364,6.53445062 9.55973461,6.34944152 9.42332673,6.21303433 C9.28691886,6.07662714 9.10190938,6 8.909,6 Z M13.2726364,10.3636364 L11.0909964,10.3636364 C10.8980873,10.3636364 10.7130782,10.4402636 10.5766709,10.5766709 C10.4402636,10.7130782 10.3636364,10.8980873 10.3636364,11.0909964 L10.3636364,13.27264 C10.3636364,13.465549 10.4402636,13.6505582 10.5766709,13.7869654 C10.7130782,13.9233727 10.8980873,14 11.0909964,14 L13.2726364,14 C13.4655457,14 13.6505552,13.9233729 13.7869631,13.7869657 C13.923371,13.6505585 14,13.4655494 14,13.27264 L14,11.0909964 C14,10.898087 13.923371,10.7130779 13.7869631,10.5766707 C13.6505552,10.4402635 13.4655457,10.3636364 13.2726364,10.3636364 Z M13.2726364,6 L11.0909964,6 C10.8980873,6 10.7130782,6.07662725 10.5766709,6.21303455 C10.4402636,6.34944185 10.3636364,6.53445095 10.3636364,6.72736 L10.3636364,8.90900364 C10.3636364,9.10191269 10.4402636,9.28692179 10.5766709,9.42332909 C10.7130782,9.55973638 10.8980873,9.63636364 11.0909964,9.63636364 L13.2726364,9.63636364 C13.4655457,9.63636364 13.6505552,9.5597365 13.7869631,9.42332931 C13.923371,9.28692211 14,9.10191302 14,8.90900364 L14,6.72736 C14,6.53445062 13.923371,6.34944152 13.7869631,6.21303433 C13.6505552,6.07662714 13.4655457,6 13.2726364,6 Z" id="layout-grid" fill="url(#linearGradient-1)" fill-rule="nonzero"></path>
        </g>
    </g>
</svg>