<?xml version="1.0" encoding="UTF-8"?>
<svg width="12px" height="18px" viewBox="0 0 12 18" version="1.1" xmlns="http://www.w3.org/2000/svg" xmlns:xlink="http://www.w3.org/1999/xlink">
    <title>unicycle</title>
    <g id="Activities" stroke="none" stroke-width="1" fill="none" fill-rule="evenodd">
        <g id="5b.-Create-Activity---Step-4---(Empty)-Expanded" transform="translate(-291.000000, -55.000000)" fill="#333" fill-rule="nonzero">
            <g id="Group" transform="translate(264.000000, 40.000000)">
                <path d="M33.8571124,21.6082246 L33.8571124,18.2715684 L36.4284497,18.2715684 C36.9018198,18.2715684 37.2855621,17.9053856 37.2855621,17.4536763 C37.2855621,17.0019669 36.9018198,16.6357842 36.4284497,16.6357842 L31.2857752,16.6357842 C30.8126595,16.6351984 30.4292766,16.2693586 30.4286627,15.8178921 C30.4286627,15.3661828 30.0449204,15 29.5715503,15 C29.0981802,15 28.7144379,15.3661828 28.7144379,15.8178921 C28.7159873,17.1724072 29.8663071,18.2700898 31.2857752,18.2715684 L32.1428876,18.2715684 L32.1428876,21.6082328 C29.0282898,22.0372152 26.790262,24.6895865 27.0156173,27.6847541 C27.2409726,30.6799217 29.8531258,33 33,33 C36.1468742,33 38.7590274,30.6799217 38.9843827,27.6847541 C39.209738,24.6895865 36.9717102,22.0372152 33.8571124,21.6082328 L33.8571124,21.6082246 Z M33,30.5399573 C31.2747447,30.5434638 29.8166964,29.3206081 29.5988959,27.6874659 C29.3810955,26.0543237 30.471701,24.5219671 32.1428876,24.1130273 L32.1428876,27.2683813 C32.1428876,27.7200907 32.5266299,28.0862734 33,28.0862734 C33.4733701,28.0862734 33.8571124,27.7200907 33.8571124,27.2683813 L33.8571124,24.1130273 C35.528299,24.5219671 36.6189045,26.0543237 36.4011041,27.6874659 C36.1833036,29.3206081 34.7252553,30.5434638 33,30.5399573 L33,30.5399573 Z" id="unicycle"></path>
            </g>
        </g>
    </g>
</svg>