<?xml version="1.0" encoding="UTF-8"?>
<svg width="10px" height="10px" viewBox="0 0 10 10" version="1.1" xmlns="http://www.w3.org/2000/svg" xmlns:xlink="http://www.w3.org/1999/xlink">
    <title>paperclip</title>
    <g id="Page-1" stroke="none" stroke-width="1" fill="none" fill-rule="evenodd">
        <g id="Guide-Supplier-28" transform="translate(-843.000000, -361.000000)" fill="#333333" fill-rule="nonzero">
            <path d="M852.118167,361.883759 C851.552403,361.317902 850.785007,361 849.98483,361 C849.184654,361 848.417258,361.317902 847.851493,361.883759 C847.723836,362.011071 847.652072,362.183939 847.65203,362.36423 C847.651988,362.544521 847.723673,362.717422 847.851271,362.844793 C847.979659,362.970052 848.152185,363.03975 848.331552,363.038821 L848.331774,363.038821 C848.511239,363.03988 848.683891,362.970168 848.812305,362.844793 C849.469206,362.220594 850.5,362.220594 851.156909,362.844793 C851.804254,363.492366 851.804254,364.542047 851.156909,365.18962 L847.190177,369.156134 C846.533277,369.780333 845.502474,369.780333 844.845573,369.156134 C844.198229,368.508561 844.198229,367.45888 844.845573,366.811307 L846.535821,365.121032 C846.675673,364.981013 846.886134,364.939098 847.068959,365.014854 C847.251783,365.09061 847.370918,365.269098 847.370749,365.466996 C847.371282,365.596798 847.319775,365.721399 847.227745,365.812937 L846.019941,367.020963 C845.892284,367.148276 845.82052,367.321143 845.820478,367.501434 C845.820436,367.681725 845.892121,367.854626 846.019719,367.981998 C846.292625,368.228547 846.707847,368.228547 846.980753,367.981998 L848.188752,366.773972 C848.906452,366.051449 848.904501,364.884516 848.184389,364.164396 C847.464277,363.444277 846.297344,363.442314 845.574814,364.160006 L843.884539,365.850286 C843.121894,366.612366 842.823866,367.723488 843.102763,368.764933 C843.381661,369.806379 844.195093,370.619853 845.236525,370.898804 C846.277956,371.177755 847.389093,370.879784 848.151212,370.117178 L852.117944,366.15066 C853.296202,364.972421 853.296302,363.062129 852.118167,361.883768 L852.118167,361.883759 Z" id="paperclip"></path>
        </g>
    </g>
</svg>