<svg xmlns="http://www.w3.org/2000/svg" width="15" height="10" viewBox="0 0 15 10">
    <g fill="none" fill-rule="evenodd" opacity=".5">
        <g fill="#333" fill-rule="nonzero">
            <g>
                <g>
                    <g>
                        <path d="M4.375 9.625c1.036 0 1.875-.84 1.875-1.875 0-1.036-.84-1.875-1.875-1.875-1.036 0-1.875.84-1.875 1.875 0 1.036.84 1.875 1.875 1.875zm8.125-3.75h-5v5H1.25v-6.25C1.25 4.28.97 4 .625 4S0 4.28 0 4.625v8.75c0 .345.28.625.625.625s.625-.28.625-.625v-.625h12.5v.625c0 .345.28.625.625.625s.625-.28.625-.625v-5c0-.663-.263-1.299-.732-1.768-.47-.469-1.105-.732-1.768-.732z" transform="translate(-451 -518) translate(50 449) translate(25 25) translate(376 40)"/>
                    </g>
                </g>
            </g>
        </g>
    </g>
</svg>
