<?xml version="1.0" encoding="UTF-8"?>
<svg width="15px" height="18px" viewBox="0 0 15 18" version="1.1" xmlns="http://www.w3.org/2000/svg" xmlns:xlink="http://www.w3.org/1999/xlink">
    <title>Shape</title>
    <g id="Activities" stroke="none" stroke-width="1" fill="none" fill-rule="evenodd">
        <g id="1.-Activity-Listing-(Filters-Collapsed)" transform="translate(-1199.000000, -26.000000)" fill="#FFFFFF" fill-rule="nonzero">
            <g id="Shape" transform="translate(1199.000000, 26.000000)">
                <path d="M6.09375,2.22920596 C3.66764922,2.85334708 1.875,5.05481402 1.875,7.67684877 L1.875,11.4265386 C1.875,11.7720174 1.59429356,12.0520833 1.25065216,12.0520833 C0.559936031,12.0520833 0,12.6131321 0,13.3020833 C0,13.9924393 0.560641406,14.5520833 1.25309163,14.5520833 L13.7469084,14.5520833 C14.4389718,14.5520833 15,13.9910345 15,13.3020833 C15,12.6117274 14.4374382,12.0520833 13.7493478,12.0520833 C13.4045301,12.0520833 13.125,11.7741891 13.125,11.4265386 L13.125,7.67684877 C13.125,5.05585177 11.3327247,2.85355921 8.90625,2.22922936 L8.90625,1.58360011 C8.90625,0.804973271 8.27665044,0.177083333 7.5,0.177083333 C6.72492991,0.177083333 6.09375,0.806802333 6.09375,1.58360011 L6.09375,2.22920596 Z M5.3125,15.1770833 C5.3125,16.3852062 6.29187713,17.3645833 7.5,17.3645833 C8.70812287,17.3645833 9.6875,16.3852062 9.6875,15.1770833 L5.3125,15.1770833 Z"></path>
            </g>
        </g>
    </g>
</svg>