<svg xmlns="http://www.w3.org/2000/svg" width="13" height="13" viewBox="0 0 13 13">
    <g fill="none" fill-rule="evenodd" opacity=".5">
        <g fill="#333" fill-rule="nonzero">
            <g>
                <g>
                    <g>
                        <path d="M0 12.916c0 .288.114.563.317.767.204.203.48.317.767.317h10.832c.288 0 .563-.114.767-.317.203-.204.317-.48.317-.767V6.958H0v5.958zM11.916 2.083h-1.624v-.541c0-.3-.243-.542-.542-.542-.3 0-.542.243-.542.542v.541H3.792v-.541c0-.3-.243-.542-.542-.542-.3 0-.542.243-.542.542v.541H1.084c-.288 0-.563.114-.767.318C.114 2.604 0 2.88 0 3.167v2.708h13V3.167c0-.287-.114-.563-.317-.766-.204-.204-.48-.318-.767-.318zM3.25 4.792c-.3 0-.542-.243-.542-.542 0-.3.243-.542.542-.542.3 0 .542.243.542.542 0 .3-.243.542-.542.542zm6.5 0c-.3 0-.542-.243-.542-.542 0-.3.243-.542.542-.542.3 0 .542.243.542.542 0 .3-.243.542-.542.542z" transform="translate(-75 -515) translate(50 449) translate(25 25) translate(0 40)"/>
                    </g>
                </g>
            </g>
        </g>
    </g>
</svg>
