<svg xmlns="http://www.w3.org/2000/svg" width="22" height="17" viewBox="0 0 22 17">
    <g fill="none" fill-rule="evenodd">
        <g fill="#3362FA" fill-rule="nonzero">
            <g>
                <path d="M669.707 34.35c0-3.507-2.72-6.35-6.074-6.35-3.354 0-6.073 2.843-6.073 6.35-2.635.126-4.675 2.461-4.555 5.217.12 2.756 2.353 4.888 4.989 4.763h3.904v-3.629h-2.247c-.351-.001-.666-.224-.8-.563-.132-.34-.057-.73.193-.988l4.59-4.8 4.589 4.8c.25.258.325.648.192.988-.133.34-.449.562-.8.563h-2.247v3.63h3.905c2.635.124 4.869-2.008 4.989-4.764.12-2.756-1.92-5.091-4.555-5.216z" transform="translate(-840 -573) translate(187 545)"/>
            </g>
        </g>
    </g>
</svg>
