<svg xmlns="http://www.w3.org/2000/svg" width="11" height="10" viewBox="0 0 11 10">
    <g fill="none" fill-rule="evenodd">
        <g fill="#3362FA">
            <g>
                <g>
                    <path d="M92.5 218c.502 0 .91.407.91.91l-.001 3.18h3.182c.502 0 .909.408.909.91s-.407.91-.91.91l-3.181-.001v3.182c0 .502-.407.909-.909.909s-.91-.407-.91-.91v-3.181h-3.18c-.503 0-.91-.407-.91-.909s.407-.91.91-.91h3.18v-3.18c0-.503.408-.91.91-.91z" transform="translate(-162 -692) translate(50 449) translate(25 25)"/>
                </g>
            </g>
        </g>
    </g>
</svg>
