<svg xmlns="http://www.w3.org/2000/svg" width="11" height="9" viewBox="0 0 11 9">
    <g fill="none" fill-rule="evenodd" opacity=".5">
        <g fill="#333" fill-rule="nonzero">
            <g>
                <g>
                    <path d="M224.442 44.008c0-2.204-1.67-4.05-3.863-4.27v-.88h.43c.236 0 .429-.192.429-.429s-.193-.429-.43-.429h-1.716c-.237 0-.43.192-.43.43 0 .236.193.428.43.428h.429v.88c-2.193.22-3.863 2.066-3.863 4.27v.859h8.584v-.859zm.429 1.717h-9.442c-.237 0-.429.192-.429.43 0 .236.192.428.43.428h9.44c.238 0 .43-.192.43-.429s-.192-.429-.43-.429z" transform="translate(-235 -385) translate(0 62) translate(20 285)"/>
                </g>
            </g>
        </g>
    </g>
</svg>
