<?xml version="1.0" encoding="UTF-8"?>
<svg width="19px" height="20px" viewBox="0 0 19 20" version="1.1" xmlns="http://www.w3.org/2000/svg" xmlns:xlink="http://www.w3.org/1999/xlink">
    <title>5F9F9906-65BD-4449-B400-53AC1E668583</title>
    <g id="Activities" stroke="none" stroke-width="1" fill="none" fill-rule="evenodd">
        <g id="5f." transform="translate(-347.000000, -467.000000)" fill="#0D1319" fill-rule="nonzero">
            <g id="Group-3" transform="translate(299.000000, 212.000000)">
                <g id="Group-8" transform="translate(20.000000, 164.000000)">
                    <g id="Group-3" transform="translate(-0.000000, 70.000000)">
                        <path d="M44.628821,21 L30.2838428,21 C29.4035745,21 28.6899563,21.7462035 28.6899563,22.6666667 L28.6899563,39.3333333 C28.6899563,40.2537965 29.4035745,41 30.2838428,41 L44.628821,41 C45.5090892,41 46.2227074,40.2537965 46.2227074,39.3333333 L46.2227074,22.6666667 C46.2227074,21.7462035 45.5090892,21 44.628821,21 Z M36.6593886,36.8333333 L32.6746725,36.8333333 C32.2345329,36.8333333 31.8777293,36.4602373 31.8777293,36 C31.8777293,35.5397627 32.2345329,35.1666667 32.6746725,35.1666667 L36.6593886,35.1666667 C37.0995282,35.1666667 37.4563319,35.5397627 37.4563319,36 C37.4563319,36.4602373 37.0995282,36.8333333 36.6593886,36.8333333 Z M42.2379913,31.8333333 L32.6746725,31.8333333 C32.2345329,31.8333333 31.8777293,31.4602373 31.8777293,31 C31.8777293,30.5397627 32.2345329,30.1666667 32.6746725,30.1666667 L42.2379913,30.1666667 C42.6781309,30.1666667 43.0349345,30.5397627 43.0349345,31 C43.0349345,31.4602373 42.6781309,31.8333333 42.2379913,31.8333333 Z M42.2379913,26.8333333 L32.6746725,26.8333333 C32.2345329,26.8333333 31.8777293,26.4602373 31.8777293,26 C31.8777293,25.5397627 32.2345329,25.1666667 32.6746725,25.1666667 L42.2379913,25.1666667 C42.6781309,25.1666667 43.0349345,25.5397627 43.0349345,26 C43.0349345,26.4602373 42.6781309,26.8333333 42.2379913,26.8333333 Z" id="content"></path>
                    </g>
                </g>
            </g>
        </g>
    </g>
</svg>