<?xml version="1.0" encoding="UTF-8"?>
<svg width="16px" height="18px" viewBox="0 0 16 18" version="1.1" xmlns="http://www.w3.org/2000/svg" xmlns:xlink="http://www.w3.org/1999/xlink">
    <title>Customer Specific</title>
    <g id="Page-1" stroke="none" stroke-width="1" fill="none" fill-rule="evenodd">
        <path d="M13.7770938,0.5 C14.5067408,0.5 15.098253,1.11852187 15.098253,1.88148609 L15.098253,1.88148609 L15.098253,15.6963469 C15.098253,16.4593112 14.5067408,17.077833 13.7770938,17.077833 L13.7770938,17.077833 L1.88666118,17.077833 C1.15701418,17.077833 0.565502,16.4593112 0.565502,15.6963469 L0.565502,15.6963469 L0.565502,1.88148609 C0.565502,1.11852187 1.15701418,0.5 1.88666118,0.5 L1.88666118,0.5 Z M10.1389376,10.5767088 C9.22274529,10.5767088 8.53453572,11.0923333 8.5366664,11.8636394 C8.5366664,12.4900592 8.98197848,12.8501441 9.70001757,13.0355132 L10.196466,13.163354 C10.6673462,13.2826721 10.9784254,13.429689 10.9805561,13.7684671 C10.9784254,14.141336 10.6247326,14.3906256 10.1091081,14.3906256 C9.61479037,14.3906256 9.23126801,14.1690349 9.19930782,13.7109387 L8.42160969,13.7109387 C8.45356989,14.5781254 9.09916587,15.0660511 10.1155001,15.0660511 C11.1616639,15.0660511 11.7689076,14.5440345 11.7710383,13.7748591 C11.7689076,13.0184678 11.1446185,12.6732977 10.4883691,12.517758 L10.0792786,12.4154854 C9.72132436,12.3302582 9.33354064,12.17898 9.337802,11.8146337 C9.33993268,11.486509 9.63396649,11.2457422 10.1282842,11.2457422 C10.5991644,11.2457422 10.9102437,11.4652022 10.9507266,11.8359405 L11.7113793,11.8359405 C11.6964645,11.0987253 11.067914,10.5767088 10.1389376,10.5767088 Z M6.00541456,10.5767088 C4.86550088,10.5767088 4.00683692,11.4076739 4.00683692,12.8181839 C4.00683692,14.2265632 4.85484748,15.059659 6.00541456,15.059659 C7.04305562,15.059659 7.73126519,14.3884949 7.85271394,13.5553991 L7.0558397,13.5511377 C6.95569775,14.0625009 6.53808451,14.3501427 6.01606796,14.3501427 C5.30868227,14.3501427 4.80158048,13.8196034 4.80158048,12.8181839 C4.80158048,11.8338098 5.30442091,11.2862251 6.01819864,11.2862251 C6.54873791,11.2862251 6.96422047,11.586651 7.0558397,12.1086675 L7.85271394,12.1086675 C7.71848111,11.1392082 6.97274318,10.5767088 6.00541456,10.5767088 Z M11.795355,7.09817347 L3.86839995,7.09817347 C3.50357192,7.09817347 3.20782036,7.40742966 3.20782036,7.78891651 C3.20782036,8.17040336 3.50357192,8.47965955 3.86839995,8.47965955 L3.86839995,8.47965955 L11.795355,8.47965955 C12.1601831,8.47965955 12.4559346,8.17040336 12.4559346,7.78891651 C12.4559346,7.40742966 12.1601831,7.09817347 11.795355,7.09817347 L11.795355,7.09817347 Z M11.795355,3.95371521 L3.86839995,3.95371521 C3.50357192,3.95371521 3.20782036,4.26297141 3.20782036,4.64445826 C3.20782036,5.0259451 3.50357192,5.3352013 3.86839995,5.3352013 L3.86839995,5.3352013 L11.795355,5.3352013 C12.1601831,5.3352013 12.4559346,5.0259451 12.4559346,4.64445826 C12.4559346,4.26297141 12.1601831,3.95371521 11.795355,3.95371521 L11.795355,3.95371521 Z" id="Customer-Specific" fill="#3362FA" fill-rule="nonzero"></path>
    </g>
</svg>