<?xml version="1.0" encoding="UTF-8"?>
<svg width="11px" height="14px" viewBox="0 0 11 14" version="1.1" xmlns="http://www.w3.org/2000/svg" xmlns:xlink="http://www.w3.org/1999/xlink">
    <title>trash</title>
    <g id="Activities" stroke="none" stroke-width="1" fill="none" fill-rule="evenodd">
        <g id="3b.-Create-Activity---Step-1---(Empty)--added-section-for-2nd-language" transform="translate(-722.000000, -576.000000)" fill="#0077EA" fill-rule="nonzero">
            <g id="Group-3" transform="translate(722.000000, 574.000000)">
                <path d="M0.988847162,14.166 C1.02227843,14.7475963 1.48361026,15.2010497 2.04081223,15.2000018 L8.47883843,15.2000018 C9.03604039,15.2010497 9.49737223,14.7475963 9.53080349,14.166 L9.99366812,6.4 L0.525982533,6.4 L0.988847162,14.166 Z M9.99366812,4.2 L8.41572052,4.2 L8.41572052,3.65 C8.41572052,2.73873016 7.70924932,2 6.83777293,2 L3.68187773,2 C2.81040133,2 2.10393013,2.73873016 2.10393013,3.65 L2.10393013,4.2 L0.525982533,4.2 C0.235490401,4.2 2.7533531e-14,4.44624339 2.7533531e-14,4.75 C2.7533531e-14,5.05375661 0.235490401,5.3 0.525982533,5.3 L9.99366812,5.3 C10.2841603,5.3 10.5196507,5.05375661 10.5196507,4.75 C10.5196507,4.44624339 10.2841603,4.2 9.99366812,4.2 Z M7.36375546,4.2 L3.1558952,4.2 L3.1558952,3.65 C3.1558952,3.34624339 3.3913856,3.1 3.68187773,3.1 L6.83777293,3.1 C7.12826506,3.1 7.36375546,3.34624339 7.36375546,3.65 L7.36375546,4.2 Z" id="trash"></path>
            </g>
        </g>
    </g>
</svg>