<svg xmlns="http://www.w3.org/2000/svg" width="12" height="15" viewBox="0 0 12 15">
    <g fill="none" fill-rule="evenodd">
        <g fill="#3362FA" fill-rule="nonzero">
            <g>
                <path d="M700.4 30v3.6h3.6l-3.6-3.6zm-1.2 0h-6c-.663 0-1.2.537-1.2 1.2v12c0 .663.537 1.2 1.2 1.2h9.6c.663 0 1.2-.537 1.2-1.2v-8.4h-4.8V30zm1.8 12h-6c-.331 0-.6-.269-.6-.6 0-.331.269-.6.6-.6h6c.331 0 .6.269.6.6 0 .331-.269.6-.6.6zm0-4.2c.331 0 .6.269.6.6 0 .331-.269.6-.6.6h-6c-.331 0-.6-.269-.6-.6 0-.331.269-.6.6-.6h6z" transform="translate(-948 -266) translate(256 236)"/>
            </g>
        </g>
    </g>
</svg>
