<svg xmlns="http://www.w3.org/2000/svg" width="147" height="104" fill="none" viewBox="0 0 147 104">
    <g filter="url(#filter0_d)">
        <rect width="104.95" height="20.097" x="8" y="5" fill="#fff" rx="4.147"/>
    </g>
    <mask id="uajh4zixka" width="105" height="21" x="8" y="5" maskUnits="userSpaceOnUse">
        <rect width="104.95" height="20.097" x="8" y="5" fill="#fff" rx="4.147"/>
    </mask>
    <g mask="url(#uajh4zixka)">
        <rect width="68.584" height="2.552" x="17.889" y="13.932" fill="#8795A2" fill-opacity=".401" opacity=".3" rx=".797"/>
    </g>
    <g filter="url(#filter1_d)">
        <rect width="22.011" height="20.097" x="117.097" y="5" fill="#fff" rx="4.147"/>
    </g>
    <mask id="4y90ao6mdb" width="23" height="21" x="117" y="5" maskUnits="userSpaceOnUse">
        <rect width="22.011" height="20.097" x="117.097" y="5" fill="#fff" rx="4.147"/>
    </mask>
    <g stroke="#3362FA" stroke-linecap="round" stroke-linejoin="round" stroke-width="1.661" mask="url(#4y90ao6mdb)">
        <path fill-rule="evenodd" d="M130.495 14.25c0 1.762-1.428 3.19-3.19 3.19s-3.19-1.428-3.19-3.19c0-1.761 1.428-3.19 3.19-3.19s3.19 1.429 3.19 3.19z" clip-rule="evenodd"/>
        <path d="M132.09 19.035l-2.392-2.392"/>
    </g>
    <path stroke="#8795A2" stroke-dasharray="2.55 3.51" stroke-linecap="round" stroke-linejoin="round" stroke-opacity=".401" stroke-width=".957" d="M106.184 75.18h21.918V25.098"/>
    <g filter="url(#filter2_d)">
        <rect width="104.95" height="64.756" x="8" y="29.244" fill="#fff" rx="4.147"/>
    </g>
    <mask id="zqdb4pyp7c" width="105" height="66" x="8" y="29" maskUnits="userSpaceOnUse">
        <rect width="104.95" height="64.756" x="8" y="29.244" fill="#fff" rx="4.147"/>
    </mask>
    <g mask="url(#zqdb4pyp7c)">
        <rect width="16.907" height="16.907" x="17.889" y="37.539" fill="#8795A2" fill-opacity=".401" opacity=".3" rx="1.914"/>
        <rect width="16.907" height="16.907" x="17.889" y="61.781" fill="#3362FA" rx="1.914"/>
        <rect width="16.907" height="16.907" x="17.889" y="85.707" fill="#8795A2" fill-opacity=".401" opacity=".3" rx="1.276"/>
        <rect width="37.642" height="2.552" x="38.624" y="42.004" fill="#8795A2" fill-opacity=".401" opacity=".3" rx=".797"/>
        <rect width="21.692" height="2.552" x="38.624" y="66.248" fill="#8795A2" fill-opacity=".401" opacity=".3" rx=".797"/>
        <rect width="15.312" height="2.552" x="38.624" y="90.172" fill="#8795A2" fill-opacity=".401" opacity=".3" rx=".797"/>
        <rect width="26.796" height="2.552" x="38.624" y="48.385" fill="#8795A2" fill-opacity=".401" opacity=".3" rx=".797"/>
        <rect width="40.194" height="2.552" x="38.624" y="72.627" fill="#8795A2" fill-opacity=".401" opacity=".3" rx=".797"/>
    </g>
    <defs>
        <filter id="filter0_d" width="119.349" height="34.496" x=".8" y=".569" color-interpolation-filters="sRGB" filterUnits="userSpaceOnUse">
            <feFlood flood-opacity="0" result="BackgroundImageFix"/>
            <feColorMatrix in="SourceAlpha" values="0 0 0 0 0 0 0 0 0 0 0 0 0 0 0 0 0 0 127 0"/>
            <feOffset dy="2.769"/>
            <feGaussianBlur stdDeviation="3.6"/>
            <feColorMatrix values="0 0 0 0 0.0502641 0 0 0 0 0.0746531 0 0 0 0 0.0982224 0 0 0 0.0481316 0"/>
            <feBlend in2="BackgroundImageFix" result="effect1_dropShadow"/>
            <feBlend in="SourceGraphic" in2="effect1_dropShadow" result="shape"/>
        </filter>
        <filter id="filter1_d" width="36.41" height="34.496" x="109.897" y=".569" color-interpolation-filters="sRGB" filterUnits="userSpaceOnUse">
            <feFlood flood-opacity="0" result="BackgroundImageFix"/>
            <feColorMatrix in="SourceAlpha" values="0 0 0 0 0 0 0 0 0 0 0 0 0 0 0 0 0 0 127 0"/>
            <feOffset dy="2.769"/>
            <feGaussianBlur stdDeviation="3.6"/>
            <feColorMatrix values="0 0 0 0 0.0502641 0 0 0 0 0.0746531 0 0 0 0 0.0982224 0 0 0 0.0481316 0"/>
            <feBlend in2="BackgroundImageFix" result="effect1_dropShadow"/>
            <feBlend in="SourceGraphic" in2="effect1_dropShadow" result="shape"/>
        </filter>
        <filter id="filter2_d" width="119.349" height="79.155" x=".8" y="24.814" color-interpolation-filters="sRGB" filterUnits="userSpaceOnUse">
            <feFlood flood-opacity="0" result="BackgroundImageFix"/>
            <feColorMatrix in="SourceAlpha" values="0 0 0 0 0 0 0 0 0 0 0 0 0 0 0 0 0 0 127 0"/>
            <feOffset dy="2.769"/>
            <feGaussianBlur stdDeviation="3.6"/>
            <feColorMatrix values="0 0 0 0 0.0502641 0 0 0 0 0.0746531 0 0 0 0 0.0982224 0 0 0 0.0481316 0"/>
            <feBlend in2="BackgroundImageFix" result="effect1_dropShadow"/>
            <feBlend in="SourceGraphic" in2="effect1_dropShadow" result="shape"/>
        </filter>
    </defs>
</svg>
