<svg xmlns="http://www.w3.org/2000/svg" width="14" height="13" viewBox="0 0 14 13">
    <g fill="none" fill-rule="evenodd">
        <g fill="#3362FA" fill-rule="nonzero" stroke="#3362FA" stroke-width=".3">
            <g>
                <g>
                    <path d="M11.6 5.2H8.743C8.564 4.512 7.943 4 7.2 4c-.743 0-1.364.512-1.543 1.2H.4c-.22 0-.4.18-.4.4 0 .22.18.4.4.4h5.257c.179.688.8 1.2 1.543 1.2.743 0 1.364-.512 1.543-1.2H11.6c.22 0 .4-.18.4-.4 0-.22-.18-.4-.4-.4zM7.2 6.4c-.441 0-.8-.359-.8-.8 0-.441.359-.8.8-.8.441 0 .8.359.8.8 0 .441-.359.8-.8.8zM11.6 9.2H6.343C6.164 8.512 5.543 8 4.8 8c-.743 0-1.364.512-1.543 1.2H.4c-.22 0-.4.18-.4.4 0 .22.18.4.4.4h2.857c.179.688.8 1.2 1.543 1.2.743 0 1.364-.512 1.543-1.2H11.6c.22 0 .4-.18.4-.4 0-.22-.18-.4-.4-.4zm-6.8 1.2c-.441 0-.8-.359-.8-.8 0-.441.359-.8.8-.8.441 0 .8.359.8.8 0 .441-.359.8-.8.8zM.4 2h2.857c.179.688.8 1.2 1.543 1.2.743 0 1.364-.512 1.543-1.2H11.6c.22 0 .4-.18.4-.4 0-.22-.18-.4-.4-.4H6.343C6.164.512 5.543 0 4.8 0c-.743 0-1.364.512-1.543 1.2H.4c-.22 0-.4.18-.4.4 0 .22.18.4.4.4zM4.8.8c.441 0 .8.359.8.8 0 .441-.359.8-.8.8-.441 0-.8-.359-.8-.8 0-.441.359-.8.8-.8z" transform="translate(-882 -169) translate(883 166) translate(0 4)"/>
                </g>
            </g>
        </g>
    </g>
</svg>
