<svg xmlns="http://www.w3.org/2000/svg" width="12" height="14" viewBox="0 0 12 14">
    <g fill="none" fill-rule="evenodd" opacity=".5">
        <g fill="#333" fill-rule="nonzero">
            <g>
                <g>
                    <g>
                        <path d="M5.1 1c-.15 0-.294.06-.4.166-.107.106-.167.25-.167.4V4.4H3.4V1.567C3.4 1.254 3.146 1 2.833 1c-.313 0-.566.254-.566.567V4.4H1.133V1.567C1.133 1.254.88 1 .567 1 .254 1 0 1.254 0 1.567V6.1c.001.938.762 1.699 1.7 1.7v5.667c0 .626.507 1.133 1.133 1.133s1.134-.507 1.134-1.133V7.8c.938-.001 1.699-.762 1.7-1.7V1.567c0-.15-.06-.295-.166-.401C5.394 1.06 5.25 1 5.1 1zm1.7 4.533v4.534h2.267v3.4c0 .626.507 1.133 1.133 1.133s1.133-.507 1.133-1.133V1C8.83 1 6.8 3.03 6.8 5.533z" transform="translate(-281 -547) translate(50 449) translate(25 25) translate(206 72)"/>
                    </g>
                </g>
            </g>
        </g>
    </g>
</svg>
