<?xml version="1.0" encoding="UTF-8"?>
<svg width="16px" height="18px" viewBox="0 0 16 18" version="1.1" xmlns="http://www.w3.org/2000/svg" xmlns:xlink="http://www.w3.org/1999/xlink">
    <title>General Market</title>
    <g id="Page-1" stroke="none" stroke-width="1" fill="none" fill-rule="evenodd">
        <path d="M13.7115918,0.5 C14.4412388,0.5 15.032751,1.11852187 15.032751,1.88148609 L15.032751,1.88148609 L15.032751,15.6963469 C15.032751,16.4593112 14.4412388,17.077833 13.7115918,17.077833 L13.7115918,17.077833 L1.82115918,17.077833 C1.09151218,17.077833 0.5,16.4593112 0.5,15.6963469 L0.5,15.6963469 L0.5,1.88148609 C0.5,1.11852187 1.09151218,0.5 1.82115918,0.5 L1.82115918,0.5 Z M5.13451483,10.5767088 C3.99247047,10.5767088 3.1359372,11.4161966 3.1359372,12.8224453 C3.1359372,14.2031258 3.95411823,15.059659 5.15795231,15.059659 C6.23820696,15.059659 7.01164373,14.3650574 7.01164373,13.2400585 L7.01164373,12.7159113 L5.24104882,12.7159113 L5.24104882,13.3338084 L6.24672968,13.3338084 C6.2339456,13.9559669 5.81846305,14.3501427 5.16221367,14.3501427 C4.43139051,14.3501427 3.93068076,13.802558 3.93068076,12.8139225 C3.93068076,11.8316792 4.43991322,11.2862251 5.14516823,11.2862251 C5.67144614,11.2862251 6.02940034,11.5674749 6.17002521,12.0298324 L6.97542217,12.0298324 C6.84118934,11.1732991 6.09971278,10.5767088 5.13451483,10.5767088 Z M8.74389071,10.6363678 L7.77656209,10.6363678 L7.77656209,15 L8.53508409,15 L8.53508409,11.9957415 L8.57556701,11.9957415 L9.78153177,14.9872159 L10.3482926,14.9872159 L11.5542574,12.0021335 L11.5947403,12.0021335 L11.5947403,15 L12.3532623,15 L12.3532623,10.6363678 L11.3859336,10.6363678 L10.0904803,13.7982966 L10.039344,13.7982966 L8.74389071,10.6363678 Z M11.729853,7.09817347 L3.80289795,7.09817347 C3.43806992,7.09817347 3.14231836,7.40742966 3.14231836,7.78891651 C3.14231836,8.17040336 3.43806992,8.47965955 3.80289795,8.47965955 L3.80289795,8.47965955 L11.729853,8.47965955 C12.0946811,8.47965955 12.3904326,8.17040336 12.3904326,7.78891651 C12.3904326,7.40742966 12.0946811,7.09817347 11.729853,7.09817347 L11.729853,7.09817347 Z M11.729853,3.95371521 L3.80289795,3.95371521 C3.43806992,3.95371521 3.14231836,4.26297141 3.14231836,4.64445826 C3.14231836,5.0259451 3.43806992,5.3352013 3.80289795,5.3352013 L3.80289795,5.3352013 L11.729853,5.3352013 C12.0946811,5.3352013 12.3904326,5.0259451 12.3904326,4.64445826 C12.3904326,4.26297141 12.0946811,3.95371521 11.729853,3.95371521 L11.729853,3.95371521 Z" id="General-Market" fill="#3362FA" fill-rule="nonzero"></path>
    </g>
</svg>