<svg xmlns="http://www.w3.org/2000/svg" width="27" height="32" viewBox="0 0 27 32">
    <g fill="none" fill-rule="evenodd">
        <g fill="#C900EA" fill-rule="nonzero">
            <g>
                <path d="M22.44 20.938V31.68h3.96v-4.637c-.178-2.582-1.675-4.89-3.96-6.105zM13.2 0C8.826 0 5.28 3.546 5.28 7.92c0 4.374 3.546 7.92 7.92 7.92 4.374 0 7.92-3.546 7.92-7.92C21.115 3.548 17.572.005 13.2 0zM0 27.043v4.637h3.96V20.938C1.675 22.153.178 24.461 0 27.043zm6.6-7.404V31.68h13.2V19.639c-4.264-1.545-8.936-1.545-13.2 0zm10.56 2.133v3.976c.036.227-.067.453-.26.575-.194.122-.442.117-.63-.013l-3.07-1.23-3.07 1.23c-.188.13-.436.135-.63.013-.193-.123-.296-.348-.26-.575v-3.976c-.035-.227.067-.452.26-.574.194-.123.442-.118.63.011l3.07 1.231 3.07-1.23c.188-.13.436-.135.63-.013.193.123.296.348.26.575z" transform="translate(-34 -40) translate(34 40)"/>
            </g>
        </g>
    </g>
</svg>
