<?xml version="1.0" encoding="UTF-8"?>
<svg width="34px" height="34px" viewBox="0 0 34 34" version="1.1" xmlns="http://www.w3.org/2000/svg" xmlns:xlink="http://www.w3.org/1999/xlink">
    <title>Sita_Logo Copy</title>
    <g id="Activities" stroke="none" stroke-width="1" fill="none" fill-rule="evenodd">
        <g id="1.-Activity-Listing-(Filters-Collapsed)" transform="translate(-30.000000, -18.000000)" fill="#FFFFFF">
            <g id="Sita_Logo-Copy" transform="translate(30.000000, 18.000000)">
                <path d="M1.12137037,21.4665926 C1.12137037,21.4665926 1.40092593,22.236 3.34396296,22.9411852 C5.28762963,23.647 5.19696296,22.7730741 6.30825926,24.8244074 C7.41892593,26.877 6.81511111,31.8554815 6.81511111,31.8554815 L8.62088889,33.138037 C8.62088889,33.138037 9.43688889,22.298963 8.62088889,21.4665926 C7.25837037,20.0795185 1.12137037,21.4665926 1.12137037,21.4665926 Z M2.22259259,25.5812222 C1.836,26.0855556 2.22259259,32.6469259 2.22259259,32.6469259 L3.077,31.869963 C3.077,31.869963 2.79303704,28.8565556 3.31814815,27.6142963 C3.84325926,26.372037 3.80107407,26.9009259 4.72033333,26.474037 C5.64085185,26.0465185 5.77244444,25.5812222 5.77244444,25.5812222 C5.77244444,25.5812222 2.8667037,24.7412963 2.22259259,25.5812222 Z M13.2398519,22.3102963 C11.4894815,24.1903704 13.2398519,32.8994074 13.2398519,33.1972222 L14.9908519,33.1972222 C14.9908519,33.1972222 17.0346296,25.9722222 19.2225926,24.8835926 C21.4111852,23.794963 21.4111852,25.3791111 21.4111852,25.3791111 C21.4111852,25.3791111 22.4318148,25.7738889 21.119037,22.3102963 C19.805,18.8467037 14.9908519,20.4308519 13.2398519,22.3102963 Z M23.6218148,14.0243704 C23.4329259,14.2900741 23.3504444,14.5828519 23.3586296,14.8712222 C22.9518889,14.7572593 22.4784074,14.6873704 21.935037,14.6873704 C20.3571852,14.6873704 18.7610741,15.2874074 17.4778889,15.770963 C17.1278148,15.9019259 16.7947407,16.0272222 16.5315556,16.1122222 C16.2047778,16.218 15.4271852,16.3961852 13.8971852,16.3961852 C12.7525185,16.3961852 11.3887407,16.2941852 10.0608519,16.1090741 C9.95633333,16.0945926 9.85055556,16.0876667 9.7472963,16.0876667 C9.7177037,16.0876667 9.68622222,16.0882963 9.65537037,16.0895556 C9.82662963,15.8276296 9.90848148,15.5279259 9.88455556,15.2257037 C9.84551852,14.7150741 9.79074074,14.212 9.73911111,13.7234074 C9.60751852,12.5107407 9.48348148,11.3629259 9.60437037,10.3064074 C9.80585185,8.55225926 11.0241852,7.70981481 12.9980741,6.48014815 C13.9494444,5.88640741 15.0154074,5.22277778 15.906963,4.3457037 C16.3546296,4.77448148 16.8784815,5.14974074 17.4797778,5.47274074 C18.0942963,5.80203704 18.7314815,6.01862963 19.2937407,6.20877778 C19.5732963,6.30448148 19.8377407,6.39388889 20.0788889,6.48959259 C22.6370741,7.50644444 23.6935926,8.44207407 23.9794444,9.94311111 C24.2885926,11.5776296 24.14,13.294 23.6218148,14.0243704 Z M30.4413333,16.699037 C28.9761852,16.9395556 27.5979259,16.9628519 25.6706296,16.9748148 C25.6328519,16.1764444 25.8544815,15.1614815 25.256963,14.8296667 C26.1428519,13.5767037 26.1699259,11.361037 25.8544815,9.69566667 C25.3835185,7.21681481 23.2641852,6.001 20.8948889,5.0597037 C20.0927407,4.74048148 19.2370741,4.53144444 18.5073333,4.13981481 C17.0402963,3.3552963 16.2305926,2.18985185 15.9352963,0.461518519 C15.2918148,5.33233333 8.29096296,5.1277037 7.71485185,10.1546667 C7.5247037,11.8194074 7.85211111,13.5571852 7.99,15.3270741 C6.88625926,15.3711481 7.28607407,16.4616667 7.11859259,17.2442963 C5.06662963,17.2310741 2.47192593,17.5106296 1.10185185,16.8218148 C-0.221,14.8737407 1.47081481,14.331 1.47081481,14.331 C0.632148148,14.4751852 0.0931851852,14.8674444 0,15.6343333 L0,16.7072222 C0.0824814815,17.8525185 0.105777778,18.5016667 1.01055556,18.955 C3.04425926,19.9762593 7.81118519,19.0299259 10.5607778,19.1848148 C10.5903704,18.7736667 9.64466667,18.0187407 9.75044444,17.6711852 C12.1140741,18.0011111 15.3635926,18.19 17.221,17.5880741 C18.9795556,17.0176296 22.1018889,15.4114444 23.6318889,16.858963 C23.6067037,17.2543704 22.7082222,17.8978519 22.7787407,18.343 C24.9282963,19.1350741 29.115963,18.5872963 30.5559259,18.4878148 C32.8339259,18.3285185 33.2671111,19.510963 33.5838148,19.827037 C34.5962593,17.8235556 32.7426296,16.3225185 30.4413333,16.699037 Z M27.6010741,25.4275926 C27.6010741,25.4275926 27.732037,25.8935185 28.6519259,26.3216667 C29.5718148,26.7479259 29.5283704,26.2184074 30.0547407,27.4606667 C30.5811111,28.7035556 30.2971481,31.7163333 30.2971481,31.7163333 L31.1502963,32.4939259 C31.1502963,32.4939259 31.5356296,25.9312963 31.1502963,25.4275926 C30.5049259,24.5876667 27.6010741,25.4275926 27.6010741,25.4275926 Z M25.0787778,20.9402222 C24.2615185,21.7713333 25.0787778,32.611037 25.0787778,32.611037 L26.8826667,31.3278519 C26.8826667,31.3278519 26.2807407,26.35 27.3907778,24.2974074 C28.5020741,22.2454444 28.4107778,23.1206296 30.3550741,22.4148148 C32.2993704,21.709 32.5764074,20.9402222 32.5764074,20.9402222 C32.5764074,20.9402222 26.440037,19.5518889 25.0787778,20.9402222 L25.0787778,20.9402222 Z" id="Fill-1"></path>
            </g>
        </g>
    </g>
</svg>