<svg xmlns="http://www.w3.org/2000/svg" width="9" height="8" viewBox="0 0 9 8">
    <g fill="none" fill-rule="evenodd" opacity=".5">
        <g fill="#333" fill-rule="nonzero">
            <g>
                <g>
                    <g>
                        <path d="M4.5 8.348c-.271 0-.54-.059-.786-.173L0 6.461v4.289c0 .414.336.75.75.75h7.5c.414 0 .75-.336.75-.75V6.46L5.286 8.176c-.247.114-.515.173-.786.173zM8.25 4H.75C.336 4 0 4.336 0 4.75v.885l4.028 1.86c.3.138.644.138.943 0L9 5.634V4.75C9 4.336 8.664 4 8.25 4z" transform="translate(-726 -464) translate(709 375) translate(17 51) translate(0 34)"/>
                    </g>
                </g>
            </g>
        </g>
    </g>
</svg>
