<svg xmlns="http://www.w3.org/2000/svg" width="12" height="15" viewBox="0 0 12 15">
    <g fill="none" fill-rule="evenodd" opacity=".5">
        <g fill="#333" fill-rule="nonzero">
            <g>
                <g>
                    <g>
                        <path d="M6 8.2c1.988 0 3.6-1.612 3.6-3.6S7.988 1 6 1 2.4 2.612 2.4 4.6C2.402 6.587 4.013 8.198 6 8.2zM3 9.927c-1.79.674-3 1.928-3 3.365V15.4h5.4l-2.4-3V9.927zm4.395.114L6 10.6l-1.395-.56c-.086-.058-.199-.06-.287-.005-.088.056-.134.158-.118.261v1.808c-.016.103.03.205.118.26.088.056.201.054.287-.005L6 11.8l1.395.56c.086.058.199.06.287.005.088-.056.134-.158.118-.261v-1.808c.016-.103-.03-.205-.118-.26-.088-.056-.201-.054-.287.005zM6 12.994c-.331 0-.6.27-.6.6 0 .332.269.6.6.6.331 0 .6-.268.6-.6 0-.159-.063-.311-.176-.424-.112-.112-.265-.176-.424-.176zm3-3.067V12.4l-2.4 3H12v-2.108c0-1.437-1.21-2.691-3-3.365z" transform="translate(-75 -547) translate(50 449) translate(25 25) translate(0 72)"/>
                    </g>
                </g>
            </g>
        </g>
    </g>
</svg>
