<svg xmlns="http://www.w3.org/2000/svg" xmlns:xlink="http://www.w3.org/1999/xlink" width="405" height="274" viewBox="0 0 405 274">
    <defs>
        <filter id="204z1hs47a" width="122.5%" height="227%" x="-11.2%" y="-50.8%" filterUnits="objectBoundingBox">
            <feOffset dy="8" in="SourceAlpha" result="shadowOffsetOuter1"/>
            <feGaussianBlur in="shadowOffsetOuter1" result="shadowBlurOuter1" stdDeviation="12"/>
            <feColorMatrix in="shadowBlurOuter1" values="0 0 0 0 0.0502641016 0 0 0 0 0.0746531372 0 0 0 0 0.0982223732 0 0 0 0.0481315559 0"/>
        </filter>
        <filter id="5ecvf9clnc" width="122.5%" height="227%" x="-11.2%" y="-50.8%" filterUnits="objectBoundingBox">
            <feOffset dy="8" in="SourceAlpha" result="shadowOffsetOuter1"/>
            <feGaussianBlur in="shadowOffsetOuter1" result="shadowBlurOuter1" stdDeviation="12"/>
            <feColorMatrix in="shadowBlurOuter1" values="0 0 0 0 0.0502641016 0 0 0 0 0.0746531372 0 0 0 0 0.0982223732 0 0 0 0.0481315559 0"/>
        </filter>
        <filter id="wq59k9oooe" width="122.5%" height="227%" x="-11.2%" y="-50.8%" filterUnits="objectBoundingBox">
            <feOffset dy="8" in="SourceAlpha" result="shadowOffsetOuter1"/>
            <feGaussianBlur in="shadowOffsetOuter1" result="shadowBlurOuter1" stdDeviation="12"/>
            <feColorMatrix in="shadowBlurOuter1" values="0 0 0 0 0.0502641016 0 0 0 0 0.0746531372 0 0 0 0 0.0982223732 0 0 0 0.0481315559 0"/>
        </filter>
        <path id="jbyfhdl82b" d="M9.871 0h335.958c3.432 0 4.677.357 5.932 1.028 1.255.672 2.24 1.656 2.91 2.911.672 1.255 1.029 2.5 1.029 5.932v43.258c0 3.432-.357 4.677-1.028 5.932-.672 1.255-1.656 2.24-2.911 2.91-1.255.672-2.5 1.029-5.932 1.029H9.871c-3.432 0-4.677-.357-5.932-1.028-1.255-.672-2.24-1.656-2.91-2.911C.356 57.806 0 56.56 0 53.129V9.871c0-3.432.357-4.677 1.028-5.932C1.7 2.684 2.684 1.7 3.94 1.03 5.194.356 6.44 0 9.871 0z"/>
        <path id="w5mzm1lp8d" d="M9.871 0h335.958c3.432 0 4.677.357 5.932 1.028 1.255.672 2.24 1.656 2.91 2.911.672 1.255 1.029 2.5 1.029 5.932v43.258c0 3.432-.357 4.677-1.028 5.932-.672 1.255-1.656 2.24-2.911 2.91-1.255.672-2.5 1.029-5.932 1.029H9.871c-3.432 0-4.677-.357-5.932-1.028-1.255-.672-2.24-1.656-2.91-2.911C.356 57.806 0 56.56 0 53.129V9.871c0-3.432.357-4.677 1.028-5.932C1.7 2.684 2.684 1.7 3.94 1.03 5.194.356 6.44 0 9.871 0z"/>
        <path id="zcdbupdnzf" d="M9.871 0h335.958c3.432 0 4.677.357 5.932 1.028 1.255.672 2.24 1.656 2.91 2.911.672 1.255 1.029 2.5 1.029 5.932v43.258c0 3.432-.357 4.677-1.028 5.932-.672 1.255-1.656 2.24-2.911 2.91-1.255.672-2.5 1.029-5.932 1.029H9.871c-3.432 0-4.677-.357-5.932-1.028-1.255-.672-2.24-1.656-2.91-2.911C.356 57.806 0 56.56 0 53.129V9.871c0-3.432.357-4.677 1.028-5.932C1.7 2.684 2.684 1.7 3.94 1.03 5.194.356 6.44 0 9.871 0z"/>
    </defs>
    <g fill="none" fill-rule="evenodd">
        <g>
            <g>
                <g>
                    <g>
                        <g transform="translate(-556 -230) translate(463 244) translate(115) rotate(-3 369.942 -1.688)">
                            <use fill="#000" filter="url(#204z1hs47a)" xlink:href="#jbyfhdl82b"/>
                            <use fill="#FFF" xlink:href="#jbyfhdl82b"/>
                        </g>
                        <path fill="#8795A2" fill-opacity=".401" d="M60.092 21.7h131.816c.936 0 1.275.097 1.618.28.342.184.61.452.794.794.183.343.28.682.28 1.618v1.616c0 .936-.097 1.275-.28 1.618-.184.342-.452.61-.794.794-.343.183-.682.28-1.618.28H60.092c-.936 0-1.275-.097-1.618-.28-.342-.184-.61-.452-.794-.794-.183-.343-.28-.682-.28-1.618v-1.616c0-.936.097-1.275.28-1.618.184-.342.452-.61.794-.794.343-.183.682-.28 1.618-.28z" opacity=".5" transform="translate(-556 -230) translate(463 244) translate(115) rotate(-3 369.942 -1.688)"/>
                        <path fill="#8795A2" fill-opacity=".401" d="M60.092 34.3h103.816c.936 0 1.275.097 1.618.28.342.184.61.452.794.794.183.343.28.682.28 1.618v1.616c0 .936-.097 1.275-.28 1.618-.184.342-.452.61-.794.794-.343.183-.682.28-1.618.28H60.092c-.936 0-1.275-.097-1.618-.28-.342-.184-.61-.452-.794-.794-.183-.343-.28-.682-.28-1.618v-1.616c0-.936.097-1.275.28-1.618.184-.342.452-.61.794-.794.343-.183.682-.28 1.618-.28z" opacity=".3" transform="translate(-556 -230) translate(463 244) translate(115) rotate(-3 369.942 -1.688)"/>
                        <path fill="#8795A2" fill-opacity=".401" d="M18.29 14.7h24.32c1.249 0 1.701.13 2.158.374.456.244.814.602 1.058 1.058.244.457.374.91.374 2.157v26.422c0 1.248-.13 1.7-.374 2.157-.244.456-.602.814-1.058 1.058-.457.244-.91.374-2.157.374H18.289c-1.248 0-1.7-.13-2.157-.374-.456-.244-.814-.602-1.058-1.058-.244-.457-.374-.91-.374-2.157V18.289c0-1.248.13-1.7.374-2.157.244-.456.602-.814 1.058-1.058.457-.244.91-.374 2.157-.374z" opacity=".5" transform="translate(-556 -230) translate(463 244) translate(115) rotate(-3 369.942 -1.688)"/>
                        <path fill="#2DEA00" fill-opacity=".098" d="M283.59 22h54.32c1.249 0 1.701.13 2.158.374.456.244.814.602 1.058 1.058.244.457.374.91.374 2.157v16.422c0 1.248-.13 1.7-.374 2.157-.244.456-.602.814-1.058 1.058-.457.244-.91.374-2.157.374h-54.322c-1.248 0-1.7-.13-2.157-.374-.456-.244-.814-.602-1.058-1.058-.244-.457-.374-.91-.374-2.157V25.589c0-1.248.13-1.7.374-2.157.244-.456.602-.814 1.058-1.058.457-.244.91-.374 2.157-.374z" transform="translate(-556 -230) translate(463 244) translate(115) rotate(-3 369.942 -1.688)"/>
                        <text fill="#0D1319" font-family="Inter-Regular, Inter" font-size="10" letter-spacing="-.308" opacity=".5" transform="translate(-556 -230) translate(463 244) translate(115) rotate(-3 369.942 -1.688)">
                            <tspan x="298" y="38">Active</tspan>
                        </text>
                    </g>
                    <g>
                        <g transform="translate(-556 -230) translate(463 244) translate(115) translate(2 92)">
                            <use fill="#000" filter="url(#5ecvf9clnc)" xlink:href="#w5mzm1lp8d"/>
                            <use fill="#FFF" xlink:href="#w5mzm1lp8d"/>
                        </g>
                        <path fill="#0077EA" fill-opacity=".098" d="M283.59 19h54.32c1.249 0 1.701.13 2.158.374.456.244.814.602 1.058 1.058.244.457.374.91.374 2.157v16.422c0 1.248-.13 1.7-.374 2.157-.244.456-.602.814-1.058 1.058-.457.244-.91.374-2.157.374h-54.322c-1.248 0-1.7-.13-2.157-.374-.456-.244-.814-.602-1.058-1.058-.244-.457-.374-.91-.374-2.157V22.589c0-1.248.13-1.7.374-2.157.244-.456.602-.814 1.058-1.058.457-.244.91-.374 2.157-.374z" transform="translate(-556 -230) translate(463 244) translate(115) translate(2 92)"/>
                        <text fill="#0D1319" font-family="Inter-Regular, Inter" font-size="10" letter-spacing="-.308" opacity=".5" transform="translate(-556 -230) translate(463 244) translate(115) translate(2 92)">
                            <tspan x="289" y="35">In Review</tspan>
                        </text>
                        <path fill="#8795A2" fill-opacity=".401" d="M60.092 21.7h131.816c.936 0 1.275.097 1.618.28.342.184.61.452.794.794.183.343.28.682.28 1.618v1.616c0 .936-.097 1.275-.28 1.618-.184.342-.452.61-.794.794-.343.183-.682.28-1.618.28H60.092c-.936 0-1.275-.097-1.618-.28-.342-.184-.61-.452-.794-.794-.183-.343-.28-.682-.28-1.618v-1.616c0-.936.097-1.275.28-1.618.184-.342.452-.61.794-.794.343-.183.682-.28 1.618-.28z" opacity=".5" transform="translate(-556 -230) translate(463 244) translate(115) translate(2 92)"/>
                        <path fill="#8795A2" fill-opacity=".401" d="M60.092 34.3h103.816c.936 0 1.275.097 1.618.28.342.184.61.452.794.794.183.343.28.682.28 1.618v1.616c0 .936-.097 1.275-.28 1.618-.184.342-.452.61-.794.794-.343.183-.682.28-1.618.28H60.092c-.936 0-1.275-.097-1.618-.28-.342-.184-.61-.452-.794-.794-.183-.343-.28-.682-.28-1.618v-1.616c0-.936.097-1.275.28-1.618.184-.342.452-.61.794-.794.343-.183.682-.28 1.618-.28z" opacity=".3" transform="translate(-556 -230) translate(463 244) translate(115) translate(2 92)"/>
                        <path fill="#8795A2" fill-opacity=".401" d="M18.29 14.7h24.32c1.249 0 1.701.13 2.158.374.456.244.814.602 1.058 1.058.244.457.374.91.374 2.157v26.422c0 1.248-.13 1.7-.374 2.157-.244.456-.602.814-1.058 1.058-.457.244-.91.374-2.157.374H18.289c-1.248 0-1.7-.13-2.157-.374-.456-.244-.814-.602-1.058-1.058-.244-.457-.374-.91-.374-2.157V18.289c0-1.248.13-1.7.374-2.157.244-.456.602-.814 1.058-1.058.457-.244.91-.374 2.157-.374z" opacity=".5" transform="translate(-556 -230) translate(463 244) translate(115) translate(2 92)"/>
                    </g>
                    <g>
                        <g transform="translate(-556 -230) translate(463 244) translate(115) translate(2 165)">
                            <use fill="#000" filter="url(#wq59k9oooe)" xlink:href="#zcdbupdnzf"/>
                            <use fill="#FFF" xlink:href="#zcdbupdnzf"/>
                        </g>
                        <path fill="#EA0000" fill-opacity=".098" d="M283.59 19h54.32c1.249 0 1.701.13 2.158.374.456.244.814.602 1.058 1.058.244.457.374.91.374 2.157v16.422c0 1.248-.13 1.7-.374 2.157-.244.456-.602.814-1.058 1.058-.457.244-.91.374-2.157.374h-54.322c-1.248 0-1.7-.13-2.157-.374-.456-.244-.814-.602-1.058-1.058-.244-.457-.374-.91-.374-2.157V22.589c0-1.248.13-1.7.374-2.157.244-.456.602-.814 1.058-1.058.457-.244.91-.374 2.157-.374z" transform="translate(-556 -230) translate(463 244) translate(115) translate(2 165)"/>
                        <text fill="#0D1319" font-family="Inter-Regular, Inter" font-size="10" letter-spacing="-.308" opacity=".5" transform="translate(-556 -230) translate(463 244) translate(115) translate(2 165)">
                            <tspan x="294" y="35">Inactive</tspan>
                        </text>
                        <path fill="#8795A2" fill-opacity=".401" d="M60.092 21.7h131.816c.936 0 1.275.097 1.618.28.342.184.61.452.794.794.183.343.28.682.28 1.618v1.616c0 .936-.097 1.275-.28 1.618-.184.342-.452.61-.794.794-.343.183-.682.28-1.618.28H60.092c-.936 0-1.275-.097-1.618-.28-.342-.184-.61-.452-.794-.794-.183-.343-.28-.682-.28-1.618v-1.616c0-.936.097-1.275.28-1.618.184-.342.452-.61.794-.794.343-.183.682-.28 1.618-.28z" opacity=".5" transform="translate(-556 -230) translate(463 244) translate(115) translate(2 165)"/>
                        <path fill="#8795A2" fill-opacity=".401" d="M60.092 34.3h103.816c.936 0 1.275.097 1.618.28.342.184.61.452.794.794.183.343.28.682.28 1.618v1.616c0 .936-.097 1.275-.28 1.618-.184.342-.452.61-.794.794-.343.183-.682.28-1.618.28H60.092c-.936 0-1.275-.097-1.618-.28-.342-.184-.61-.452-.794-.794-.183-.343-.28-.682-.28-1.618v-1.616c0-.936.097-1.275.28-1.618.184-.342.452-.61.794-.794.343-.183.682-.28 1.618-.28z" opacity=".3" transform="translate(-556 -230) translate(463 244) translate(115) translate(2 165)"/>
                        <path fill="#8795A2" fill-opacity=".401" d="M18.29 14.7h24.32c1.249 0 1.701.13 2.158.374.456.244.814.602 1.058 1.058.244.457.374.91.374 2.157v26.422c0 1.248-.13 1.7-.374 2.157-.244.456-.602.814-1.058 1.058-.457.244-.91.374-2.157.374H18.289c-1.248 0-1.7-.13-2.157-.374-.456-.244-.814-.602-1.058-1.058-.244-.457-.374-.91-.374-2.157V18.289c0-1.248.13-1.7.374-2.157.244-.456.602-.814 1.058-1.058.457-.244.91-.374 2.157-.374z" opacity=".5" transform="translate(-556 -230) translate(463 244) translate(115) translate(2 165)"/>
                    </g>
                </g>
            </g>
        </g>
    </g>
</svg>
