<svg xmlns="http://www.w3.org/2000/svg" xmlns:xlink="http://www.w3.org/1999/xlink" width="262" height="187" viewBox="0 0 262 187">
    <defs>
        <filter id="n6nzd7rc4b" width="123.2%" height="221.3%" x="-11.6%" y="-46.8%" filterUnits="objectBoundingBox">
            <feOffset dy="5" in="SourceAlpha" result="shadowOffsetOuter1"/>
            <feGaussianBlur in="shadowOffsetOuter1" result="shadowBlurOuter1" stdDeviation="6.5"/>
            <feColorMatrix in="shadowBlurOuter1" values="0 0 0 0 0.0502641016 0 0 0 0 0.0746531372 0 0 0 0 0.0982223732 0 0 0 0.0481315559 0"/>
        </filter>
        <filter id="rc5stkt7he" width="210.7%" height="221.3%" x="-55.4%" y="-46.8%" filterUnits="objectBoundingBox">
            <feOffset dy="5" in="SourceAlpha" result="shadowOffsetOuter1"/>
            <feGaussianBlur in="shadowOffsetOuter1" result="shadowBlurOuter1" stdDeviation="6.5"/>
            <feColorMatrix in="shadowBlurOuter1" values="0 0 0 0 0.0502641016 0 0 0 0 0.0746531372 0 0 0 0 0.0982223732 0 0 0 0.0481315559 0"/>
        </filter>
        <filter id="lbj09iuloh" width="123.2%" height="137.6%" x="-11.6%" y="-14.5%" filterUnits="objectBoundingBox">
            <feOffset dy="5" in="SourceAlpha" result="shadowOffsetOuter1"/>
            <feGaussianBlur in="shadowOffsetOuter1" result="shadowBlurOuter1" stdDeviation="6.5"/>
            <feColorMatrix in="shadowBlurOuter1" values="0 0 0 0 0.0502641016 0 0 0 0 0.0746531372 0 0 0 0 0.0982223732 0 0 0 0.0481315559 0"/>
        </filter>
        <path id="gz8hej5kja" d="M9.6 0h170.305c3.338 0 4.548.348 5.768 1 1.22.653 2.178 1.61 2.83 2.83.653 1.221 1.001 2.431 1.001 5.77v17.089c0 3.338-.348 4.548-1 5.768-.653 1.22-1.61 2.178-2.83 2.83-1.221.653-2.431 1.001-5.77 1.001H9.6c-3.338 0-4.548-.348-5.768-1-1.22-.653-2.178-1.61-2.83-2.83C.347 31.236 0 30.026 0 26.687V9.6c0-3.338.348-4.548 1-5.768C1.653 2.61 2.61 1.653 3.83 1 5.052.347 6.262 0 9.6 0z"/>
        <path id="yhvrkf1eid" d="M9.6 0h20.545c3.338 0 4.548.348 5.768 1 1.22.653 2.178 1.61 2.83 2.83.653 1.221 1.001 2.431 1.001 5.77v17.089c0 3.338-.348 4.548-1 5.768-.653 1.22-1.61 2.178-2.83 2.83-1.221.653-2.431 1.001-5.77 1.001H9.6c-3.338 0-4.548-.348-5.768-1-1.22-.653-2.178-1.61-2.83-2.83C.347 31.236 0 30.026 0 26.687V9.6c0-3.338.348-4.548 1-5.768C1.653 2.61 2.61 1.653 3.83 1 5.052.347 6.262 0 9.6 0z"/>
        <path id="55fh13ndkg" d="M9.6 0h170.305c3.338 0 4.548.348 5.768 1 1.22.653 2.178 1.61 2.83 2.83.653 1.221 1.001 2.431 1.001 5.77v97.729c0 3.338-.348 4.548-1 5.768-.653 1.22-1.61 2.178-2.83 2.83-1.221.653-2.431 1.001-5.77 1.001H9.6c-3.338 0-4.548-.348-5.768-1-1.22-.653-2.178-1.61-2.83-2.83C.347 111.876 0 110.666 0 107.327V9.6c0-3.338.348-4.548 1-5.768C1.653 2.61 2.61 1.653 3.83 1 5.052.347 6.262 0 9.6 0z"/>
    </defs>
    <g fill="none" fill-rule="evenodd">
        <g>
            <g>
                <g transform="translate(-626 -307) translate(639 315)">
                    <mask id="1uht5s9wdc" fill="#fff">
                        <use xlink:href="#gz8hej5kja"/>
                    </mask>
                    <g>
                        <use fill="#000" filter="url(#n6nzd7rc4b)" xlink:href="#gz8hej5kja"/>
                        <use fill="#FFF" xlink:href="#gz8hej5kja"/>
                    </g>
                    <path fill="#8795A2" fill-opacity=".401" d="M19.702 16.128H139.85c.642 0 .875.067 1.11.192.234.126.418.31.544.545.125.234.192.467.192 1.109v.916c0 .642-.067.875-.192 1.11-.126.234-.31.418-.545.544-.234.125-.467.192-1.109.192H19.702c-.642 0-.875-.067-1.11-.192-.234-.126-.418-.31-.544-.545-.125-.234-.192-.467-.192-1.109v-.916c0-.642.067-.875.192-1.11.126-.234.31-.418.545-.544.234-.125.467-.192 1.109-.192z" mask="url(#1uht5s9wdc)" opacity=".3"/>
                </g>
                <g transform="translate(-626 -307) translate(639 315) translate(196.992)">
                    <mask id="26920yff2f" fill="#fff">
                        <use xlink:href="#yhvrkf1eid"/>
                    </mask>
                    <g>
                        <use fill="#000" filter="url(#rc5stkt7he)" xlink:href="#yhvrkf1eid"/>
                        <use fill="#FFF" xlink:href="#yhvrkf1eid"/>
                    </g>
                    <g stroke="#339BFF" stroke-linecap="round" stroke-linejoin="round" stroke-width="3" mask="url(#26920yff2f)">
                        <g>
                            <path d="M11.52 5.76c0 3.181-2.579 5.76-5.76 5.76C2.58 11.52 0 8.941 0 5.76 0 2.579 2.58 0 5.76 0c3.181 0 5.76 2.579 5.76 5.76zM14.4 14.4L10.08 10.08" transform="translate(12.672 10.944)"/>
                        </g>
                    </g>
                </g>
                <path stroke="#8795A2" stroke-dasharray="4.608 6.336" stroke-linecap="round" stroke-linejoin="round" stroke-opacity=".401" stroke-width="1.728" d="M177.287 126.72h39.577V36.288" transform="translate(-626 -307) translate(639 315)"/>
                <g transform="translate(-626 -307) translate(639 315) translate(0 43.776)">
                    <mask id="fwpzwyzvri" fill="#fff">
                        <use xlink:href="#55fh13ndkg"/>
                    </mask>
                    <g>
                        <use fill="#000" filter="url(#lbj09iuloh)" xlink:href="#55fh13ndkg"/>
                        <use fill="#FFF" xlink:href="#55fh13ndkg"/>
                    </g>
                    <path fill="#8795A2" fill-opacity=".401" d="M22.286 14.976h21.668c1.54 0 2.099.16 2.662.462.563.3 1.005.743 1.306 1.306.302.563.462 1.122.462 2.662v21.668c0 1.54-.16 2.099-.462 2.662-.3.563-.743 1.005-1.306 1.306-.563.302-1.122.462-2.662.462H22.286c-1.54 0-2.099-.16-2.662-.462-.563-.3-1.005-.743-1.306-1.306-.302-.563-.462-1.122-.462-2.662V19.406c0-1.54.16-2.099.462-2.662.3-.563.743-1.005 1.306-1.306.563-.302 1.122-.462 2.662-.462z" mask="url(#fwpzwyzvri)" opacity=".3"/>
                    <path fill="#339BFF" d="M22.286 58.752h21.668c1.54 0 2.099.16 2.662.462.563.3 1.005.743 1.306 1.306.302.563.462 1.122.462 2.662V84.85c0 1.54-.16 2.099-.462 2.662-.3.563-.743 1.005-1.306 1.306-.563.302-1.122.462-2.662.462H22.286c-1.54 0-2.099-.16-2.662-.462-.563-.3-1.005-.743-1.306-1.306-.302-.563-.462-1.122-.462-2.662V63.182c0-1.54.16-2.099.462-2.662.3-.563.743-1.005 1.306-1.306.563-.302 1.122-.462 2.662-.462z" mask="url(#fwpzwyzvri)"/>
                    <path fill="#8795A2" fill-opacity=".401" d="M20.81 101.952h24.62c1.027 0 1.4.107 1.775.308.376.2.67.495.871.87.201.376.308.749.308 1.776v24.62c0 1.027-.107 1.4-.308 1.775-.2.376-.495.67-.87.871-.376.201-.749.308-1.776.308H20.81c-1.027 0-1.4-.107-1.775-.308-.376-.2-.67-.495-.871-.87-.201-.376-.308-.749-.308-1.776v-24.62c0-1.027.107-1.4.308-1.775.2-.376.495-.67.87-.871.376-.201.749-.308 1.776-.308zM57.142 23.04h64.276c.642 0 .875.067 1.11.192.234.126.418.31.544.545.125.234.192.467.192 1.109v.916c0 .642-.067.875-.192 1.11-.126.234-.31.418-.545.544-.234.125-.467.192-1.109.192H57.142c-.642 0-.875-.067-1.11-.192-.234-.126-.418-.31-.544-.545-.125-.234-.192-.467-.192-1.109v-.916c0-.642.067-.875.192-1.11.126-.234.31-.418.545-.544.234-.125.467-.192 1.109-.192zM57.142 66.816h35.476c.642 0 .875.067 1.11.192.234.126.418.31.544.545.125.234.192.467.192 1.109v.916c0 .642-.067.875-.192 1.11-.126.234-.31.418-.545.544-.234.125-.467.192-1.109.192H57.142c-.642 0-.875-.067-1.11-.192-.234-.126-.418-.31-.544-.545-.125-.234-.192-.467-.192-1.109v-.916c0-.642.067-.875.192-1.11.126-.234.31-.418.545-.544.234-.125.467-.192 1.109-.192zM57.142 110.016h23.956c.642 0 .875.067 1.11.192.234.126.418.31.544.545.125.234.192.467.192 1.109v.916c0 .642-.067.875-.192 1.11-.126.234-.31.418-.545.544-.234.125-.467.192-1.109.192H57.142c-.642 0-.875-.067-1.11-.192-.234-.126-.418-.31-.544-.545-.125-.234-.192-.467-.192-1.109v-.916c0-.642.067-.875.192-1.11.126-.234.31-.418.545-.544.234-.125.467-.192 1.109-.192zM57.142 34.56h44.692c.642 0 .875.067 1.11.192.234.126.418.31.544.545.125.234.192.467.192 1.109v.916c0 .642-.067.875-.192 1.11-.126.234-.31.418-.545.544-.234.125-.467.192-1.109.192H57.142c-.642 0-.875-.067-1.11-.192-.234-.126-.418-.31-.544-.545-.125-.234-.192-.467-.192-1.109v-.916c0-.642.067-.875.192-1.11.126-.234.31-.418.545-.544.234-.125.467-.192 1.109-.192zM57.142 78.336h68.884c.642 0 .875.067 1.11.192.234.126.418.31.544.545.125.234.192.467.192 1.109v.916c0 .642-.067.875-.192 1.11-.126.234-.31.418-.545.544-.234.125-.467.192-1.109.192H57.142c-.642 0-.875-.067-1.11-.192-.234-.126-.418-.31-.544-.545-.125-.234-.192-.467-.192-1.109v-.916c0-.642.067-.875.192-1.11.126-.234.31-.418.545-.544.234-.125.467-.192 1.109-.192z" mask="url(#fwpzwyzvri)" opacity=".3"/>
                    <path fill="#8795A2" fill-opacity=".401" d="M57.142 121.536h44.692c.642 0 .875.067 1.11.192.234.126.418.31.544.545.125.234.192.467.192 1.109v.916c0 .642-.067.875-.192 1.11-.126.234-.31.418-.545.544-.234.125-.467.192-1.109.192H57.142c-.642 0-.875-.067-1.11-.192-.234-.126-.418-.31-.544-.545-.125-.234-.192-.467-.192-1.109v-.916c0-.642.067-.875.192-1.11.126-.234.31-.418.545-.544.234-.125.467-.192 1.109-.192z" mask="url(#fwpzwyzvri)" opacity=".4"/>
                </g>
            </g>
        </g>
    </g>
</svg>
