<svg xmlns="http://www.w3.org/2000/svg" xmlns:xlink="http://www.w3.org/1999/xlink" width="282" height="214" viewBox="0 0 282 214">
    <defs>
        <path id="qtg1a59keb" d="M16.665 0h128.67c5.795 0 7.896.603 10.014 1.736 2.119 1.133 3.782 2.796 4.915 4.915C161.397 8.769 162 10.87 162 16.665v132.67c0 5.795-.603 7.896-1.736 10.014-1.133 2.119-2.796 3.782-4.915 4.915-2.118 1.133-4.22 1.736-10.014 1.736H16.665c-5.795 0-7.896-.603-10.014-1.736-2.119-1.133-3.782-2.796-4.915-4.915C.603 157.231 0 155.13 0 149.335V16.665C0 10.87.603 8.77 1.736 6.651 2.87 4.532 4.532 2.869 6.651 1.736 8.769.603 10.87 0 16.665 0z"/>
        <path id="46d8nslykc" d="M6.41 0h91.18c2.23 0 3.037.232 3.852.668.815.436 1.454 1.075 1.89 1.89.436.815.668 1.623.668 3.852v39.18c0 2.23-.232 3.037-.668 3.852-.436.815-1.075 1.454-1.89 1.89-.815.436-1.623.668-3.852.668H6.41c-2.23 0-3.037-.232-3.852-.668-.815-.436-1.454-1.075-1.89-1.89C.232 48.627 0 47.82 0 45.59V6.41c0-2.23.232-3.037.668-3.852.436-.815 1.075-1.454 1.89-1.89C3.373.232 4.18 0 6.41 0z"/>
        <path id="1wife8l16e" d="M16.665 0h28.67c5.795 0 7.896.603 10.014 1.736 2.119 1.133 3.782 2.796 4.915 4.915C61.397 8.769 62 10.87 62 16.665v69.67c0 5.795-.603 7.896-1.736 10.014-1.133 2.119-2.796 3.782-4.915 4.915-2.118 1.133-4.22 1.736-10.014 1.736h-28.67c-5.795 0-7.896-.603-10.014-1.736-2.119-1.133-3.782-2.796-4.915-4.915C.603 94.231 0 92.13 0 86.335v-69.67C0 10.87.603 8.77 1.736 6.651 2.87 4.532 4.532 2.869 6.651 1.736 8.769.603 10.87 0 16.665 0z"/>
        <path id="q0tefxmyki" d="M16.665 0h28.67c5.795 0 7.896.603 10.014 1.736 2.119 1.133 3.782 2.796 4.915 4.915C61.397 8.769 62 10.87 62 16.665v17.67c0 5.795-.603 7.896-1.736 10.014-1.133 2.119-2.796 3.782-4.915 4.915C53.231 50.397 51.13 51 45.335 51h-28.67c-5.795 0-7.896-.603-10.014-1.736-2.119-1.133-3.782-2.796-4.915-4.915C.603 42.231 0 40.13 0 34.335v-17.67C0 10.87.603 8.77 1.736 6.651 2.87 4.532 4.532 2.869 6.651 1.736 8.769.603 10.87 0 16.665 0z"/>
        <filter id="xwce9qttya" width="149.4%" height="148.2%" x="-24.7%" y="-19.3%" filterUnits="objectBoundingBox">
            <feOffset dy="8" in="SourceAlpha" result="shadowOffsetOuter1"/>
            <feGaussianBlur in="shadowOffsetOuter1" result="shadowBlurOuter1" stdDeviation="12"/>
            <feColorMatrix in="shadowBlurOuter1" values="0 0 0 0 0.0502641016 0 0 0 0 0.0746531372 0 0 0 0 0.0982223732 0 0 0 0.0481315559 0"/>
        </filter>
        <filter id="d0f8emm1lf" width="229%" height="177.7%" x="-64.5%" y="-31.1%" filterUnits="objectBoundingBox">
            <feOffset dy="8" in="SourceAlpha" result="shadowOffsetOuter1"/>
            <feGaussianBlur in="shadowOffsetOuter1" result="shadowBlurOuter1" stdDeviation="12"/>
            <feColorMatrix in="shadowBlurOuter1" values="0 0 0 0 0.0502641016 0 0 0 0 0.0746531372 0 0 0 0 0.0982223732 0 0 0 0.0481315559 0"/>
        </filter>
        <filter id="0fxd8ajich" width="229%" height="256.9%" x="-64.5%" y="-62.7%" filterUnits="objectBoundingBox">
            <feOffset dy="8" in="SourceAlpha" result="shadowOffsetOuter1"/>
            <feGaussianBlur in="shadowOffsetOuter1" result="shadowBlurOuter1" stdDeviation="12"/>
            <feColorMatrix in="shadowBlurOuter1" values="0 0 0 0 0.0502641016 0 0 0 0 0.0746531372 0 0 0 0 0.0982223732 0 0 0 0.0481315559 0"/>
        </filter>
    </defs>
    <g fill="none" fill-rule="evenodd" transform="translate(24 16)">
        <g transform="translate(72)">
            <use fill="#000" filter="url(#xwce9qttya)" xlink:href="#qtg1a59keb"/>
            <use fill="#FFF" xlink:href="#qtg1a59keb"/>
            <path stroke="#8795A2" stroke-dasharray="8 11" stroke-opacity=".401" d="M27.923 78h95.154c.669 0 .911.07 1.156.2.244.131.436.323.567.567.13.245.2.487.2 1.156v41.154c0 .669-.07.911-.2 1.156-.131.244-.323.436-.567.567-.245.13-.487.2-1.156.2H27.923c-.669 0-.911-.07-1.156-.2-.244-.131-.436-.323-.567-.567-.13-.245-.2-.487-.2-1.156V79.923c0-.669.07-.911.2-1.156.131-.244.323-.436.567-.567.245-.13.487-.2 1.156-.2z"/>
            <g transform="translate(40 92)">
                <mask id="6ovflmtqrd" fill="#fff">
                    <use xlink:href="#46d8nslykc"/>
                </mask>
                <use fill="#F8F8F8" xlink:href="#46d8nslykc"/>
                <path fill="#8795A2" fill-opacity=".401" d="M16.128 11h19.744c1.783 0 2.43.186 3.082.534.652.349 1.163.86 1.512 1.512.348.652.534 1.299.534 3.082v19.744c0 1.783-.186 2.43-.534 3.082-.349.652-.86 1.163-1.512 1.512-.652.348-1.299.534-3.082.534H16.128c-1.783 0-2.43-.186-3.082-.534-.652-.349-1.163-.86-1.512-1.512-.348-.652-.534-1.299-.534-3.082V16.128c0-1.783.186-2.43.534-3.082.349-.652.86-1.163 1.512-1.512.652-.348 1.299-.534 3.082-.534zM54.128 11h51.744c1.783 0 2.43.186 3.082.534.652.349 1.163.86 1.512 1.512.348.652.534 1.299.534 3.082v19.744c0 1.783-.186 2.43-.534 3.082-.349.652-.86 1.163-1.512 1.512-.652.348-1.299.534-3.082.534H54.128c-1.783 0-2.43-.186-3.082-.534-.652-.349-1.163-.86-1.512-1.512-.348-.652-.534-1.299-.534-3.082V16.128c0-1.783.186-2.43.534-3.082.349-.652.86-1.163 1.512-1.512.652-.348 1.299-.534 3.082-.534z" mask="url(#6ovflmtqrd)" opacity=".3"/>
            </g>
            <path fill="#339BFF" d="M27.785 24h44.43c.503 0 .773.07 1.018.2.244.131.436.323.567.567.13.245.2.515.2 1.018v.43c0 .503-.07.773-.2 1.018-.131.244-.323.436-.567.567-.245.13-.515.2-1.018.2h-44.43c-.503 0-.773-.07-1.018-.2-.244-.131-.436-.323-.567-.567-.13-.245-.2-.515-.2-1.018v-.43c0-.503.07-.773.2-1.018.131-.244.323-.436.567-.567.245-.13.515-.2 1.018-.2z"/>
            <path fill="#8795A2" fill-opacity=".401" d="M27.785 36h84.43c.503 0 .773.07 1.018.2.244.131.436.323.567.567.13.245.2.515.2 1.018v.43c0 .503-.07.773-.2 1.018-.131.244-.323.436-.567.567-.245.13-.515.2-1.018.2h-84.43c-.503 0-.773-.07-1.018-.2-.244-.131-.436-.323-.567-.567-.13-.245-.2-.515-.2-1.018v-.43c0-.503.07-.773.2-1.018.131-.244.323-.436.567-.567.245-.13.515-.2 1.018-.2z" opacity=".4"/>
        </g>
        <mask id="vmcgw47kvg" fill="#fff">
            <use xlink:href="#1wife8l16e"/>
        </mask>
        <use fill="#000" filter="url(#d0f8emm1lf)" xlink:href="#1wife8l16e"/>
        <use fill="#FFF" xlink:href="#1wife8l16e"/>
        <path fill="#8795A2" fill-opacity=".401" d="M13.128 52h8.744c1.783 0 2.43.186 3.082.534.652.349 1.163.86 1.512 1.512.348.652.534 1.299.534 3.082v31.744c0 1.783-.186 2.43-.534 3.082-.349.652-.86 1.163-1.512 1.512-.652.348-1.299.534-3.082.534h-8.744c-1.783 0-2.43-.186-3.082-.534-.652-.349-1.163-.86-1.512-1.512C8.186 91.302 8 90.655 8 88.872V57.128c0-1.783.186-2.43.534-3.082.349-.652.86-1.163 1.512-1.512.652-.348 1.299-.534 3.082-.534zM40.128 24h8.744c1.783 0 2.43.186 3.082.534.652.349 1.163.86 1.512 1.512.348.652.534 1.299.534 3.082v59.744c0 1.783-.186 2.43-.534 3.082-.349.652-.86 1.163-1.512 1.512-.652.348-1.299.534-3.082.534h-8.744c-1.783 0-2.43-.186-3.082-.534-.652-.349-1.163-.86-1.512-1.512-.348-.652-.534-1.299-.534-3.082V29.128c0-1.783.186-2.43.534-3.082.349-.652.86-1.163 1.512-1.512.652-.348 1.299-.534 3.082-.534z" mask="url(#vmcgw47kvg)" opacity=".4"/>
        <path stroke="#339BFF" stroke-linecap="round" stroke-width="3" d="M0 70.642c1.493-5.138 5.36-7.47 11.602-6.994C20.965 64.36 23.474 74.254 31 73c5.017-.836 9.517-10.39 13.5-28.664" mask="url(#vmcgw47kvg)"/>
        <circle cx="45.5" cy="38.5" r="5.5" stroke="#339BFF" stroke-width="3" mask="url(#vmcgw47kvg)"/>
        <g transform="translate(0 115)">
            <use fill="#000" filter="url(#0fxd8ajich)" xlink:href="#q0tefxmyki"/>
            <use fill="#FFF" xlink:href="#q0tefxmyki"/>
            <path fill="#8795A2" fill-opacity=".401" fill-rule="nonzero" d="M31.5 12.5c-7.18 0-13 5.82-13 13s5.82 13 13 13 13-5.82 13-13-5.82-13-13-13zm0 3c5.523 0 10 4.477 10 10s-4.477 10-10 10-10-4.477-10-10 4.477-10 10-10z" opacity=".4"/>
            <path stroke="#339BFF" stroke-linecap="round" stroke-width="3" d="M20 25.5C20 31.851 25.149 37 31.5 37"/>
        </g>
    </g>
</svg>
