<svg xmlns="http://www.w3.org/2000/svg" xmlns:xlink="http://www.w3.org/1999/xlink" width="163" height="140" viewBox="0 0 163 140">
    <defs>
        <filter id="m5f7rf5c4b" width="115.5%" height="180.8%" x="-7.7%" y="-33.4%" filterUnits="objectBoundingBox">
            <feOffset dy="2" in="SourceAlpha" result="shadowOffsetOuter1"/>
            <feGaussianBlur in="shadowOffsetOuter1" result="shadowBlurOuter1" stdDeviation="3.5"/>
            <feColorMatrix in="shadowBlurOuter1" values="0 0 0 0 0.0502641016 0 0 0 0 0.0746531372 0 0 0 0 0.0982223732 0 0 0 0.0740881433 0"/>
        </filter>
        <filter id="lzrjmlafre" width="115.5%" height="125.1%" x="-7.7%" y="-10.4%" filterUnits="objectBoundingBox">
            <feOffset dy="2" in="SourceAlpha" result="shadowOffsetOuter1"/>
            <feGaussianBlur in="shadowOffsetOuter1" result="shadowBlurOuter1" stdDeviation="3.5"/>
            <feColorMatrix in="shadowBlurOuter1" values="0 0 0 0 0.0502641016 0 0 0 0 0.0746531372 0 0 0 0 0.0982223732 0 0 0 0.0740881433 0"/>
        </filter>
        <path id="zq9x7hnyra" d="M7.526 0h133.52c2.616 0 3.565.272 4.522.784.957.512 1.707 1.263 2.219 2.22.512.956.784 1.905.784 4.522v13.398c0 2.617-.272 3.566-.784 4.523-.512.956-1.262 1.707-2.22 2.219-.956.511-1.905.784-4.522.784H7.525c-2.616 0-3.565-.273-4.522-.784-.956-.512-1.707-1.263-2.219-2.22C.272 24.49 0 23.542 0 20.925V7.526C0 4.909.272 3.96.784 3.003c.512-.956 1.263-1.707 2.22-2.219C3.96.272 4.908 0 7.525 0z"/>
        <path id="qext3hedid" d="M7.526 0h133.52c2.616 0 3.565.272 4.522.784.957.512 1.707 1.263 2.219 2.22.512.956.784 1.905.784 4.522v76.62c0 2.617-.272 3.566-.784 4.522-.512.957-1.262 1.708-2.22 2.22-.956.511-1.905.784-4.522.784H7.525c-2.616 0-3.565-.273-4.522-.785-.956-.511-1.707-1.262-2.219-2.219C.272 87.712 0 86.763 0 84.146V7.526C0 4.909.272 3.96.784 3.003c.512-.956 1.263-1.707 2.22-2.219C3.96.272 4.908 0 7.525 0z"/>
    </defs>
    <g fill="none" fill-rule="evenodd">
        <g>
            <g>
                <g>
                    <g transform="translate(-559 -362) translate(482 367) translate(84)">
                        <mask id="b5jbrtki9c" fill="#fff">
                            <use xlink:href="#zq9x7hnyra"/>
                        </mask>
                        <g>
                            <use fill="#000" filter="url(#m5f7rf5c4b)" xlink:href="#zq9x7hnyra"/>
                            <use fill="#FFF" xlink:href="#zq9x7hnyra"/>
                        </g>
                        <path fill="#8795A2" fill-opacity=".401" d="M15.446 12.644h94.196c.504 0 .686.053.87.151.184.099.328.243.427.427.098.184.15.366.15.87v.718c0 .503-.052.685-.15.87-.099.183-.243.328-.427.426-.184.099-.366.151-.87.151H15.446c-.503 0-.685-.052-.87-.15-.183-.1-.328-.244-.426-.428-.098-.184-.15-.366-.15-.87v-.717c0-.504.052-.686.15-.87.098-.184.243-.328.427-.427.184-.098.366-.15.87-.15z" mask="url(#b5jbrtki9c)" opacity=".3"/>
                    </g>
                    <g transform="translate(-559 -362) translate(482 367) translate(84) translate(0 34.32)">
                        <mask id="9wm4jsx5ef" fill="#fff">
                            <use xlink:href="#qext3hedid"/>
                        </mask>
                        <g>
                            <use fill="#000" filter="url(#lzrjmlafre)" xlink:href="#qext3hedid"/>
                            <use fill="#FFF" xlink:href="#qext3hedid"/>
                        </g>
                        <path fill="#8795A2" fill-opacity=".401" d="M17.473 11.741H34.46c1.207 0 1.645.126 2.087.362.441.236.788.583 1.024 1.024.236.442.362.88.362 2.088v16.987c0 1.207-.126 1.645-.362 2.087-.236.442-.583.788-1.024 1.024-.442.236-.88.362-2.087.362H17.473c-1.208 0-1.646-.126-2.088-.362-.441-.236-.788-.582-1.024-1.024-.236-.442-.362-.88-.362-2.087V15.215c0-1.208.126-1.646.362-2.088.236-.441.583-.788 1.024-1.024.442-.236.88-.362 2.088-.362z" mask="url(#9wm4jsx5ef)" opacity=".3"/>
                        <path fill="#3362FA" d="M17.473 46.062H34.46c1.207 0 1.645.125 2.087.361.441.237.788.583 1.024 1.025.236.441.362.88.362 2.087v16.987c0 1.208-.126 1.646-.362 2.087-.236.442-.583.788-1.024 1.025-.442.236-.88.362-2.087.362H17.473c-1.208 0-1.646-.126-2.088-.362-.441-.237-.788-.583-1.024-1.025-.236-.441-.362-.88-.362-2.087V49.535c0-1.208.126-1.646.362-2.087.236-.442.583-.788 1.024-1.025.442-.236.88-.361 2.088-.361z" mask="url(#9wm4jsx5ef)"/>
                        <path fill="#8795A2" fill-opacity=".401" d="M16.315 79.93h19.302c.806 0 1.098.084 1.392.242.294.157.525.388.683.682.157.295.241.587.241 1.392v19.303c0 .805-.084 1.097-.241 1.391-.158.295-.389.526-.683.683-.294.157-.586.241-1.392.241H16.315c-.805 0-1.097-.084-1.392-.24-.294-.158-.525-.39-.683-.684-.157-.294-.24-.586-.24-1.391V82.246c0-.805.083-1.097.24-1.392.158-.294.389-.525.683-.682.295-.158.587-.242 1.392-.242zM44.8 18.063h50.392c.503 0 .685.053.87.151.183.099.328.243.426.427.099.184.151.366.151.87v.718c0 .503-.052.686-.15.87-.1.183-.244.328-.428.426-.184.099-.366.151-.87.151H44.8c-.503 0-.685-.052-.87-.15-.183-.1-.328-.244-.426-.428-.099-.183-.15-.366-.15-.87v-.717c0-.504.051-.686.15-.87.098-.184.243-.328.427-.427.184-.098.366-.15.87-.15zM44.8 52.384h27.813c.503 0 .685.052.87.15.183.099.328.243.426.427.098.184.15.367.15.87v.718c0 .503-.052.686-.15.87-.098.184-.243.328-.427.427-.184.098-.366.15-.87.15H44.8c-.503 0-.685-.052-.87-.15-.183-.099-.328-.243-.426-.427-.099-.184-.15-.367-.15-.87v-.718c0-.503.051-.686.15-.87.098-.184.243-.328.427-.426.184-.099.366-.151.87-.151zM44.8 86.253h18.78c.504 0 .687.052.87.15.185.099.329.243.427.427.099.184.151.367.151.87v.718c0 .503-.052.686-.15.87-.1.184-.243.328-.427.426-.184.099-.367.151-.87.151H44.799c-.503 0-.685-.052-.87-.15-.183-.099-.328-.243-.426-.427-.099-.184-.15-.367-.15-.87V87.7c0-.503.051-.686.15-.87.098-.184.243-.328.427-.427.184-.098.366-.15.87-.15zM44.8 27.095h35.038c.503 0 .686.052.87.15.184.1.328.244.426.428.099.184.151.366.151.87v.717c0 .504-.052.686-.15.87-.1.184-.243.329-.427.427-.184.098-.367.15-.87.15H44.799c-.503 0-.685-.052-.87-.15-.183-.098-.328-.243-.426-.427-.099-.184-.15-.366-.15-.87v-.718c0-.503.051-.685.15-.87.098-.183.243-.328.427-.426.184-.099.366-.151.87-.151zM44.8 61.415h54.004c.504 0 .686.053.87.151.184.099.328.243.427.427.098.184.15.366.15.87v.718c0 .503-.052.686-.15.87-.099.184-.243.328-.427.426-.184.099-.366.151-.87.151H44.8c-.503 0-.685-.052-.87-.15-.183-.1-.328-.243-.426-.427-.099-.184-.15-.367-.15-.87v-.718c0-.504.051-.686.15-.87.098-.184.243-.328.427-.427.184-.098.366-.15.87-.15z" mask="url(#9wm4jsx5ef)" opacity=".3"/>
                        <path fill="#8795A2" fill-opacity=".401" d="M44.8 95.284h35.038c.503 0 .686.053.87.151.184.098.328.243.426.427.099.184.151.366.151.87v.718c0 .503-.052.685-.15.87-.1.183-.243.328-.427.426-.184.098-.367.15-.87.15H44.799c-.503 0-.685-.052-.87-.15-.183-.098-.328-.243-.426-.427-.099-.184-.15-.366-.15-.87v-.718c0-.503.051-.685.15-.87.098-.183.243-.328.427-.426.184-.098.366-.15.87-.15z" mask="url(#9wm4jsx5ef)" opacity=".4"/>
                    </g>
                </g>
            </g>
        </g>
    </g>
</svg>
