<svg xmlns="http://www.w3.org/2000/svg" width="10" height="10" viewBox="0 0 10 10">
    <g fill="none" fill-rule="evenodd" opacity=".5">
        <g fill="#333" fill-rule="nonzero">
            <g>
                <g>
                    <g>
                        <path d="M9.734 9.27L8.41 7.947c-.172-.172-.405-.269-.648-.269s-.476.097-.648.269L6.016 9.044c-1.38-.579-2.479-1.676-3.058-3.057l1.098-1.098c.358-.358.358-.938 0-1.297L2.732 2.27C2.561 2.097 2.327 2 2.084 2s-.476.097-.648.269l-.63.629c-.65.656-.933 1.593-.752 2.499.654 3.31 3.241 5.898 6.552 6.552.906.18 1.843-.101 2.499-.752l.63-.63c.171-.172.268-.405.268-.648s-.097-.477-.269-.649z" transform="translate(-726 -445) translate(709 375) translate(17 51) translate(0 17)"/>
                    </g>
                </g>
            </g>
        </g>
    </g>
</svg>
