<svg xmlns="http://www.w3.org/2000/svg" width="12" height="12" viewBox="0 0 12 12">
    <g fill="none" fill-rule="evenodd" opacity=".5">
        <g fill="#000" fill-rule="nonzero">
            <g>
                <g>
                    <g>
                        <path d="M10.07 11.003c.715-.031 1.308-.566 1.413-1.275.105-.709-.307-1.392-.983-1.63l-2.557-.896L6.23 2.717 4.194 2l.171 3.948-1.505-.546-.449-.993L.95 3.892l-.097-.025L.5 7.742l9.01 3.177c.18.064.37.092.56.084zM11.5 13H.5c-.276 0-.5.224-.5.5s.224.5.5.5h11c.276 0 .5-.224.5-.5s-.224-.5-.5-.5z" transform="translate(-75 -690) translate(50 449) translate(25 25) translate(0 214)"/>
                    </g>
                </g>
            </g>
        </g>
    </g>
</svg>
