<svg xmlns="http://www.w3.org/2000/svg" width="14" height="13" viewBox="0 0 14 13">
    <g fill="none" fill-rule="evenodd" opacity=".5">
        <g fill="#333" fill-rule="nonzero">
            <g>
                <g>
                    <path d="M86.008 10.27c.202-.101.383-.241.532-.412.485-.564.597-1.359.287-2.035-.186-.432-.542-.769-.984-.931-.441-.162-.93-.136-1.352.072l-2.859 1.441L76.5 6l-2.278 1.143 3.41 3.278-1.698.833-1.194-.474-1.64.823-.1.062 2.917 3.668 10.091-5.062zm.409 7.397H73.583c-.322 0-.583.26-.583.583 0 .322.261.583.583.583h12.834c.322 0 .583-.26.583-.583 0-.322-.261-.583-.583-.583z" transform="translate(-678 -362) translate(167 328) translate(438 28)"/>
                </g>
            </g>
        </g>
    </g>
</svg>
