<svg xmlns="http://www.w3.org/2000/svg" width="21" height="21" fill="none" viewBox="0 0 21 21">
    <path fill="#333" fill-rule="evenodd" d="M16.235 8.75l-5.007-7.51c-.171-.23-.441-.365-.728-.365s-.557.135-.728.365L4.766 8.75H0l3.5 11.375h14L21 8.75h-4.765zM10.5 3.303L14.13 8.75H6.868L10.5 3.303zM6.125 17.5c.483 0 .875-.392.875-.875V12.25c0-.483-.392-.875-.875-.875s-.875.392-.875.875v4.375c0 .483.392.875.875.875zm5.25-.875c0 .483-.392.875-.875.875s-.875-.392-.875-.875V12.25c0-.483.392-.875.875-.875s.875.392.875.875v4.375zm3.5.875c.483 0 .875-.392.875-.875V12.25c0-.483-.392-.875-.875-.875s-.875.392-.875.875v4.375c0 .483.392.875.875.875z" clip-rule="evenodd"/>
</svg>
