<?xml version="1.0" encoding="UTF-8"?>
<svg width="15px" height="18px" viewBox="0 0 15 18" version="1.1" xmlns="http://www.w3.org/2000/svg" xmlns:xlink="http://www.w3.org/1999/xlink">
    <title>Source Market</title>
    <g id="Page-1" stroke="none" stroke-width="1" fill="none" fill-rule="evenodd">
        <path d="M13.2443428,0.5 C13.9739898,0.5 14.565502,1.11852187 14.565502,1.88148609 L14.565502,1.88148609 L14.565502,15.6963469 C14.565502,16.4593112 13.9739898,17.077833 13.2443428,17.077833 L13.2443428,17.077833 L1.35391018,17.077833 C0.62426318,17.077833 0.032751,16.4593112 0.032751,15.6963469 L0.032751,15.6963469 L0.032751,1.88148609 C0.032751,1.11852187 0.62426318,0.5 1.35391018,0.5 L1.35391018,0.5 Z M4.65661274,10.5767088 C3.74042043,10.5767088 3.05221086,11.0923333 3.05434154,11.8636394 C3.05434154,12.4900592 3.49965361,12.8501441 4.2176927,13.0355132 L4.71414109,13.163354 C5.18502133,13.2826721 5.49610057,13.429689 5.49823125,13.7684671 C5.49610057,14.141336 5.14240773,14.3906256 4.62678322,14.3906256 C4.13246551,14.3906256 3.74894315,14.1690349 3.71698295,13.7109387 L2.93928483,13.7109387 C2.97124503,14.5781254 3.616841,15.0660511 4.63317526,15.0660511 C5.67933904,15.0660511 6.28658277,14.5440345 6.28871345,13.7748591 C6.28658277,13.0184678 5.6622936,12.6732977 5.00604422,12.517758 L4.5969537,12.4154854 C4.2389995,12.3302582 3.85121578,12.17898 3.85547714,11.8146337 C3.85760782,11.486509 4.15164163,11.2457422 4.64595934,11.2457422 C5.11683957,11.2457422 5.42791882,11.4652022 5.46840174,11.8359405 L6.22905442,11.8359405 C6.21413966,11.0987253 5.58558913,10.5767088 4.65661274,10.5767088 Z M7.95917012,10.6363678 L6.9918415,10.6363678 L6.9918415,15 L7.7503635,15 L7.7503635,11.9957415 L7.79084642,11.9957415 L8.99681118,14.9872159 L9.563572,14.9872159 L10.7695368,12.0021335 L10.8100197,12.0021335 L10.8100197,15 L11.5685417,15 L11.5685417,10.6363678 L10.6012131,10.6363678 L9.30575975,13.7982966 L9.25462343,13.7982966 L7.95917012,10.6363678 Z M11.262604,7.09817347 L3.33564895,7.09817347 C2.97082092,7.09817347 2.67506936,7.40742966 2.67506936,7.78891651 C2.67506936,8.17040336 2.97082092,8.47965955 3.33564895,8.47965955 L3.33564895,8.47965955 L11.262604,8.47965955 C11.6274321,8.47965955 11.9231836,8.17040336 11.9231836,7.78891651 C11.9231836,7.40742966 11.6274321,7.09817347 11.262604,7.09817347 L11.262604,7.09817347 Z M11.262604,3.95371521 L3.33564895,3.95371521 C2.97082092,3.95371521 2.67506936,4.26297141 2.67506936,4.64445826 C2.67506936,5.0259451 2.97082092,5.3352013 3.33564895,5.3352013 L3.33564895,5.3352013 L11.262604,5.3352013 C11.6274321,5.3352013 11.9231836,5.0259451 11.9231836,4.64445826 C11.9231836,4.26297141 11.6274321,3.95371521 11.262604,3.95371521 L11.262604,3.95371521 Z" id="Source-Market" fill="#3362FA" fill-rule="nonzero"></path>
    </g>
</svg>