<?xml version="1.0" encoding="UTF-8"?>
<svg width="15px" height="18px" viewBox="0 0 15 18" version="1.1" xmlns="http://www.w3.org/2000/svg" xmlns:xlink="http://www.w3.org/1999/xlink">
    <title>Series Specific</title>
    <g id="Page-1" stroke="none" stroke-width="1" fill="none" fill-rule="evenodd">
        <path d="M13.3098448,0.5 C14.0394918,0.5 14.631004,1.11852187 14.631004,1.88148609 L14.631004,1.88148609 L14.631004,15.6963469 C14.631004,16.4593112 14.0394918,17.077833 13.3098448,17.077833 L13.3098448,17.077833 L1.41941218,17.077833 C0.68976518,17.077833 0.098253,16.4593112 0.098253,15.6963469 L0.098253,15.6963469 L0.098253,1.88148609 C0.098253,1.11852187 0.68976518,0.5 1.41941218,0.5 L1.41941218,0.5 Z M5.49342156,10.5767088 C4.57722925,10.5767088 3.88901968,11.0923333 3.89115036,11.8636394 C3.89115036,12.4900592 4.33646243,12.8501441 5.05450152,13.0355132 L5.55094991,13.163354 C6.02183014,13.2826721 6.33290939,13.429689 6.33504007,13.7684671 C6.33290939,14.141336 5.97921655,14.3906256 5.46359204,14.3906256 C4.96927433,14.3906256 4.58575197,14.1690349 4.55379177,13.7109387 L3.77609365,13.7109387 C3.80805385,14.5781254 4.45364982,15.0660511 5.46998408,15.0660511 C6.51614785,15.0660511 7.12339159,14.5440345 7.12552227,13.7748591 C7.12339159,13.0184678 6.49910242,12.6732977 5.84285304,12.517758 L5.43376252,12.4154854 C5.07580832,12.3302582 4.6880246,12.17898 4.69228596,11.8146337 C4.69441664,11.486509 4.98845045,11.2457422 5.48276816,11.2457422 C5.95364839,11.2457422 6.26472764,11.4652022 6.30521056,11.8359405 L7.06586324,11.8359405 C7.05094848,11.0987253 6.42239794,10.5767088 5.49342156,10.5767088 Z M9.38830792,10.5767088 C8.47211561,10.5767088 7.78390604,11.0923333 7.78603672,11.8636394 C7.78603672,12.4900592 8.2313488,12.8501441 8.94938788,13.0355132 L9.44583627,13.163354 C9.91671651,13.2826721 10.2277958,13.429689 10.2299264,13.7684671 C10.2277958,14.141336 9.87410291,14.3906256 9.3584784,14.3906256 C8.86416069,14.3906256 8.48063833,14.1690349 8.44867813,13.7109387 L7.67098001,13.7109387 C7.70294021,14.5781254 8.34853618,15.0660511 9.36487044,15.0660511 C10.4110342,15.0660511 11.018278,14.5440345 11.0204086,13.7748591 C11.018278,13.0184678 10.3939888,12.6732977 9.73773941,12.517758 L9.32864889,12.4154854 C8.97069468,12.3302582 8.58291096,12.17898 8.58717232,11.8146337 C8.589303,11.486509 8.88333681,11.2457422 9.37765452,11.2457422 C9.84853475,11.2457422 10.159614,11.4652022 10.2000969,11.8359405 L10.9607496,11.8359405 C10.9458348,11.0987253 10.3172843,10.5767088 9.38830792,10.5767088 Z M11.328106,7.09817347 L3.40115095,7.09817347 C3.03632292,7.09817347 2.74057136,7.40742966 2.74057136,7.78891651 C2.74057136,8.17040336 3.03632292,8.47965955 3.40115095,8.47965955 L3.40115095,8.47965955 L11.328106,8.47965955 C11.6929341,8.47965955 11.9886856,8.17040336 11.9886856,7.78891651 C11.9886856,7.40742966 11.6929341,7.09817347 11.328106,7.09817347 L11.328106,7.09817347 Z M11.328106,3.95371521 L3.40115095,3.95371521 C3.03632292,3.95371521 2.74057136,4.26297141 2.74057136,4.64445826 C2.74057136,5.0259451 3.03632292,5.3352013 3.40115095,5.3352013 L3.40115095,5.3352013 L11.328106,5.3352013 C11.6929341,5.3352013 11.9886856,5.0259451 11.9886856,4.64445826 C11.9886856,4.26297141 11.6929341,3.95371521 11.328106,3.95371521 L11.328106,3.95371521 Z" id="Series-Specific" fill="#3362FA" fill-rule="nonzero"></path>
    </g>
</svg>