<svg xmlns="http://www.w3.org/2000/svg" width="13" height="13" viewBox="0 0 13 13">
    <g fill="none" fill-rule="evenodd" opacity=".5">
        <g fill="#333" fill-rule="nonzero">
            <g>
                <g>
                    <g>
                        <path d="M11.917 7.717v-.842c-.001-1.587-1.148-2.94-2.714-3.202.001-.016.005-.032.005-.048C9.206 2.729 8.48 2.003 7.583 2H5.417c-.897.003-1.623.729-1.625 1.625 0 .016.004.032.005.048-1.566.261-2.713 1.615-2.714 3.202v.842C.415 8.101.002 8.812 0 9.583v4.334C0 14.515.485 15 1.083 15c.599 0 1.084-.485 1.084-1.083v-1.084h8.666v1.084c0 .598.485 1.083 1.084 1.083.598 0 1.083-.485 1.083-1.083V9.583c-.002-.77-.415-1.482-1.083-1.866zm-6.5-4.634h2.166c.3 0 .542.243.542.542 0 .3-.243.542-.542.542H5.417c-.3 0-.542-.243-.542-.542 0-.3.243-.542.542-.542zM2.708 6.875c.001-.897.728-1.624 1.625-1.625h4.334c.897.001 1.624.728 1.625 1.625v.542H2.708v-.542zm0 4.333c-.598 0-1.083-.485-1.083-1.083s.485-1.083 1.083-1.083c.599 0 1.084.485 1.084 1.083s-.485 1.083-1.084 1.083zm7.584 0c-.599 0-1.084-.485-1.084-1.083s.485-1.083 1.084-1.083c.598 0 1.083.485 1.083 1.083s-.485 1.083-1.083 1.083z" transform="translate(-451 -548) translate(50 449) translate(25 25) translate(376 72)"/>
                    </g>
                </g>
            </g>
        </g>
    </g>
</svg>
