<svg xmlns="http://www.w3.org/2000/svg" width="15" height="13" viewBox="0 0 15 13">
    <g fill="none" fill-rule="evenodd" opacity=".5">
        <g fill="#333" fill-rule="nonzero">
            <g>
                <g>
                    <path d="M0 16.44v2.06h1.875v-2.686c.008-.745.26-1.467.717-2.056C1.067 14.218 0 15.246 0 16.439zm7.5-4.815c1.553 0 2.813-1.26 2.813-2.813C10.313 7.26 9.053 6 7.5 6 5.947 6 4.687 7.26 4.687 8.813c.002 1.552 1.26 2.81 2.813 2.812zM3.437 8.812c0-.272.028-.543.082-.81-.227-.081-.466-.124-.707-.127C1.802 7.869.917 8.557.675 9.539c-.242.983.221 2.003 1.12 2.467.9.464 2 .252 2.66-.514-.655-.74-1.017-1.692-1.018-2.68zm8.971 4.946c.457.59.709 1.311.717 2.056V18.5H15v-2.06c0-1.194-1.067-2.222-2.592-2.682zm1.967-3.695c-.001-1.208-.98-2.187-2.188-2.188-.24.003-.48.046-.706.127.254 1.246-.093 2.538-.936 3.49.595.692 1.558.94 2.413.62.855-.318 1.42-1.137 1.417-2.05zM7.5 12.874c-2.412 0-4.375 1.319-4.375 2.94V18.5h8.75v-2.686c0-1.62-1.962-2.939-4.375-2.939z" transform="translate(-605 -362) translate(167 328) translate(438 28)"/>
                </g>
            </g>
        </g>
    </g>
</svg>
