<svg xmlns="http://www.w3.org/2000/svg" width="12" height="15" viewBox="0 0 12 15">
    <g fill="none" fill-rule="evenodd">
        <g fill="#3362FA" fill-rule="nonzero">
            <g>
                <path d="M915.168 37.917l-.518 8.678c-.037.65-.552 1.157-1.175 1.156h-7.194c-.623 0-1.139-.506-1.176-1.156l-.517-8.678h10.58zM911.64 33c.925 0 1.684.745 1.758 1.693l.005.15v.615h1.764c.324 0 .587.276.587.615 0 .306-.213.559-.492.607l-.095.008h-10.58c-.325 0-.588-.275-.588-.615 0-.305.213-.559.492-.607l.096-.008h1.763v-.614c0-.968.713-1.761 1.619-1.838l.144-.006h3.527zm0 1.23h-3.527c-.292 0-.534.222-.58.514l-.007.1v.614h4.702v-.614c0-.34-.263-.615-.588-.615z" transform="translate(-1071 -361) translate(167 328)"/>
            </g>
        </g>
    </g>
</svg>
