<svg xmlns="http://www.w3.org/2000/svg" width="13" height="13" viewBox="0 0 13 13">
    <g fill="none" fill-rule="evenodd" opacity=".5">
        <g fill="#333" fill-rule="nonzero">
            <g>
                <g>
                    <g>
                        <path d="M.542 5.708h1.625v.542c0 .598.485 1.083 1.083 1.083s1.083-.485 1.083-1.083V4.083C4.333 3.485 3.848 3 3.25 3s-1.083.485-1.083 1.083v.542H.542c-.3 0-.542.242-.542.541 0 .3.243.542.542.542zm0 4.334h7.041V8.958H.542c-.3 0-.542.243-.542.542 0 .3.243.542.542.542zM13 5.166c0-.299-.243-.541-.542-.541H5.417v1.083h7.041c.3 0 .542-.242.542-.542zM0 13.833c0 .3.243.542.542.542H3.25V13.29H.542c-.3 0-.542.243-.542.542zM12.458 8.96h-1.625v-.542c0-.599-.485-1.084-1.083-1.084s-1.083.485-1.083 1.084v2.166c0 .599.485 1.084 1.083 1.084s1.083-.485 1.083-1.084v-.541h1.625c.3 0 .542-.243.542-.542 0-.299-.243-.541-.542-.541zm0 4.332H6.5v-.541c0-.598-.485-1.083-1.083-1.083-.599 0-1.084.485-1.084 1.083v2.167c0 .598.485 1.083 1.084 1.083.598 0 1.083-.485 1.083-1.083v-.542h5.958c.3 0 .542-.243.542-.542 0-.3-.243-.542-.542-.542z" transform="translate(-75 -581) translate(50 449) translate(25 25) translate(0 104)"/>
                    </g>
                </g>
            </g>
        </g>
    </g>
</svg>
