<svg xmlns="http://www.w3.org/2000/svg" width="15" height="15" viewBox="0 0 15 15">
    <g fill="none" fill-rule="evenodd">
        <g fill="#333" fill-rule="nonzero">
            <g>
                <path d="M24.378 19.503c-.003-.612.178-1.21.519-1.719L21.77 14.66c-2.361 2.795-2.361 6.887 0 9.682l3.126-3.125c-.339-.507-.52-1.103-.52-1.713zm3.125-3.125c.612.001 1.21.181 1.72.519l3.124-3.126c-2.795-2.361-6.886-2.361-9.682 0l3.126 3.126c.508-.336 1.103-.517 1.712-.52zm5.72-1.713l-3.126 3.126c.7 1.041.7 2.402 0 3.444l3.125 3.125c2.375-2.79 2.375-6.892 0-9.682v-.013zm-5.72 7.963c-.613 0-1.213-.18-1.725-.518l-3.125 3.125c2.795 2.362 6.887 2.362 9.682 0L29.21 22.11c-.507.335-1.1.515-1.707.518z" transform="translate(-372 -381) translate(352 369)"/>
            </g>
        </g>
    </g>
</svg>
