<svg xmlns="http://www.w3.org/2000/svg" width="14" height="14" viewBox="0 0 14 14">
    <defs>
        <filter id="ihwo7h8wga">
            <feColorMatrix in="SourceGraphic" values="0 0 0 0 0.200000 0 0 0 0 0.200000 0 0 0 0 0.200000 0 0 0 1.000000 0"/>
        </filter>
        <filter id="2q7dc065hb">
            <feColorMatrix in="SourceGraphic" values="0 0 0 0 0.200000 0 0 0 0 0.200000 0 0 0 0 0.200000 0 0 0 1.000000 0"/>
        </filter>
    </defs>
    <g fill="none" fill-rule="evenodd" stroke-linecap="round" stroke-linejoin="round">
        <g>
            <g filter="url(#ihwo7h8wga)" transform="translate(-1025 -93) translate(0 75)">
                <g filter="url(#2q7dc065hb)" transform="translate(1025 17)">
                    <g stroke="#333" stroke-width="1.5">
                        <path d="M14 11.455H0V8.909c0-1.406 1.14-2.545 2.546-2.545h8.909C12.86 6.364 14 7.504 14 8.909v2.546zM0 11.455L0 14M2.546 8.903L2.546 8.909M11.455 8.903L11.455 8.909M1.91 6.364v-1.91c0-1.405 1.139-2.545 2.545-2.545h5.09c1.406 0 2.546 1.14 2.546 2.546v1.909" transform="translate(0 1)"/>
                        <path d="M4.455 1.91v-.637C4.455.57 5.025 0 5.727 0h2.546c.702 0 1.273.57 1.273 1.273v.636" transform="translate(0 1)"/>
                    </g>
                </g>
            </g>
        </g>
    </g>
</svg>
