<svg xmlns="http://www.w3.org/2000/svg" width="9" height="11" viewBox="0 0 9 11">
    <g fill="none" fill-rule="evenodd">
        <g fill="#C900EA" fill-rule="nonzero">
            <g>
                <path d="M25.14 147.662v3.418h1.26v-1.475c-.057-.822-.533-1.556-1.26-1.943zM22.2 141c-1.392 0-2.52 1.128-2.52 2.52 0 1.392 1.128 2.52 2.52 2.52 1.392 0 2.52-1.128 2.52-2.52-.002-1.391-1.129-2.518-2.52-2.52zm-4.2 8.605v1.475h1.26v-3.418c-.727.387-1.203 1.121-1.26 1.943zm2.1-2.356v3.831h4.2v-3.831c-1.357-.492-2.843-.492-4.2 0zm3.36.678v1.266c.011.072-.021.144-.083.182-.061.04-.14.038-.2-.003l-.977-.392-.977.391c-.06.042-.139.043-.2.004-.062-.039-.094-.11-.083-.182v-1.266c-.011-.072.021-.143.083-.182.061-.04.14-.038.2.003l.977.392.977-.392c.06-.04.139-.042.2-.003.062.039.094.11.083.182z" transform="translate(-1074 -273) translate(1056 132)"/>
            </g>
        </g>
    </g>
</svg>
