<svg xmlns="http://www.w3.org/2000/svg" width="11" height="11" viewBox="0 0 11 11">
    <g fill="none" fill-rule="evenodd">
        <g fill="#5E00EA" fill-rule="nonzero">
            <g>
                <path d="M23.593 188.807h-4.466v.893H16v4.02h4.467v-2.68l.893-.893.893.893v2.68h4.467v-4.02h-3.127v-.893zm-5.806 3.573h-.894v-.893l.447-.447.447.447v.893zm7.146-.893l.447-.447.447.447v.893h-.894v-.893zm-.018-2.68h1.377c.266-.154.43-.438.428-.745 0-.744-.93-1.116-1.117-1.489-.186.373-1.116.745-1.116 1.49-.001.306.162.59.428.744zm-1.363-.894c.32-.372.494-.849.488-1.34 0-1.786-2.233-2.68-2.68-3.573-.447.893-2.68 1.787-2.68 3.573-.006.491.168.968.488 1.34h4.384zm-7.124.894h1.377c.266-.154.43-.438.428-.745 0-.744-.93-1.116-1.116-1.489-.186.373-1.117.745-1.117 1.49-.001.306.162.59.428.744z" transform="translate(-1072 -315) translate(1056 132)"/>
            </g>
        </g>
    </g>
</svg>
