<svg xmlns="http://www.w3.org/2000/svg" width="11" height="11" viewBox="0 0 11 11">
    <g fill="none" fill-rule="evenodd">
        <g fill="#EA8300" fill-rule="nonzero">
            <g>
                <path d="M26.423 104.52v-.665c0-1.255-.908-2.325-2.145-2.532 0-.013.004-.025.004-.038-.002-.709-.577-1.283-1.285-1.285h-1.714c-.708.002-1.283.576-1.285 1.285 0 .013.004.025.004.038-1.237.207-2.145 1.277-2.145 2.532v.666c-.53.303-.856.866-.857 1.476v3.426c0 .473.384.857.857.857s.856-.384.856-.857v-.856h6.854v.856c0 .473.383.857.856.857s.857-.384.857-.857v-3.426c-.001-.61-.328-1.173-.857-1.476zm-5.14-3.663h1.714c.236 0 .428.191.428.428s-.192.428-.428.428h-1.714c-.236 0-.428-.191-.428-.428s.192-.428.428-.428zm-2.141 2.998c0-.71.575-1.284 1.285-1.285h3.426c.71 0 1.285.576 1.285 1.285v.428h-5.996v-.428zm0 3.427c-.473 0-.857-.384-.857-.857s.384-.857.857-.857.856.384.856.857-.383.857-.856.857zm5.996 0c-.473 0-.856-.384-.856-.857s.383-.857.856-.857.857.384.857.857-.384.857-.857.857z" transform="translate(-1073 -232) translate(1056 132)"/>
            </g>
        </g>
    </g>
</svg>
