<svg xmlns="http://www.w3.org/2000/svg" width="14" height="17" viewBox="0 0 14 17">
    <g fill="none" fill-rule="evenodd" stroke-linecap="round" stroke-linejoin="round">
        <g stroke="#333" stroke-width="1.3">
            <g>
                <g>
                    <g>
                        <path d="M6 6.667c1.84 0 3.334-1.493 3.334-3.334C9.334 1.493 7.84 0 6 0S2.667 1.493 2.667 3.333C2.667 5.174 4.16 6.667 6 6.667zM2.667 9.928C1.062 10.558 0 11.626 0 12.833v1.833M4.571 14.667L2.667 12 2.667 9.928M9.334 9.928L9.334 12 7.429 14.666M12 14.667v-1.834c0-1.207-1.062-2.276-2.666-2.905M4.667 10L4.667 11.333M7.334 10L6 10.667 4.667 10M7.334 11.333L7.334 10M4.667 11.333L6 10.667 7.334 11.333" transform="translate(-578 -1876) translate(257) translate(322 1874) translate(0 3)"/>
                    </g>
                </g>
            </g>
        </g>
    </g>
</svg>
