<svg xmlns="http://www.w3.org/2000/svg" width="18" height="18" viewBox="0 0 18 18">
    <g fill="none" fill-rule="evenodd" stroke-linecap="round" stroke-linejoin="round">
        <g stroke="#333" stroke-width="1.3">
            <g>
                <g>
                    <g>
                        <path d="M9.455 2.91h-2.91c-.802 0-1.454-.653-1.454-1.455C5.091.65 5.743 0 6.546 0h2.909c.803 0 1.454.65 1.454 1.455 0 .802-.651 1.454-1.454 1.454zM10.91 1.455h.727c.802 0 1.454.65 1.454 1.454v2.91M4.364 16L11.637 16M5.818 9.455L5.818 16M10.182 9.455L10.182 16" transform="translate(-277 -1876) translate(257) translate(21 1874) translate(0 3)"/>
                        <path d="M14.546 9.455H1.455C.652 9.455 0 8.803 0 8v-.727c0-.804.652-1.455 1.455-1.455h13.09c.804 0 1.455.651 1.455 1.455V8c0 .803-.651 1.455-1.454 1.455z" transform="translate(-277 -1876) translate(257) translate(21 1874) translate(0 3)"/>
                    </g>
                </g>
            </g>
        </g>
    </g>
</svg>
