<svg xmlns="http://www.w3.org/2000/svg" width="17" height="17" viewBox="0 0 17 17">
    <g fill="none" fill-rule="evenodd" stroke-linecap="round" stroke-linejoin="round">
        <g stroke="#333" stroke-width="1.3">
            <g>
                <g>
                    <g>
                        <path d="M15 7.5c0 4.142-3.358 7.5-7.5 7.5C3.358 15 0 11.642 0 7.5 0 3.358 3.358 0 7.5 0 11.642 0 15 3.358 15 7.5z" transform="translate(-278 -1946) translate(257) translate(22 1944) translate(0 3)"/>
                        <path d="M6.137 10.91V4.09h2.727c.753 0 1.363.612 1.363 1.365v1.363c0 .753-.61 1.364-1.363 1.364H6.137" transform="translate(-278 -1946) translate(257) translate(22 1944) translate(0 3)"/>
                    </g>
                </g>
            </g>
        </g>
    </g>
</svg>
