<svg width="17" height="17" viewBox="0 0 17 17" fill="none" xmlns="http://www.w3.org/2000/svg">
<path fill-rule="evenodd" clip-rule="evenodd" d="M4.95787 4.25098C6.13148 4.25098 7.08287 3.29958 7.08287 2.12598C7.08287 0.952371 6.13148 0.000976562 4.95787 0.000976562C3.78427 0.000976562 2.83287 0.952371 2.83287 2.12598C2.83415 3.29905 3.7848 4.2497 4.95787 4.25098ZM16.2917 7.79172H10.625C9.26438 6.4311 7.41898 5.66671 5.49477 5.66672H3.54167C2.36859 5.668 1.41795 6.61865 1.41667 7.79172H0.708333C0.317132 7.79172 0 8.10885 0 8.50005C0 8.89126 0.317132 9.20839 0.708333 9.20839H16.2917C16.6829 9.20839 17 8.89126 17 8.50005C17 8.10885 16.6829 7.79172 16.2917 7.79172ZM12.7505 15.5841C13.1417 15.5841 13.4588 15.267 13.4588 14.8758V10.626H15.5838V17.001H1.41713V10.626H3.54213V14.8758C3.54213 15.267 3.85926 15.5841 4.25046 15.5841C4.64166 15.5841 4.95879 15.267 4.95879 14.8758V10.626H7.79213V14.8758C7.79213 15.267 8.10926 15.5841 8.50046 15.5841C8.89166 15.5841 9.20879 15.267 9.20879 14.8758V10.626H12.0421V14.8758C12.0421 15.267 12.3593 15.5841 12.7505 15.5841Z" fill="#1D1D1D"/>
</svg>
