<svg xmlns="http://www.w3.org/2000/svg" width="17" height="17" viewBox="0 0 17 17">
    <g fill="none" fill-rule="evenodd" stroke-linecap="round" stroke-linejoin="round">
        <g stroke="#333" stroke-width="1.3">
            <g>
                <g>
                    <g>
                        <path d="M12.955 12.273V7.894C14.157 7.368 15 6.17 15 4.773c0-1.883-1.526-3.41-3.409-3.41-.429 0-.835.089-1.214.233C9.773.64 8.715 0 7.5 0 6.285 0 5.227.64 4.623 1.596c-.378-.144-.785-.232-1.214-.232C1.527 1.364 0 2.89 0 4.773 0 6.17.842 7.368 2.046 7.894v4.379M2.046 15L12.955 15M4.773 8.182L4.773 11.591M7.5 8.182L7.5 11.591M10.227 8.182L10.227 11.591" transform="translate(-277 -1911) translate(257) translate(21 1909) translate(0 3)"/>
                    </g>
                </g>
            </g>
        </g>
    </g>
</svg>
