<svg xmlns="http://www.w3.org/2000/svg" width="17" height="16" viewBox="0 0 17 16">
    <g fill="none" fill-rule="evenodd" stroke-linecap="round" stroke-linejoin="round">
        <g stroke="#333" stroke-width="1.3">
            <g>
                <g>
                    <g>
                        <path d="M4.773 4.09v2.046c0 .377.305.682.682.682h4.09c.378 0 .682-.305.682-.682V4.091M15 4.09H0V1.365C0 .61.611 0 1.364 0h12.273C14.389 0 15 .61 15 1.364V4.09z" transform="translate(-955 -1877) translate(257) translate(699 1874) translate(0 4)"/>
                        <path d="M.682 4.09v8.183c0 .752.61 1.363 1.364 1.363h10.909c.752 0 1.363-.61 1.363-1.363V4.09" transform="translate(-955 -1877) translate(257) translate(699 1874) translate(0 4)"/>
                    </g>
                </g>
            </g>
        </g>
    </g>
</svg>
