<svg xmlns="http://www.w3.org/2000/svg" width="18" height="16" viewBox="0 0 18 16">
    <g fill="none" fill-rule="evenodd" stroke-linejoin="round">
        <g stroke="#333" stroke-width="1.3">
            <g>
                <g>
                    <g>
                        <path stroke-linecap="round" d="M11.136 5.378C10.426 2.405 8 .667 8 .667S5.573 2.405 4.864 5.379" transform="translate(-577 -1947) translate(257) translate(321 1944) translate(0 3)"/>
                        <path d="M6.15 9.641C3.59 7.147.005 7.337.005 7.337s-.203 3.35 2.467 5.742c1.616 1.575 3.636 2.078 4.91 2.236.001.023 1.238.023 1.238.006 1.275-.158 3.298-.66 4.915-2.234 2.67-2.391 2.463-5.747 2.463-5.747s-3.592-.193-6.152 2.301c-.921.825-1.483 1.761-1.846 2.639-.364-.878-.927-1.813-1.848-2.639z" transform="translate(-577 -1947) translate(257) translate(321 1944) translate(0 3)"/>
                    </g>
                </g>
            </g>
        </g>
    </g>
</svg>
