<svg xmlns="http://www.w3.org/2000/svg" width="8" height="12" viewBox="0 0 8 12">
    <g fill="none" fill-rule="evenodd">
        <g fill="#EA3700" fill-rule="nonzero">
            <path d="M314.298 610.34v-2.191h1.611c.297 0 .537-.24.537-.537 0-.297-.24-.538-.537-.538h-3.223c-.297 0-.537-.24-.537-.537 0-.296-.24-.537-.537-.537-.297 0-.538.24-.538.537.001.89.722 1.61 1.612 1.612h.537v2.191c-1.952.282-3.354 2.024-3.213 3.991.141 1.967 1.778 3.491 3.75 3.491 1.973 0 3.61-1.524 3.75-3.49.142-1.968-1.26-3.71-3.212-3.992zm-.538 5.866c-1.08.003-1.995-.8-2.131-1.873-.137-1.073.547-2.08 1.594-2.348v2.073c0 .296.24.537.537.537.297 0 .538-.24.538-.537v-2.073c1.047.269 1.73 1.275 1.594 2.348-.137 1.072-1.05 1.876-2.132 1.873z" transform="translate(-310 -606)"/>
        </g>
    </g>
</svg>
