<svg xmlns="http://www.w3.org/2000/svg" width="14" height="9" viewBox="0 0 14 9">
    <g fill="none" fill-rule="evenodd">
        <g fill="#7600EA" fill-rule="nonzero">
            <path d="M313.927 211.049c.93 0 1.683-.754 1.683-1.683 0-.93-.754-1.683-1.683-1.683-.93 0-1.683.754-1.683 1.683 0 .93.754 1.683 1.683 1.683zm7.293-3.366h-4.488v4.488h-5.61v-5.61c0-.31-.251-.561-.561-.561-.31 0-.561.251-.561.561v7.854c0 .31.251.561.561.561.31 0 .561-.251.561-.561v-.561h11.22v.561c0 .31.251.561.561.561.31 0 .561-.251.561-.561v-4.488c0-.595-.236-1.166-.657-1.587-.421-.42-.992-.657-1.587-.657z" transform="translate(-310 -206)"/>
        </g>
    </g>
</svg>
