<svg xmlns="http://www.w3.org/2000/svg" width="16" height="14" viewBox="0 0 16 14">
    <g fill="none" fill-rule="evenodd">
        <g fill="#333" fill-rule="nonzero">
            <g>
                <path d="M115 88.045c0 .528.427.955.955.955.527 0 .954-.427.954-.955v-.318h11.455v.318c0 .528.427.955.954.955.527 0 .955-.427.955-.955v-2.227H115v2.227zm1.91-9.227c.001-.702.57-1.27 1.272-1.273h2.545c.702.002 1.271.571 1.273 1.273v.637h1.273v-.637c.002-.702.57-1.27 1.272-1.273h2.546c.702.002 1.27.571 1.273 1.273v.637h1.272v-3.182c0-.703-.57-1.273-1.272-1.273h-11.455c-.703 0-1.273.57-1.273 1.273v3.182h1.273v-.637zm12.09 1.91h-12.727c-.703 0-1.273.57-1.273 1.272v2.545h15.273V82c0-.703-.57-1.273-1.273-1.273z" transform="translate(-425 -309) translate(310 234)"/>
            </g>
        </g>
    </g>
</svg>
