<svg xmlns="http://www.w3.org/2000/svg" width="12" height="14" viewBox="0 0 12 14">
    <g fill="none" fill-rule="evenodd">
        <g fill="#333" fill-rule="nonzero">
            <g>
                <g>
                    <path d="M340.065 127.535c.036.599.533 1.066 1.134 1.065h6.936c.6.001 1.097-.466 1.133-1.065l.499-8.002h-10.2l.498 8.002zm9.702-10.268h-1.7v-.567c0-.939-.761-1.7-1.7-1.7h-3.4c-.94 0-1.7.761-1.7 1.7v.567h-1.7c-.313 0-.567.253-.567.566 0 .313.254.567.567.567h10.2c.313 0 .566-.254.566-.567 0-.313-.253-.566-.566-.566zm-2.834 0H342.4v-.567c0-.313.254-.567.567-.567h3.4c.313 0 .566.254.566.567v.567z" transform="translate(-709 -513) translate(310 234) translate(60 164)"/>
                </g>
            </g>
        </g>
    </g>
</svg>
