<svg xmlns="http://www.w3.org/2000/svg" width="16" height="14" viewBox="0 0 16 14">
    <g fill="none" fill-rule="evenodd">
        <g fill="#333" fill-rule="nonzero">
            <g>
                <g>
                    <path d="M0 12.135v2.198h2V11.47c.009-.795.277-1.565.764-2.194C1.138 9.765 0 10.862 0 12.135zM8 7c1.657 0 3-1.343 3-3S9.657 1 8 1 5 2.343 5 4c.002 1.656 1.344 2.998 3 3zM3.667 4c0-.29.029-.58.087-.864C3.512 3.049 3.257 3.003 3 3 1.92 2.993.978 3.727.72 4.775s.236 2.136 1.195 2.632c.959.495 2.132.268 2.837-.55C4.053 6.07 3.667 5.054 3.667 4zm9.569 5.275c.487.629.755 1.399.764 2.194v2.864h2v-2.198c0-1.273-1.138-2.37-2.764-2.86zm2.097-3.942C15.332 4.045 14.288 3.002 13 3c-.257.003-.512.049-.754.136.271 1.328-.099 2.707-.998 3.722.634.738 1.662 1.002 2.574.662.912-.34 1.516-1.213 1.511-2.187zM8 8.333c-2.573 0-4.667 1.407-4.667 3.136v2.864h9.334V11.47c0-1.73-2.094-3.136-4.667-3.136z" transform="translate(-561 -308) translate(310 234) translate(251 73)"/>
                </g>
            </g>
        </g>
    </g>
</svg>
