<svg xmlns="http://www.w3.org/2000/svg" width="20" height="20" viewBox="0 0 20 20">
    <g fill="none" fill-rule="evenodd" stroke="#6C7A8F" stroke-linecap="round" stroke-linejoin="round" stroke-width="1.5">
        <path d="M3.637 8.182L8.183 3.637M3.34 14.317c-.002.033-.008.063-.01.098-.06.922-.333 1.825-.796 2.62-.46.792-1.158 1.57-2.177 1.812 0 0-.405.122-.352.577.05.452.654.576.654.576s3.939.06 6.933-1.431M.942 5.487L13.215 17.76 20 20l-2.24-6.785L5.488.942C4.232-.314 2.198-.314.942.942c-1.255 1.255-1.255 3.29 0 4.545zM16.799 5.824l2.82-3.258c.56-.643.495-1.621-.144-2.183-.64-.563-1.61-.497-2.17.145l-2.808 2.994"/>
    </g>
</svg>
