<svg xmlns="http://www.w3.org/2000/svg" width="20" height="20" viewBox="0 0 20 20">
    <g fill="none" fill-rule="evenodd" stroke="#6C7A8F" stroke-linecap="round" stroke-linejoin="round" stroke-width="1.5">
        <path d="M10 5.455L10 4.091M10 12.273L10 10.909M11.364 5.455H9.546c-.753 0-1.364.61-1.364 1.363 0 .754.611 1.364 1.364 1.364h.909c.753 0 1.363.61 1.363 1.363 0 .754-.61 1.364-1.363 1.364H8.182" transform="translate(0 2)"/>
        <path d="M18.718.166C13.346-.856 6.345 3.217 1.024 2.026.499 1.91 0 2.288 0 2.816v11.789c0 .758.524 1.448 1.282 1.592 5.374 1.023 12.376-3.05 17.694-1.86.525.118 1.024-.261 1.024-.79V1.758c0-.71-.57-1.456-1.282-1.592z" transform="translate(0 2)"/>
    </g>
</svg>
